<?xml version="1.0" encoding="UTF-8" standalone="no"?>
<!-- Created with Inkscape (http://www.inkscape.org/) -->

<svg
   width="210mm"
   height="297mm"
   viewBox="0 0 210 297"
   version="1.1"
   id="svg3982"
   xml:space="preserve"
   inkscape:version="1.2.1 (9c6d41e410, 2022-07-14)"
   sodipodi:docname="Cap_paper_cover.svg"
   inkscape:export-filename="Cap_paper_cover.png"
   inkscape:export-xdpi="300"
   inkscape:export-ydpi="300"
   xmlns:inkscape="http://www.inkscape.org/namespaces/inkscape"
   xmlns:sodipodi="http://sodipodi.sourceforge.net/DTD/sodipodi-0.dtd"
   xmlns="http://www.w3.org/2000/svg"
   xmlns:svg="http://www.w3.org/2000/svg"><sodipodi:namedview
     id="namedview3984"
     pagecolor="#ffffff"
     bordercolor="#cccccc"
     borderopacity="1"
     inkscape:showpageshadow="0"
     inkscape:pageopacity="1"
     inkscape:pagecheckerboard="0"
     inkscape:deskcolor="#d1d1d1"
     inkscape:document-units="mm"
     showgrid="false"
     inkscape:zoom="0.38083965"
     inkscape:cx="292.77414"
     inkscape:cy="406.99544"
     inkscape:window-width="1920"
     inkscape:window-height="1009"
     inkscape:window-x="-8"
     inkscape:window-y="-8"
     inkscape:window-maximized="1"
     inkscape:current-layer="layer1" /><defs
     id="defs3979"><marker
       id="DistanceX"
       orient="auto"
       refX="0.0"
       refY="0.0"
       style="overflow:visible"><path
         d="M 3,-3 L -3,3 M 0,-5 L  0,5"
         style="stroke:#000000; stroke-width:0.5"
         id="path4468" /></marker><pattern
       id="Hatch"
       patternUnits="userSpaceOnUse"
       width="8"
       height="8"
       x="0"
       y="0"><path
         d="M8 4 l-4,4"
         stroke="#000000"
         stroke-width="0.25"
         linecap="square"
         id="path4471" /><path
         d="M6 2 l-4,4"
         stroke="#000000"
         stroke-width="0.25"
         linecap="square"
         id="path4473" /><path
         d="M4 0 l-4,4"
         stroke="#000000"
         stroke-width="0.25"
         linecap="square"
         id="path4475" /></pattern><symbol
       id="*MODEL_SPACE" /><symbol
       id="*PAPER_SPACE" /></defs><g
     inkscape:label="Layer 1"
     inkscape:groupmode="layer"
     id="layer1"><g
       id="g4569"
       transform="translate(-34.899423,-20.75183)"><path
         d="m 55.926314,34.710514 a 7.850002,29.900007 0 0 0 0,59.800013 7.850002,29.900007 0 0 0 0,-59.800013 z"
         style="fill:none;stroke:#000000;stroke-width:0.264583"
         id="path4492" /><path
         d="m 57.926314,64.61052 a 2,2 0 0 0 -4,0 2,2 0 0 0 4,0 z"
         style="fill:none;stroke:#000000;stroke-width:0.264583"
         id="path4494" /><path
         d="m 57.926314,88.510518 a 2,2 0 0 0 -4,0 2,2 0 0 0 4,0 z"
         style="fill:none;stroke:#000000;stroke-width:0.264583"
         id="path4496" /><path
         d="m 57.926314,40.710523 a 2,2 0 0 0 -4,0 2,2 0 0 0 4,0 z"
         style="fill:none;stroke:#000000;stroke-width:0.264583"
         id="path4498" /><path
         d="m 74.426314,64.61052 a 7.5,7.5 0 0 0 -15,0 7.5,7.5 0 0 0 15,0 z"
         style="fill:#000000;stroke:#000000;stroke-width:0.264583"
         id="path4502" /><path
         d="m 49.926314,64.61052 a 5,5 0 0 0 -10,0 5,5 0 0 0 10,0 z"
         style="fill:#000000;stroke:#000000;stroke-width:0.264583"
         id="path4504" /></g><g
       id="g4583"
       transform="translate(6.2481403,-18.786818)"><path
         d="m 55.926314,34.710514 a 7.850002,29.900007 0 0 0 0,59.800013 7.850002,29.900007 0 0 0 0,-59.800013 z"
         style="fill:none;stroke:#000000;stroke-width:0.264583"
         id="path4571" /><path
         d="m 57.926314,64.61052 a 2,2 0 0 0 -4,0 2,2 0 0 0 4,0 z"
         style="fill:none;stroke:#000000;stroke-width:0.264583"
         id="path4573" /><path
         d="m 57.926314,88.510518 a 2,2 0 0 0 -4,0 2,2 0 0 0 4,0 z"
         style="fill:none;stroke:#000000;stroke-width:0.264583"
         id="path4575" /><path
         d="m 57.926314,40.710523 a 2,2 0 0 0 -4,0 2,2 0 0 0 4,0 z"
         style="fill:none;stroke:#000000;stroke-width:0.264583"
         id="path4577" /><path
         d="m 74.426314,64.61052 a 7.5,7.5 0 0 0 -15,0 7.5,7.5 0 0 0 15,0 z"
         style="fill:#000000;stroke:#000000;stroke-width:0.264583"
         id="path4579" /><path
         d="m 49.926314,64.61052 a 5,5 0 0 0 -10,0 5,5 0 0 0 10,0 z"
         style="fill:#000000;stroke:#000000;stroke-width:0.264583"
         id="path4581" /></g><g
       id="g4597"
       transform="translate(47.395704,-18.990301)"><path
         d="m 55.926314,34.710514 a 7.850002,29.900007 0 0 0 0,59.800013 7.850002,29.900007 0 0 0 0,-59.800013 z"
         style="fill:none;stroke:#000000;stroke-width:0.264583"
         id="path4585" /><path
         d="m 57.926314,64.61052 a 2,2 0 0 0 -4,0 2,2 0 0 0 4,0 z"
         style="fill:none;stroke:#000000;stroke-width:0.264583"
         id="path4587" /><path
         d="m 57.926314,88.510518 a 2,2 0 0 0 -4,0 2,2 0 0 0 4,0 z"
         style="fill:none;stroke:#000000;stroke-width:0.264583"
         id="path4589" /><path
         d="m 57.926314,40.710523 a 2,2 0 0 0 -4,0 2,2 0 0 0 4,0 z"
         style="fill:none;stroke:#000000;stroke-width:0.264583"
         id="path4591" /><path
         d="m 74.426314,64.61052 a 7.5,7.5 0 0 0 -15,0 7.5,7.5 0 0 0 15,0 z"
         style="fill:#000000;stroke:#000000;stroke-width:0.264583"
         id="path4593" /><path
         d="m 49.926314,64.61052 a 5,5 0 0 0 -10,0 5,5 0 0 0 10,0 z"
         style="fill:#000000;stroke:#000000;stroke-width:0.264583"
         id="path4595" /></g><g
       id="g4619"
       transform="translate(88.543267,-18.176367)"><path
         d="m 55.926314,34.710514 a 7.850002,29.900007 0 0 0 0,59.800013 7.850002,29.900007 0 0 0 0,-59.800013 z"
         style="fill:none;stroke:#000000;stroke-width:0.264583"
         id="path4599" /><path
         d="m 57.926314,64.61052 a 2,2 0 0 0 -4,0 2,2 0 0 0 4,0 z"
         style="fill:none;stroke:#000000;stroke-width:0.264583"
         id="path4601" /><path
         d="m 57.926314,88.510518 a 2,2 0 0 0 -4,0 2,2 0 0 0 4,0 z"
         style="fill:none;stroke:#000000;stroke-width:0.264583"
         id="path4603" /><path
         d="m 57.926314,40.710523 a 2,2 0 0 0 -4,0 2,2 0 0 0 4,0 z"
         style="fill:none;stroke:#000000;stroke-width:0.264583"
         id="path4605" /><path
         d="m 74.426314,64.61052 a 7.5,7.5 0 0 0 -15,0 7.5,7.5 0 0 0 15,0 z"
         style="fill:#000000;stroke:#000000;stroke-width:0.264583"
         id="path4607" /><path
         d="m 49.926314,64.61052 a 5,5 0 0 0 -10,0 5,5 0 0 0 10,0 z"
         style="fill:#000000;stroke:#000000;stroke-width:0.264583"
         id="path4609" /></g><g
       id="g4633"
       transform="translate(129.69083,-17.685114)"><path
         d="m 55.926314,34.710514 a 7.850002,29.900007 0 0 0 0,59.800013 7.850002,29.900007 0 0 0 0,-59.800013 z"
         style="fill:none;stroke:#000000;stroke-width:0.264583"
         id="path4621" /><path
         d="m 57.926314,64.61052 a 2,2 0 0 0 -4,0 2,2 0 0 0 4,0 z"
         style="fill:none;stroke:#000000;stroke-width:0.264583"
         id="path4623" /><path
         d="m 57.926314,88.510518 a 2,2 0 0 0 -4,0 2,2 0 0 0 4,0 z"
         style="fill:none;stroke:#000000;stroke-width:0.264583"
         id="path4625" /><path
         d="m 57.926314,40.710523 a 2,2 0 0 0 -4,0 2,2 0 0 0 4,0 z"
         style="fill:none;stroke:#000000;stroke-width:0.264583"
         id="path4627" /><path
         d="m 74.426314,64.61052 a 7.5,7.5 0 0 0 -15,0 7.5,7.5 0 0 0 15,0 z"
         style="fill:#000000;stroke:#000000;stroke-width:0.264583"
         id="path4629" /><path
         d="m 49.926314,64.61052 a 5,5 0 0 0 -10,0 5,5 0 0 0 10,0 z"
         style="fill:#000000;stroke:#000000;stroke-width:0.264583"
         id="path4631" /></g><g
       id="g4661"
       transform="translate(-34.899423,45.394033)"><path
         d="m 55.926314,34.710514 a 7.850002,29.900007 0 0 0 0,59.800013 7.850002,29.900007 0 0 0 0,-59.800013 z"
         style="fill:none;stroke:#000000;stroke-width:0.264583"
         id="path4649" /><path
         d="m 57.926314,64.61052 a 2,2 0 0 0 -4,0 2,2 0 0 0 4,0 z"
         style="fill:none;stroke:#000000;stroke-width:0.264583"
         id="path4651" /><path
         d="m 57.926314,88.510518 a 2,2 0 0 0 -4,0 2,2 0 0 0 4,0 z"
         style="fill:none;stroke:#000000;stroke-width:0.264583"
         id="path4653" /><path
         d="m 57.926314,40.710523 a 2,2 0 0 0 -4,0 2,2 0 0 0 4,0 z"
         style="fill:none;stroke:#000000;stroke-width:0.264583"
         id="path4655" /><path
         d="m 74.426314,64.61052 a 7.5,7.5 0 0 0 -15,0 7.5,7.5 0 0 0 15,0 z"
         style="fill:#000000;stroke:#000000;stroke-width:0.264583"
         id="path4657" /><path
         d="m 49.926314,64.61052 a 5,5 0 0 0 -10,0 5,5 0 0 0 10,0 z"
         style="fill:#000000;stroke:#000000;stroke-width:0.264583"
         id="path4659" /></g><g
       id="g4675"
       transform="translate(6.2481403,47.359045)"><path
         d="m 55.926314,34.710514 a 7.850002,29.900007 0 0 0 0,59.800013 7.850002,29.900007 0 0 0 0,-59.800013 z"
         style="fill:none;stroke:#000000;stroke-width:0.264583"
         id="path4663" /><path
         d="m 57.926314,64.61052 a 2,2 0 0 0 -4,0 2,2 0 0 0 4,0 z"
         style="fill:none;stroke:#000000;stroke-width:0.264583"
         id="path4665" /><path
         d="m 57.926314,88.510518 a 2,2 0 0 0 -4,0 2,2 0 0 0 4,0 z"
         style="fill:none;stroke:#000000;stroke-width:0.264583"
         id="path4667" /><path
         d="m 57.926314,40.710523 a 2,2 0 0 0 -4,0 2,2 0 0 0 4,0 z"
         style="fill:none;stroke:#000000;stroke-width:0.264583"
         id="path4669" /><path
         d="m 74.426314,64.61052 a 7.5,7.5 0 0 0 -15,0 7.5,7.5 0 0 0 15,0 z"
         style="fill:#000000;stroke:#000000;stroke-width:0.264583"
         id="path4671" /><path
         d="m 49.926314,64.61052 a 5,5 0 0 0 -10,0 5,5 0 0 0 10,0 z"
         style="fill:#000000;stroke:#000000;stroke-width:0.264583"
         id="path4673" /></g><g
       id="g4689"
       transform="translate(47.395704,47.155562)"><path
         d="m 55.926314,34.710514 a 7.850002,29.900007 0 0 0 0,59.800013 7.850002,29.900007 0 0 0 0,-59.800013 z"
         style="fill:none;stroke:#000000;stroke-width:0.264583"
         id="path4677" /><path
         d="m 57.926314,64.61052 a 2,2 0 0 0 -4,0 2,2 0 0 0 4,0 z"
         style="fill:none;stroke:#000000;stroke-width:0.264583"
         id="path4679" /><path
         d="m 57.926314,88.510518 a 2,2 0 0 0 -4,0 2,2 0 0 0 4,0 z"
         style="fill:none;stroke:#000000;stroke-width:0.264583"
         id="path4681" /><path
         d="m 57.926314,40.710523 a 2,2 0 0 0 -4,0 2,2 0 0 0 4,0 z"
         style="fill:none;stroke:#000000;stroke-width:0.264583"
         id="path4683" /><path
         d="m 74.426314,64.61052 a 7.5,7.5 0 0 0 -15,0 7.5,7.5 0 0 0 15,0 z"
         style="fill:#000000;stroke:#000000;stroke-width:0.264583"
         id="path4685" /><path
         d="m 49.926314,64.61052 a 5,5 0 0 0 -10,0 5,5 0 0 0 10,0 z"
         style="fill:#000000;stroke:#000000;stroke-width:0.264583"
         id="path4687" /></g><g
       id="g4703"
       transform="translate(88.543267,47.969496)"><path
         d="m 55.926314,34.710514 a 7.850002,29.900007 0 0 0 0,59.800013 7.850002,29.900007 0 0 0 0,-59.800013 z"
         style="fill:none;stroke:#000000;stroke-width:0.264583"
         id="path4691" /><path
         d="m 57.926314,64.61052 a 2,2 0 0 0 -4,0 2,2 0 0 0 4,0 z"
         style="fill:none;stroke:#000000;stroke-width:0.264583"
         id="path4693" /><path
         d="m 57.926314,88.510518 a 2,2 0 0 0 -4,0 2,2 0 0 0 4,0 z"
         style="fill:none;stroke:#000000;stroke-width:0.264583"
         id="path4695" /><path
         d="m 57.926314,40.710523 a 2,2 0 0 0 -4,0 2,2 0 0 0 4,0 z"
         style="fill:none;stroke:#000000;stroke-width:0.264583"
         id="path4697" /><path
         d="m 74.426314,64.61052 a 7.5,7.5 0 0 0 -15,0 7.5,7.5 0 0 0 15,0 z"
         style="fill:#000000;stroke:#000000;stroke-width:0.264583"
         id="path4699" /><path
         d="m 49.926314,64.61052 a 5,5 0 0 0 -10,0 5,5 0 0 0 10,0 z"
         style="fill:#000000;stroke:#000000;stroke-width:0.264583"
         id="path4701" /></g><g
       id="g4717"
       transform="translate(129.69083,48.460749)"><path
         d="m 55.926314,34.710514 a 7.850002,29.900007 0 0 0 0,59.800013 7.850002,29.900007 0 0 0 0,-59.800013 z"
         style="fill:none;stroke:#000000;stroke-width:0.264583"
         id="path4705" /><path
         d="m 57.926314,64.61052 a 2,2 0 0 0 -4,0 2,2 0 0 0 4,0 z"
         style="fill:none;stroke:#000000;stroke-width:0.264583"
         id="path4707" /><path
         d="m 57.926314,88.510518 a 2,2 0 0 0 -4,0 2,2 0 0 0 4,0 z"
         style="fill:none;stroke:#000000;stroke-width:0.264583"
         id="path4709" /><path
         d="m 57.926314,40.710523 a 2,2 0 0 0 -4,0 2,2 0 0 0 4,0 z"
         style="fill:none;stroke:#000000;stroke-width:0.264583"
         id="path4711" /><path
         d="m 74.426314,64.61052 a 7.5,7.5 0 0 0 -15,0 7.5,7.5 0 0 0 15,0 z"
         style="fill:#000000;stroke:#000000;stroke-width:0.264583"
         id="path4713" /><path
         d="m 49.926314,64.61052 a 5,5 0 0 0 -10,0 5,5 0 0 0 10,0 z"
         style="fill:#000000;stroke:#000000;stroke-width:0.264583"
         id="path4715" /></g><g
       id="g4731"
       transform="translate(-34.899423,110.48163)"><path
         d="m 55.926314,34.710514 a 7.850002,29.900007 0 0 0 0,59.800013 7.850002,29.900007 0 0 0 0,-59.800013 z"
         style="fill:none;stroke:#000000;stroke-width:0.264583"
         id="path4719" /><path
         d="m 57.926314,64.61052 a 2,2 0 0 0 -4,0 2,2 0 0 0 4,0 z"
         style="fill:none;stroke:#000000;stroke-width:0.264583"
         id="path4721" /><path
         d="m 57.926314,88.510518 a 2,2 0 0 0 -4,0 2,2 0 0 0 4,0 z"
         style="fill:none;stroke:#000000;stroke-width:0.264583"
         id="path4723" /><path
         d="m 57.926314,40.710523 a 2,2 0 0 0 -4,0 2,2 0 0 0 4,0 z"
         style="fill:none;stroke:#000000;stroke-width:0.264583"
         id="path4725" /><path
         d="m 74.426314,64.61052 a 7.5,7.5 0 0 0 -15,0 7.5,7.5 0 0 0 15,0 z"
         style="fill:#000000;stroke:#000000;stroke-width:0.264583"
         id="path4727" /><path
         d="m 49.926314,64.61052 a 5,5 0 0 0 -10,0 5,5 0 0 0 10,0 z"
         style="fill:#000000;stroke:#000000;stroke-width:0.264583"
         id="path4729" /></g><g
       id="g4745"
       transform="translate(6.2481403,112.44665)"><path
         d="m 55.926314,34.710514 a 7.850002,29.900007 0 0 0 0,59.800013 7.850002,29.900007 0 0 0 0,-59.800013 z"
         style="fill:none;stroke:#000000;stroke-width:0.264583"
         id="path4733" /><path
         d="m 57.926314,64.61052 a 2,2 0 0 0 -4,0 2,2 0 0 0 4,0 z"
         style="fill:none;stroke:#000000;stroke-width:0.264583"
         id="path4735" /><path
         d="m 57.926314,88.510518 a 2,2 0 0 0 -4,0 2,2 0 0 0 4,0 z"
         style="fill:none;stroke:#000000;stroke-width:0.264583"
         id="path4737" /><path
         d="m 57.926314,40.710523 a 2,2 0 0 0 -4,0 2,2 0 0 0 4,0 z"
         style="fill:none;stroke:#000000;stroke-width:0.264583"
         id="path4739" /><path
         d="m 74.426314,64.61052 a 7.5,7.5 0 0 0 -15,0 7.5,7.5 0 0 0 15,0 z"
         style="fill:#000000;stroke:#000000;stroke-width:0.264583"
         id="path4741" /><path
         d="m 49.926314,64.61052 a 5,5 0 0 0 -10,0 5,5 0 0 0 10,0 z"
         style="fill:#000000;stroke:#000000;stroke-width:0.264583"
         id="path4743" /></g><g
       id="g4759"
       transform="translate(47.395704,112.24317)"><path
         d="m 55.926314,34.710514 a 7.850002,29.900007 0 0 0 0,59.800013 7.850002,29.900007 0 0 0 0,-59.800013 z"
         style="fill:none;stroke:#000000;stroke-width:0.264583"
         id="path4747" /><path
         d="m 57.926314,64.61052 a 2,2 0 0 0 -4,0 2,2 0 0 0 4,0 z"
         style="fill:none;stroke:#000000;stroke-width:0.264583"
         id="path4749" /><path
         d="m 57.926314,88.510518 a 2,2 0 0 0 -4,0 2,2 0 0 0 4,0 z"
         style="fill:none;stroke:#000000;stroke-width:0.264583"
         id="path4751" /><path
         d="m 57.926314,40.710523 a 2,2 0 0 0 -4,0 2,2 0 0 0 4,0 z"
         style="fill:none;stroke:#000000;stroke-width:0.264583"
         id="path4753" /><path
         d="m 74.426314,64.61052 a 7.5,7.5 0 0 0 -15,0 7.5,7.5 0 0 0 15,0 z"
         style="fill:#000000;stroke:#000000;stroke-width:0.264583"
         id="path4755" /><path
         d="m 49.926314,64.61052 a 5,5 0 0 0 -10,0 5,5 0 0 0 10,0 z"
         style="fill:#000000;stroke:#000000;stroke-width:0.264583"
         id="path4757" /></g><g
       id="g4773"
       transform="translate(88.543267,113.05711)"><path
         d="m 55.926314,34.710514 a 7.850002,29.900007 0 0 0 0,59.800013 7.850002,29.900007 0 0 0 0,-59.800013 z"
         style="fill:none;stroke:#000000;stroke-width:0.264583"
         id="path4761" /><path
         d="m 57.926314,64.61052 a 2,2 0 0 0 -4,0 2,2 0 0 0 4,0 z"
         style="fill:none;stroke:#000000;stroke-width:0.264583"
         id="path4763" /><path
         d="m 57.926314,88.510518 a 2,2 0 0 0 -4,0 2,2 0 0 0 4,0 z"
         style="fill:none;stroke:#000000;stroke-width:0.264583"
         id="path4765" /><path
         d="m 57.926314,40.710523 a 2,2 0 0 0 -4,0 2,2 0 0 0 4,0 z"
         style="fill:none;stroke:#000000;stroke-width:0.264583"
         id="path4767" /><path
         d="m 74.426314,64.61052 a 7.5,7.5 0 0 0 -15,0 7.5,7.5 0 0 0 15,0 z"
         style="fill:#000000;stroke:#000000;stroke-width:0.264583"
         id="path4769" /><path
         d="m 49.926314,64.61052 a 5,5 0 0 0 -10,0 5,5 0 0 0 10,0 z"
         style="fill:#000000;stroke:#000000;stroke-width:0.264583"
         id="path4771" /></g><g
       id="g4787"
       transform="translate(129.69083,113.54836)"><path
         d="m 55.926314,34.710514 a 7.850002,29.900007 0 0 0 0,59.800013 7.850002,29.900007 0 0 0 0,-59.800013 z"
         style="fill:none;stroke:#000000;stroke-width:0.264583"
         id="path4775" /><path
         d="m 57.926314,64.61052 a 2,2 0 0 0 -4,0 2,2 0 0 0 4,0 z"
         style="fill:none;stroke:#000000;stroke-width:0.264583"
         id="path4777" /><path
         d="m 57.926314,88.510518 a 2,2 0 0 0 -4,0 2,2 0 0 0 4,0 z"
         style="fill:none;stroke:#000000;stroke-width:0.264583"
         id="path4779" /><path
         d="m 57.926314,40.710523 a 2,2 0 0 0 -4,0 2,2 0 0 0 4,0 z"
         style="fill:none;stroke:#000000;stroke-width:0.264583"
         id="path4781" /><path
         d="m 74.426314,64.61052 a 7.5,7.5 0 0 0 -15,0 7.5,7.5 0 0 0 15,0 z"
         style="fill:#000000;stroke:#000000;stroke-width:0.264583"
         id="path4783" /><path
         d="m 49.926314,64.61052 a 5,5 0 0 0 -10,0 5,5 0 0 0 10,0 z"
         style="fill:#000000;stroke:#000000;stroke-width:0.264583"
         id="path4785" /></g><g
       id="g4801"
       transform="translate(-34.899423,177.68622)"><path
         d="m 55.926314,34.710514 a 7.850002,29.900007 0 0 0 0,59.800013 7.850002,29.900007 0 0 0 0,-59.800013 z"
         style="fill:none;stroke:#000000;stroke-width:0.264583"
         id="path4789" /><path
         d="m 57.926314,64.61052 a 2,2 0 0 0 -4,0 2,2 0 0 0 4,0 z"
         style="fill:none;stroke:#000000;stroke-width:0.264583"
         id="path4791" /><path
         d="m 57.926314,88.510518 a 2,2 0 0 0 -4,0 2,2 0 0 0 4,0 z"
         style="fill:none;stroke:#000000;stroke-width:0.264583"
         id="path4793" /><path
         d="m 57.926314,40.710523 a 2,2 0 0 0 -4,0 2,2 0 0 0 4,0 z"
         style="fill:none;stroke:#000000;stroke-width:0.264583"
         id="path4795" /><path
         d="m 74.426314,64.61052 a 7.5,7.5 0 0 0 -15,0 7.5,7.5 0 0 0 15,0 z"
         style="fill:#000000;stroke:#000000;stroke-width:0.264583"
         id="path4797" /><path
         d="m 49.926314,64.61052 a 5,5 0 0 0 -10,0 5,5 0 0 0 10,0 z"
         style="fill:#000000;stroke:#000000;stroke-width:0.264583"
         id="path4799" /></g><g
       id="g4815"
       transform="translate(6.2481403,179.65124)"><path
         d="m 55.926314,34.710514 a 7.850002,29.900007 0 0 0 0,59.800013 7.850002,29.900007 0 0 0 0,-59.800013 z"
         style="fill:none;stroke:#000000;stroke-width:0.264583"
         id="path4803" /><path
         d="m 57.926314,64.61052 a 2,2 0 0 0 -4,0 2,2 0 0 0 4,0 z"
         style="fill:none;stroke:#000000;stroke-width:0.264583"
         id="path4805" /><path
         d="m 57.926314,88.510518 a 2,2 0 0 0 -4,0 2,2 0 0 0 4,0 z"
         style="fill:none;stroke:#000000;stroke-width:0.264583"
         id="path4807" /><path
         d="m 57.926314,40.710523 a 2,2 0 0 0 -4,0 2,2 0 0 0 4,0 z"
         style="fill:none;stroke:#000000;stroke-width:0.264583"
         id="path4809" /><path
         d="m 74.426314,64.61052 a 7.5,7.5 0 0 0 -15,0 7.5,7.5 0 0 0 15,0 z"
         style="fill:#000000;stroke:#000000;stroke-width:0.264583"
         id="path4811" /><path
         d="m 49.926314,64.61052 a 5,5 0 0 0 -10,0 5,5 0 0 0 10,0 z"
         style="fill:#000000;stroke:#000000;stroke-width:0.264583"
         id="path4813" /></g><g
       id="g4829"
       transform="translate(47.395704,179.44776)"><path
         d="m 55.926314,34.710514 a 7.850002,29.900007 0 0 0 0,59.800013 7.850002,29.900007 0 0 0 0,-59.800013 z"
         style="fill:none;stroke:#000000;stroke-width:0.264583"
         id="path4817" /><path
         d="m 57.926314,64.61052 a 2,2 0 0 0 -4,0 2,2 0 0 0 4,0 z"
         style="fill:none;stroke:#000000;stroke-width:0.264583"
         id="path4819" /><path
         d="m 57.926314,88.510518 a 2,2 0 0 0 -4,0 2,2 0 0 0 4,0 z"
         style="fill:none;stroke:#000000;stroke-width:0.264583"
         id="path4821" /><path
         d="m 57.926314,40.710523 a 2,2 0 0 0 -4,0 2,2 0 0 0 4,0 z"
         style="fill:none;stroke:#000000;stroke-width:0.264583"
         id="path4823" /><path
         d="m 74.426314,64.61052 a 7.5,7.5 0 0 0 -15,0 7.5,7.5 0 0 0 15,0 z"
         style="fill:#000000;stroke:#000000;stroke-width:0.264583"
         id="path4825" /><path
         d="m 49.926314,64.61052 a 5,5 0 0 0 -10,0 5,5 0 0 0 10,0 z"
         style="fill:#000000;stroke:#000000;stroke-width:0.264583"
         id="path4827" /></g><g
       id="g4843"
       transform="translate(88.543267,180.2617)"><path
         d="m 55.926314,34.710514 a 7.850002,29.900007 0 0 0 0,59.800013 7.850002,29.900007 0 0 0 0,-59.800013 z"
         style="fill:none;stroke:#000000;stroke-width:0.264583"
         id="path4831" /><path
         d="m 57.926314,64.61052 a 2,2 0 0 0 -4,0 2,2 0 0 0 4,0 z"
         style="fill:none;stroke:#000000;stroke-width:0.264583"
         id="path4833" /><path
         d="m 57.926314,88.510518 a 2,2 0 0 0 -4,0 2,2 0 0 0 4,0 z"
         style="fill:none;stroke:#000000;stroke-width:0.264583"
         id="path4835" /><path
         d="m 57.926314,40.710523 a 2,2 0 0 0 -4,0 2,2 0 0 0 4,0 z"
         style="fill:none;stroke:#000000;stroke-width:0.264583"
         id="path4837" /><path
         d="m 74.426314,64.61052 a 7.5,7.5 0 0 0 -15,0 7.5,7.5 0 0 0 15,0 z"
         style="fill:#000000;stroke:#000000;stroke-width:0.264583"
         id="path4839" /><path
         d="m 49.926314,64.61052 a 5,5 0 0 0 -10,0 5,5 0 0 0 10,0 z"
         style="fill:#000000;stroke:#000000;stroke-width:0.264583"
         id="path4841" /></g><g
       id="g4857"
       transform="translate(129.69083,180.75295)"><path
         d="m 55.926314,34.710514 a 7.850002,29.900007 0 0 0 0,59.800013 7.850002,29.900007 0 0 0 0,-59.800013 z"
         style="fill:none;stroke:#000000;stroke-width:0.264583"
         id="path4845" /><path
         d="m 57.926314,64.61052 a 2,2 0 0 0 -4,0 2,2 0 0 0 4,0 z"
         style="fill:none;stroke:#000000;stroke-width:0.264583"
         id="path4847" /><path
         d="m 57.926314,88.510518 a 2,2 0 0 0 -4,0 2,2 0 0 0 4,0 z"
         style="fill:none;stroke:#000000;stroke-width:0.264583"
         id="path4849" /><path
         d="m 57.926314,40.710523 a 2,2 0 0 0 -4,0 2,2 0 0 0 4,0 z"
         style="fill:none;stroke:#000000;stroke-width:0.264583"
         id="path4851" /><path
         d="m 74.426314,64.61052 a 7.5,7.5 0 0 0 -15,0 7.5,7.5 0 0 0 15,0 z"
         style="fill:#000000;stroke:#000000;stroke-width:0.264583"
         id="path4853" /><path
         d="m 49.926314,64.61052 a 5,5 0 0 0 -10,0 5,5 0 0 0 10,0 z"
         style="fill:#000000;stroke:#000000;stroke-width:0.264583"
         id="path4855" /></g></g></svg>
