<?xml version="1.0" encoding="UTF-8" standalone="no"?>
<!-- Created with Inkscape (http://www.inkscape.org/) -->

<svg
   width="210mm"
   height="297mm"
   viewBox="0 0 210 297"
   version="1.1"
   id="svg3982"
   xml:space="preserve"
   inkscape:version="1.2.1 (9c6d41e410, 2022-07-14)"
   sodipodi:docname="Circular_body_paper_cover.svg"
   inkscape:export-filename="Circular_body_paper_cove.png"
   inkscape:export-xdpi="300"
   inkscape:export-ydpi="300"
   xmlns:inkscape="http://www.inkscape.org/namespaces/inkscape"
   xmlns:sodipodi="http://sodipodi.sourceforge.net/DTD/sodipodi-0.dtd"
   xmlns="http://www.w3.org/2000/svg"
   xmlns:svg="http://www.w3.org/2000/svg"><sodipodi:namedview
     id="namedview3984"
     pagecolor="#ffffff"
     bordercolor="#cccccc"
     borderopacity="1"
     inkscape:showpageshadow="0"
     inkscape:pageopacity="1"
     inkscape:pagecheckerboard="0"
     inkscape:deskcolor="#d1d1d1"
     inkscape:document-units="mm"
     showgrid="false"
     inkscape:zoom="0.5385886"
     inkscape:cx="422.40033"
     inkscape:cy="553.29801"
     inkscape:window-width="1920"
     inkscape:window-height="1009"
     inkscape:window-x="-8"
     inkscape:window-y="-8"
     inkscape:window-maximized="1"
     inkscape:current-layer="layer1" /><defs
     id="defs3979"><marker
       id="DistanceX"
       orient="auto"
       refX="0.0"
       refY="0.0"
       style="overflow:visible"><path
         d="M 3,-3 L -3,3 M 0,-5 L  0,5"
         style="stroke:#000000; stroke-width:0.5"
         id="path4468" /></marker><pattern
       id="Hatch"
       patternUnits="userSpaceOnUse"
       width="8"
       height="8"
       x="0"
       y="0"><path
         d="M8 4 l-4,4"
         stroke="#000000"
         stroke-width="0.25"
         linecap="square"
         id="path4471" /><path
         d="M6 2 l-4,4"
         stroke="#000000"
         stroke-width="0.25"
         linecap="square"
         id="path4473" /><path
         d="M4 0 l-4,4"
         stroke="#000000"
         stroke-width="0.25"
         linecap="square"
         id="path4475" /></pattern><symbol
       id="*MODEL_SPACE" /><symbol
       id="*PAPER_SPACE" /><marker
       id="DistanceX-1"
       orient="auto"
       refX="0.0"
       refY="0.0"
       style="overflow:visible"><path
         d="M 3,-3 L -3,3 M 0,-5 L  0,5"
         style="stroke:#000000; stroke-width:0.5"
         id="path389" /></marker><pattern
       id="Hatch-6"
       patternUnits="userSpaceOnUse"
       width="8"
       height="8"
       x="0"
       y="0"><path
         d="M8 4 l-4,4"
         stroke="#000000"
         stroke-width="0.25"
         linecap="square"
         id="path392" /><path
         d="M6 2 l-4,4"
         stroke="#000000"
         stroke-width="0.25"
         linecap="square"
         id="path394" /><path
         d="M4 0 l-4,4"
         stroke="#000000"
         stroke-width="0.25"
         linecap="square"
         id="path396" /></pattern><symbol
       id="*MODEL_SPACE-2" /><symbol
       id="*PAPER_SPACE-0" /></defs><g
     inkscape:label="Layer 1"
     inkscape:groupmode="layer"
     id="layer1"><g
       id="g566"
       transform="translate(-63.915789,-27.442105)"><path
         d="m 131.48421,69.82105 a 30.4,30.4 0 0 0 -60.8,0 30.4,30.4 0 0 0 60.8,0 z"
         style="fill:#cccccc;stroke:#000000;stroke-width:0.264583"
         id="path429" /><path
         d="m 101.08421,40.121042 a 7.6500021,29.700008 0 0 0 0,59.400016 7.6500021,29.700008 0 0 0 0,-59.400016 z"
         style="fill:#ffffff;stroke:#000000;stroke-width:0.264583"
         id="path433" /></g><g
       id="g572"
       transform="translate(3.8210531,-25.705263)"><path
         d="m 131.48421,69.82105 a 30.4,30.4 0 0 0 -60.8,0 30.4,30.4 0 0 0 60.8,0 z"
         style="fill:#cccccc;stroke:#000000;stroke-width:0.264583"
         id="path568" /><path
         d="m 101.08421,40.121042 a 7.6500021,29.700008 0 0 0 0,59.400016 7.6500021,29.700008 0 0 0 0,-59.400016 z"
         style="fill:#ffffff;stroke:#000000;stroke-width:0.264583"
         id="path570" /></g><g
       id="g584"
       transform="translate(72.947369,-25.705263)"><path
         d="m 131.48421,69.82105 a 30.4,30.4 0 0 0 -60.8,0 30.4,30.4 0 0 0 60.8,0 z"
         style="fill:#cccccc;stroke:#000000;stroke-width:0.264583"
         id="path580" /><path
         d="m 101.08421,40.121042 a 7.6500021,29.700008 0 0 0 0,59.400016 7.6500021,29.700008 0 0 0 0,-59.400016 z"
         style="fill:#ffffff;stroke:#000000;stroke-width:0.264583"
         id="path582" /></g><g
       id="g590"
       transform="translate(-67.354561,39.36832)"><path
         d="m 131.48421,69.82105 a 30.4,30.4 0 0 0 -60.8,0 30.4,30.4 0 0 0 60.8,0 z"
         style="fill:#cccccc;stroke:#000000;stroke-width:0.264583"
         id="path586" /><path
         d="m 101.08421,40.121042 a 7.6500021,29.700008 0 0 0 0,59.400016 7.6500021,29.700008 0 0 0 0,-59.400016 z"
         style="fill:#ffffff;stroke:#000000;stroke-width:0.264583"
         id="path588" /></g><g
       id="g596"
       transform="translate(0.38228121,41.105162)"><path
         d="m 131.48421,69.82105 a 30.4,30.4 0 0 0 -60.8,0 30.4,30.4 0 0 0 60.8,0 z"
         style="fill:#cccccc;stroke:#000000;stroke-width:0.264583"
         id="path592" /><path
         d="m 101.08421,40.121042 a 7.6500021,29.700008 0 0 0 0,59.400016 7.6500021,29.700008 0 0 0 0,-59.400016 z"
         style="fill:#ffffff;stroke:#000000;stroke-width:0.264583"
         id="path594" /></g><g
       id="g602"
       transform="translate(69.508597,41.105162)"><path
         d="m 131.48421,69.82105 a 30.4,30.4 0 0 0 -60.8,0 30.4,30.4 0 0 0 60.8,0 z"
         style="fill:#cccccc;stroke:#000000;stroke-width:0.264583"
         id="path598" /><path
         d="m 101.08421,40.121042 a 7.6500021,29.700008 0 0 0 0,59.400016 7.6500021,29.700008 0 0 0 0,-59.400016 z"
         style="fill:#ffffff;stroke:#000000;stroke-width:0.264583"
         id="path600" /></g><g
       id="g608"
       transform="translate(-63.424536,107.16125)"><path
         d="m 131.48421,69.82105 a 30.4,30.4 0 0 0 -60.8,0 30.4,30.4 0 0 0 60.8,0 z"
         style="fill:#cccccc;stroke:#000000;stroke-width:0.264583"
         id="path604" /><path
         d="m 101.08421,40.121042 a 7.6500021,29.700008 0 0 0 0,59.400016 7.6500021,29.700008 0 0 0 0,-59.400016 z"
         style="fill:#ffffff;stroke:#000000;stroke-width:0.264583"
         id="path606" /></g><g
       id="g614"
       transform="translate(4.3123062,108.89809)"><path
         d="m 131.48421,69.82105 a 30.4,30.4 0 0 0 -60.8,0 30.4,30.4 0 0 0 60.8,0 z"
         style="fill:#cccccc;stroke:#000000;stroke-width:0.264583"
         id="path610" /><path
         d="m 101.08421,40.121042 a 7.6500021,29.700008 0 0 0 0,59.400016 7.6500021,29.700008 0 0 0 0,-59.400016 z"
         style="fill:#ffffff;stroke:#000000;stroke-width:0.264583"
         id="path612" /></g><g
       id="g620"
       transform="translate(73.438622,108.89809)"><path
         d="m 131.48421,69.82105 a 30.4,30.4 0 0 0 -60.8,0 30.4,30.4 0 0 0 60.8,0 z"
         style="fill:#cccccc;stroke:#000000;stroke-width:0.264583"
         id="path616" /><path
         d="m 101.08421,40.121042 a 7.6500021,29.700008 0 0 0 0,59.400016 7.6500021,29.700008 0 0 0 0,-59.400016 z"
         style="fill:#ffffff;stroke:#000000;stroke-width:0.264583"
         id="path618" /></g><g
       id="g626"
       transform="translate(-66.863308,173.97168)"><path
         d="m 131.48421,69.82105 a 30.4,30.4 0 0 0 -60.8,0 30.4,30.4 0 0 0 60.8,0 z"
         style="fill:#cccccc;stroke:#000000;stroke-width:0.264583"
         id="path622" /><path
         d="m 101.08421,40.121042 a 7.6500021,29.700008 0 0 0 0,59.400016 7.6500021,29.700008 0 0 0 0,-59.400016 z"
         style="fill:#ffffff;stroke:#000000;stroke-width:0.264583"
         id="path624" /></g><g
       id="g632"
       transform="translate(0.87353434,175.70852)"><path
         d="m 131.48421,69.82105 a 30.4,30.4 0 0 0 -60.8,0 30.4,30.4 0 0 0 60.8,0 z"
         style="fill:#cccccc;stroke:#000000;stroke-width:0.264583"
         id="path628" /><path
         d="m 101.08421,40.121042 a 7.6500021,29.700008 0 0 0 0,59.400016 7.6500021,29.700008 0 0 0 0,-59.400016 z"
         style="fill:#ffffff;stroke:#000000;stroke-width:0.264583"
         id="path630" /></g><g
       id="g638"
       transform="translate(69.99985,175.70852)"><path
         d="m 131.48421,69.82105 a 30.4,30.4 0 0 0 -60.8,0 30.4,30.4 0 0 0 60.8,0 z"
         style="fill:#cccccc;stroke:#000000;stroke-width:0.264583"
         id="path634" /><path
         d="m 101.08421,40.121042 a 7.6500021,29.700008 0 0 0 0,59.400016 7.6500021,29.700008 0 0 0 0,-59.400016 z"
         style="fill:#ffffff;stroke:#000000;stroke-width:0.264583"
         id="path636" /></g></g></svg>
