%TF.GenerationSoftware,KiCad,Pcbnew,8.0.0*%
%TF.CreationDate,2024-06-05T20:58:04+05:30*%
%TF.ProjectId,version1,76657273-696f-46e3-912e-6b696361645f,rev?*%
%TF.SameCoordinates,Original*%
%TF.FileFunction,Copper,L1,Top*%
%TF.FilePolarity,Positive*%
%FSLAX46Y46*%
G04 Gerber Fmt 4.6, Leading zero omitted, Abs format (unit mm)*
G04 Created by KiCad (PCBNEW 8.0.0) date 2024-06-05 20:58:04*
%MOMM*%
%LPD*%
G01*
G04 APERTURE LIST*
G04 Aperture macros list*
%AMRoundRect*
0 Rectangle with rounded corners*
0 $1 Rounding radius*
0 $2 $3 $4 $5 $6 $7 $8 $9 X,Y pos of 4 corners*
0 Add a 4 corners polygon primitive as box body*
4,1,4,$2,$3,$4,$5,$6,$7,$8,$9,$2,$3,0*
0 Add four circle primitives for the rounded corners*
1,1,$1+$1,$2,$3*
1,1,$1+$1,$4,$5*
1,1,$1+$1,$6,$7*
1,1,$1+$1,$8,$9*
0 Add four rect primitives between the rounded corners*
20,1,$1+$1,$2,$3,$4,$5,0*
20,1,$1+$1,$4,$5,$6,$7,0*
20,1,$1+$1,$6,$7,$8,$9,0*
20,1,$1+$1,$8,$9,$2,$3,0*%
G04 Aperture macros list end*
%TA.AperFunction,ComponentPad*%
%ADD10R,1.700000X1.700000*%
%TD*%
%TA.AperFunction,ComponentPad*%
%ADD11O,1.700000X1.700000*%
%TD*%
%TA.AperFunction,ComponentPad*%
%ADD12C,1.500000*%
%TD*%
%TA.AperFunction,SMDPad,CuDef*%
%ADD13RoundRect,0.250000X-0.450000X0.350000X-0.450000X-0.350000X0.450000X-0.350000X0.450000X0.350000X0*%
%TD*%
%TA.AperFunction,SMDPad,CuDef*%
%ADD14RoundRect,0.250000X0.450000X-0.350000X0.450000X0.350000X-0.450000X0.350000X-0.450000X-0.350000X0*%
%TD*%
%TA.AperFunction,ComponentPad*%
%ADD15C,1.524000*%
%TD*%
%TA.AperFunction,SMDPad,CuDef*%
%ADD16R,1.549400X0.533400*%
%TD*%
%TA.AperFunction,SMDPad,CuDef*%
%ADD17RoundRect,0.250000X-0.337500X-0.475000X0.337500X-0.475000X0.337500X0.475000X-0.337500X0.475000X0*%
%TD*%
%TA.AperFunction,SMDPad,CuDef*%
%ADD18RoundRect,0.250000X0.350000X0.450000X-0.350000X0.450000X-0.350000X-0.450000X0.350000X-0.450000X0*%
%TD*%
%TA.AperFunction,SMDPad,CuDef*%
%ADD19R,1.400000X1.000000*%
%TD*%
%TA.AperFunction,ViaPad*%
%ADD20C,0.300000*%
%TD*%
%TA.AperFunction,Conductor*%
%ADD21C,0.150000*%
%TD*%
%TA.AperFunction,Conductor*%
%ADD22C,0.200000*%
%TD*%
G04 APERTURE END LIST*
D10*
%TO.P,J2,1,MISO*%
%TO.N,/PB1*%
X97619200Y-108000000D03*
D11*
%TO.P,J2,2,VCC*%
%TO.N,/V+*%
X97619200Y-105460000D03*
%TO.P,J2,3,SCK*%
%TO.N,/PB2*%
X100159200Y-108000000D03*
%TO.P,J2,4,MOSI*%
%TO.N,/PB0*%
X100159200Y-105460000D03*
%TO.P,J2,5,~{RST}*%
%TO.N,/Reset*%
X102699200Y-108000000D03*
%TO.P,J2,6,GND*%
%TO.N,GND*%
X102699200Y-105460000D03*
%TD*%
D12*
%TO.P,L2,1*%
%TO.N,/V+*%
X98333100Y-114967900D03*
%TO.P,L2,2*%
%TO.N,/PB4*%
X101733100Y-114967900D03*
%TD*%
D13*
%TO.P,R8,1*%
%TO.N,/PB3*%
X99995100Y-90500000D03*
%TO.P,R8,2*%
%TO.N,GND*%
X99995100Y-92500000D03*
%TD*%
D12*
%TO.P,L3,1*%
%TO.N,/V+*%
X98316400Y-138500000D03*
%TO.P,L3,2*%
%TO.N,/PB2*%
X101716400Y-138500000D03*
%TD*%
D14*
%TO.P,R9,1*%
%TO.N,/PB4*%
X103700000Y-115900000D03*
%TO.P,R9,2*%
%TO.N,GND*%
X103700000Y-113900000D03*
%TD*%
D15*
%TO.P,BT1,2,-*%
%TO.N,GND*%
X98706900Y-135000000D03*
%TO.P,BT1,1,+*%
%TO.N,Net-(BT1-+)*%
X101246900Y-135000000D03*
%TD*%
D16*
%TO.P,U2,1,~{RESET}/PB5*%
%TO.N,/Reset*%
X103759800Y-129000000D03*
%TO.P,U2,2,PB3*%
%TO.N,/PB3*%
X103759800Y-127730000D03*
%TO.P,U2,3,PB4*%
%TO.N,/PB4*%
X103759800Y-126460000D03*
%TO.P,U2,4,GND*%
%TO.N,GND*%
X103759800Y-125190000D03*
%TO.P,U2,5,PB0*%
%TO.N,/PB0*%
X96343000Y-125190000D03*
%TO.P,U2,6,PB1*%
%TO.N,/PB1*%
X96343000Y-126460000D03*
%TO.P,U2,7,PB2*%
%TO.N,/PB2*%
X96343000Y-127730000D03*
%TO.P,U2,8,VCC*%
%TO.N,/V+*%
X96343000Y-129000000D03*
%TD*%
D17*
%TO.P,C1,1*%
%TO.N,/V+*%
X98962500Y-131500000D03*
%TO.P,C1,2*%
%TO.N,GND*%
X101037500Y-131500000D03*
%TD*%
D18*
%TO.P,R7,1*%
%TO.N,GND*%
X103476900Y-119424800D03*
%TO.P,R7,2*%
%TO.N,/PB1*%
X101476900Y-119424800D03*
%TD*%
D19*
%TO.P,Q1,1*%
%TO.N,/PB1*%
X98435000Y-121146400D03*
%TO.P,Q1,2*%
%TO.N,GND*%
X98435000Y-119246400D03*
%TO.P,Q1,3*%
%TO.N,Net-(M1--)*%
X96235000Y-120196400D03*
%TD*%
D12*
%TO.P,L1,1*%
%TO.N,/V+*%
X98295100Y-91500000D03*
%TO.P,L1,2*%
%TO.N,/PB3*%
X101695100Y-91500000D03*
%TD*%
D10*
%TO.P,J3,1,Pin_1*%
%TO.N,GND*%
X98730000Y-95500000D03*
D11*
%TO.P,J3,2,Pin_2*%
%TO.N,In+*%
X101270000Y-95500000D03*
%TD*%
D14*
%TO.P,R10,1*%
%TO.N,/PB2*%
X99976900Y-139384800D03*
%TO.P,R10,2*%
%TO.N,GND*%
X99976900Y-137384800D03*
%TD*%
D15*
%TO.P,SW2,1,A*%
%TO.N,unconnected-(SW2A-A-Pad1)*%
X97460000Y-100477600D03*
%TO.P,SW2,2,B*%
%TO.N,Net-(BT1-+)*%
X100000000Y-100477600D03*
%TO.P,SW2,3,C*%
%TO.N,/V+*%
X102540000Y-100477600D03*
%TD*%
%TO.P,M1,1,+*%
%TO.N,/V+*%
X98810000Y-117200000D03*
%TO.P,M1,2,-*%
%TO.N,Net-(M1--)*%
X101350000Y-117200000D03*
%TD*%
%TO.P,M2,1,+*%
%TO.N,/V+*%
X101300000Y-112800000D03*
%TO.P,M2,2,-*%
%TO.N,Net-(M2--)*%
X98760000Y-112800000D03*
%TD*%
D20*
%TO.N,Net-(M1--)*%
X97248500Y-121401600D03*
%TO.N,/PB3*%
X104466500Y-127033000D03*
%TO.N,/Reset*%
X104309000Y-128423300D03*
%TO.N,/PB2*%
X98881100Y-129610100D03*
X97773800Y-125063900D03*
X96465400Y-118333800D03*
X98192700Y-104379500D03*
%TO.N,/PB1*%
X100222000Y-111679500D03*
%TO.N,In+*%
X95454600Y-121847600D03*
X100192700Y-128692300D03*
X100692300Y-126903200D03*
%TO.N,/PB0*%
X100708600Y-115942700D03*
X97344400Y-124095600D03*
%TO.N,Net-(D2-K)*%
X99310300Y-122639400D03*
X98953100Y-130216600D03*
%TO.N,Net-(D1-A)*%
X99088200Y-113900100D03*
X99553400Y-114774800D03*
X103444200Y-117893300D03*
X103731700Y-121474400D03*
%TO.N,GND*%
X102669200Y-120843900D03*
X99219100Y-121990400D03*
X101037500Y-127894200D03*
%TD*%
D21*
%TO.N,/PB1*%
X95341600Y-126460000D02*
X95341600Y-124158400D01*
X95341600Y-124158400D02*
X98353600Y-121146400D01*
X98353600Y-121146400D02*
X98435000Y-121146400D01*
X96343000Y-126460000D02*
X95341600Y-126460000D01*
D22*
%TO.N,/V+*%
X97097900Y-129000000D02*
X96343000Y-129000000D01*
X98941700Y-130843800D02*
X97097900Y-129000000D01*
D21*
%TO.N,Net-(M1--)*%
X96235000Y-120196400D02*
X96235000Y-120923100D01*
X96770000Y-120923100D02*
X97248500Y-121401600D01*
X96235000Y-120923100D02*
X96770000Y-120923100D01*
%TO.N,/PB4*%
X103869600Y-126460000D02*
X103759800Y-126460000D01*
X104802100Y-125527500D02*
X103869600Y-126460000D01*
X104802100Y-117002100D02*
X104802100Y-125527500D01*
X103700000Y-115900000D02*
X104802100Y-117002100D01*
X102377900Y-115612700D02*
X101733100Y-114967900D01*
X102377900Y-120063900D02*
X102377900Y-115612700D01*
X102292000Y-120149800D02*
X102377900Y-120063900D01*
X102292000Y-125993600D02*
X102292000Y-120149800D01*
X102758400Y-126460000D02*
X102292000Y-125993600D01*
X103759800Y-126460000D02*
X102758400Y-126460000D01*
%TO.N,/PB3*%
X103769500Y-127730000D02*
X104466500Y-127033000D01*
X103759800Y-127730000D02*
X103769500Y-127730000D01*
X100995100Y-91500000D02*
X99995100Y-90500000D01*
X101695100Y-91500000D02*
X100995100Y-91500000D01*
%TO.N,/Reset*%
X103759800Y-128972500D02*
X104309000Y-128423300D01*
X103759800Y-129000000D02*
X103759800Y-128972500D01*
%TO.N,/PB2*%
X100831600Y-139384800D02*
X101716400Y-138500000D01*
X99976900Y-139384800D02*
X100831600Y-139384800D01*
X96343000Y-127730000D02*
X97344400Y-127730000D01*
X97773800Y-127300600D02*
X97773800Y-125063900D01*
X97344400Y-127730000D02*
X97773800Y-127300600D01*
X98881100Y-129266700D02*
X97344400Y-127730000D01*
X98881100Y-129610100D02*
X98881100Y-129266700D01*
X97133800Y-104379500D02*
X98192700Y-104379500D01*
X96465400Y-105047900D02*
X97133800Y-104379500D01*
X96465400Y-118333800D02*
X96465400Y-105047900D01*
%TO.N,/PB1*%
X97619200Y-108000000D02*
X97619200Y-109076700D01*
X98435000Y-121146400D02*
X98435000Y-120419700D01*
X97355800Y-109340100D02*
X97619200Y-109076700D01*
X97355800Y-119703800D02*
X97355800Y-109340100D01*
X98071700Y-120419700D02*
X97355800Y-119703800D01*
X98435000Y-120419700D02*
X98071700Y-120419700D01*
X100222000Y-113221200D02*
X100222000Y-111679500D01*
X100327100Y-113326300D02*
X100222000Y-113221200D01*
X100327100Y-118275000D02*
X100327100Y-113326300D01*
X101476900Y-119424800D02*
X100327100Y-118275000D01*
D22*
%TO.N,In+*%
X101270000Y-95500000D02*
X101270000Y-96601700D01*
X95252000Y-121645000D02*
X95454600Y-121847600D01*
X95252000Y-104730300D02*
X95252000Y-121645000D01*
X98730000Y-101252300D02*
X95252000Y-104730300D01*
X98730000Y-99141700D02*
X98730000Y-101252300D01*
X101270000Y-96601700D02*
X98730000Y-99141700D01*
X100192700Y-127402800D02*
X100692300Y-126903200D01*
X100192700Y-128692300D02*
X100192700Y-127402800D01*
D21*
%TO.N,/PB0*%
X100270700Y-106536700D02*
X100159200Y-106536700D01*
X101429200Y-107695200D02*
X100270700Y-106536700D01*
X101429200Y-109994300D02*
X101429200Y-107695200D01*
X102324000Y-110889100D02*
X101429200Y-109994300D01*
X102324000Y-113195200D02*
X102324000Y-110889100D01*
X101720900Y-113798300D02*
X102324000Y-113195200D01*
X101499300Y-113798300D02*
X101720900Y-113798300D01*
X100708600Y-114589000D02*
X101499300Y-113798300D01*
X100708600Y-115942700D02*
X100708600Y-114589000D01*
X100159200Y-105460000D02*
X100159200Y-106536700D01*
X96343000Y-125190000D02*
X97344400Y-125190000D01*
X97344400Y-125190000D02*
X97344400Y-124095600D01*
%TO.N,Net-(D2-K)*%
X99310300Y-129859400D02*
X99310300Y-122639400D01*
X98953100Y-130216600D02*
X99310300Y-129859400D01*
%TO.N,Net-(D1-A)*%
X104309500Y-118758600D02*
X103444200Y-117893300D01*
X104309500Y-120896600D02*
X104309500Y-118758600D01*
X103731700Y-121474400D02*
X104309500Y-120896600D01*
X99088200Y-114309600D02*
X99553400Y-114774800D01*
X99088200Y-113900100D02*
X99088200Y-114309600D01*
D22*
%TO.N,/V+*%
X97638600Y-137822200D02*
X98316400Y-138500000D01*
X97638600Y-132823900D02*
X97638600Y-137822200D01*
X98962500Y-131500000D02*
X97638600Y-132823900D01*
X99752400Y-130033100D02*
X98941700Y-130843800D01*
X99752400Y-120113600D02*
X99752400Y-130033100D01*
X99411000Y-119772200D02*
X99752400Y-120113600D01*
X99411000Y-117801000D02*
X99411000Y-119772200D01*
X98810000Y-117200000D02*
X99411000Y-117801000D01*
X98941700Y-131479200D02*
X98962500Y-131500000D01*
X98941700Y-130843800D02*
X98941700Y-131479200D01*
%TO.N,GND*%
X99995100Y-93133200D02*
X99995100Y-92500000D01*
X98730000Y-94398300D02*
X99995100Y-93133200D01*
X98730000Y-95500000D02*
X98730000Y-94398300D01*
X103759800Y-125190000D02*
X102733400Y-125190000D01*
X102699200Y-105460000D02*
X102699200Y-106561700D01*
X103809700Y-113790300D02*
X103700000Y-113900000D01*
X103809700Y-107443900D02*
X103809700Y-113790300D01*
X102927500Y-106561700D02*
X103809700Y-107443900D01*
X102699200Y-106561700D02*
X102927500Y-106561700D01*
X98435000Y-119246400D02*
X98435000Y-119998100D01*
X99400700Y-121808800D02*
X99219100Y-121990400D01*
X99400700Y-120454800D02*
X99400700Y-121808800D01*
X98944000Y-119998100D02*
X99400700Y-120454800D01*
X98435000Y-119998100D02*
X98944000Y-119998100D01*
X101037500Y-127894200D02*
X101037500Y-131500000D01*
X101037500Y-132669400D02*
X98706900Y-135000000D01*
X101037500Y-131500000D02*
X101037500Y-132669400D01*
X99976900Y-136270000D02*
X99976900Y-137384800D01*
X98706900Y-135000000D02*
X99976900Y-136270000D01*
X102743800Y-114856200D02*
X103700000Y-113900000D01*
X102743800Y-118691700D02*
X102743800Y-114856200D01*
X103476900Y-119424800D02*
X102743800Y-118691700D01*
X102733400Y-120843900D02*
X102669200Y-120843900D01*
X102733400Y-125190000D02*
X102733400Y-120843900D01*
X102733400Y-120168300D02*
X103476900Y-119424800D01*
X102733400Y-120843900D02*
X102733400Y-120168300D01*
%TO.N,Net-(BT1-+)*%
X101919200Y-134327700D02*
X101246900Y-135000000D01*
X101919200Y-121645200D02*
X101919200Y-134327700D01*
X99994300Y-119720300D02*
X101919200Y-121645200D01*
X99994300Y-113772400D02*
X99994300Y-119720300D01*
X99800100Y-113578200D02*
X99994300Y-113772400D01*
X99800100Y-109926600D02*
X99800100Y-113578200D01*
X99040600Y-109167100D02*
X99800100Y-109926600D01*
X99040600Y-101439000D02*
X99040600Y-109167100D01*
X100000000Y-100479600D02*
X99040600Y-101439000D01*
X100000000Y-100477600D02*
X100000000Y-100479600D01*
%TD*%
%TA.AperFunction,NonConductor*%
G36*
X99374748Y-106081612D02*
G01*
X99377977Y-106085174D01*
X99448317Y-106170883D01*
X99535627Y-106242537D01*
X99600655Y-106295905D01*
X99600658Y-106295907D01*
X99600662Y-106295910D01*
X99774473Y-106388814D01*
X99898925Y-106426566D01*
X99927914Y-106450356D01*
X99933700Y-106473455D01*
X99933700Y-106581555D01*
X99933700Y-106581557D01*
X99933701Y-106581558D01*
X99968030Y-106664436D01*
X99968032Y-106664439D01*
X100031461Y-106727868D01*
X100031463Y-106727869D01*
X100031464Y-106727870D01*
X100114345Y-106762200D01*
X100156999Y-106762200D01*
X100191647Y-106776552D01*
X100340292Y-106925197D01*
X100354644Y-106959845D01*
X100340292Y-106994493D01*
X100305644Y-107008845D01*
X100300841Y-107008609D01*
X100159200Y-106994659D01*
X99963067Y-107013976D01*
X99963066Y-107013976D01*
X99774473Y-107071185D01*
X99600658Y-107164092D01*
X99600655Y-107164094D01*
X99448317Y-107289117D01*
X99377977Y-107374825D01*
X99344902Y-107392503D01*
X99309014Y-107381616D01*
X99291336Y-107348541D01*
X99291100Y-107343739D01*
X99291100Y-106116260D01*
X99305452Y-106081612D01*
X99340100Y-106067260D01*
X99374748Y-106081612D01*
G37*
%TD.AperFunction*%
%TA.AperFunction,NonConductor*%
G36*
X101197914Y-108310594D02*
G01*
X101203700Y-108333692D01*
X101203700Y-109945488D01*
X101203699Y-109945502D01*
X101203699Y-110039156D01*
X101215853Y-110068496D01*
X101238030Y-110122036D01*
X101238031Y-110122037D01*
X101238031Y-110122038D01*
X101308355Y-110192361D01*
X101308357Y-110192362D01*
X102084148Y-110968153D01*
X102098500Y-111002801D01*
X102098500Y-112195465D01*
X102084148Y-112230113D01*
X102049500Y-112244465D01*
X102014852Y-112230113D01*
X102013086Y-112228252D01*
X101913949Y-112118148D01*
X101913946Y-112118146D01*
X101758764Y-112005400D01*
X101758763Y-112005399D01*
X101583531Y-111927381D01*
X101583528Y-111927380D01*
X101583524Y-111927379D01*
X101395908Y-111887500D01*
X101204092Y-111887500D01*
X101016475Y-111927379D01*
X101016466Y-111927382D01*
X100841235Y-112005400D01*
X100686053Y-112118146D01*
X100686050Y-112118148D01*
X100557709Y-112260688D01*
X100557703Y-112260696D01*
X100538935Y-112293204D01*
X100509182Y-112316034D01*
X100472000Y-112311139D01*
X100449170Y-112281386D01*
X100447500Y-112268704D01*
X100447500Y-111903052D01*
X100454065Y-111878552D01*
X100455746Y-111875638D01*
X100455748Y-111875638D01*
X100508734Y-111783863D01*
X100527136Y-111679500D01*
X100508734Y-111575137D01*
X100508733Y-111575135D01*
X100508733Y-111575134D01*
X100455749Y-111483363D01*
X100455747Y-111483360D01*
X100374568Y-111415243D01*
X100274986Y-111379000D01*
X100169014Y-111379000D01*
X100116358Y-111398164D01*
X100078891Y-111396528D01*
X100053555Y-111368877D01*
X100050600Y-111352119D01*
X100050600Y-109876774D01*
X100050599Y-109876770D01*
X100012464Y-109784703D01*
X100012462Y-109784701D01*
X100012462Y-109784700D01*
X99941997Y-109714236D01*
X99305452Y-109077691D01*
X99291100Y-109043043D01*
X99291100Y-108656260D01*
X99305452Y-108621612D01*
X99340100Y-108607260D01*
X99374748Y-108621612D01*
X99377977Y-108625174D01*
X99448317Y-108710883D01*
X99535627Y-108782537D01*
X99600655Y-108835905D01*
X99600658Y-108835907D01*
X99600662Y-108835910D01*
X99774473Y-108928814D01*
X99963068Y-108986024D01*
X100159200Y-109005341D01*
X100355332Y-108986024D01*
X100543927Y-108928814D01*
X100717738Y-108835910D01*
X100870083Y-108710883D01*
X100995110Y-108558538D01*
X101088014Y-108384727D01*
X101107810Y-108319467D01*
X101131602Y-108290478D01*
X101168924Y-108286802D01*
X101197914Y-108310594D01*
G37*
%TD.AperFunction*%
%TA.AperFunction,NonConductor*%
G36*
X100636248Y-113426639D02*
G01*
X100638014Y-113428500D01*
X100686050Y-113481851D01*
X100686053Y-113481853D01*
X100686055Y-113481855D01*
X100841237Y-113594601D01*
X101016469Y-113672619D01*
X101156903Y-113702469D01*
X101167034Y-113704623D01*
X101197941Y-113725865D01*
X101204775Y-113762740D01*
X101191494Y-113787200D01*
X100636248Y-114342446D01*
X100601600Y-114356798D01*
X100566952Y-114342446D01*
X100552600Y-114307798D01*
X100552600Y-113461287D01*
X100566952Y-113426639D01*
X100601600Y-113412287D01*
X100636248Y-113426639D01*
G37*
%TD.AperFunction*%
%TA.AperFunction,NonConductor*%
G36*
X99533387Y-113378005D02*
G01*
X99549533Y-113411854D01*
X99549600Y-113414419D01*
X99549600Y-113528372D01*
X99549600Y-113628028D01*
X99587736Y-113720097D01*
X99587737Y-113720098D01*
X99587737Y-113720099D01*
X99729448Y-113861809D01*
X99743800Y-113896457D01*
X99743800Y-114454334D01*
X99729448Y-114488982D01*
X99694800Y-114503334D01*
X99678042Y-114500379D01*
X99606386Y-114474300D01*
X99592101Y-114474300D01*
X99557453Y-114459948D01*
X99328052Y-114230547D01*
X99313700Y-114195899D01*
X99313700Y-114123652D01*
X99320265Y-114099152D01*
X99321946Y-114096238D01*
X99321948Y-114096238D01*
X99374934Y-114004463D01*
X99393336Y-113900100D01*
X99374934Y-113795737D01*
X99374933Y-113795735D01*
X99374933Y-113795734D01*
X99321949Y-113703963D01*
X99321947Y-113703960D01*
X99252257Y-113645484D01*
X99234940Y-113612219D01*
X99246218Y-113576451D01*
X99254945Y-113568312D01*
X99373945Y-113481855D01*
X99373949Y-113481851D01*
X99464186Y-113381632D01*
X99498035Y-113365486D01*
X99533387Y-113378005D01*
G37*
%TD.AperFunction*%
%TA.AperFunction,NonConductor*%
G36*
X101738348Y-108299044D02*
G01*
X101750590Y-108319468D01*
X101770385Y-108384726D01*
X101863292Y-108558541D01*
X101863294Y-108558544D01*
X101903275Y-108607260D01*
X101988317Y-108710883D01*
X102075627Y-108782537D01*
X102140655Y-108835905D01*
X102140658Y-108835907D01*
X102140662Y-108835910D01*
X102314473Y-108928814D01*
X102503068Y-108986024D01*
X102699200Y-109005341D01*
X102895332Y-108986024D01*
X103083927Y-108928814D01*
X103257738Y-108835910D01*
X103410083Y-108710883D01*
X103472323Y-108635044D01*
X103505397Y-108617365D01*
X103541285Y-108628252D01*
X103558964Y-108661326D01*
X103559200Y-108666129D01*
X103559200Y-113100500D01*
X103544848Y-113135148D01*
X103510200Y-113149500D01*
X103218482Y-113149500D01*
X103124696Y-113164353D01*
X103011664Y-113221945D01*
X103011657Y-113221950D01*
X102921950Y-113311657D01*
X102921945Y-113311664D01*
X102864355Y-113424690D01*
X102864355Y-113424692D01*
X102864354Y-113424694D01*
X102864354Y-113424696D01*
X102855301Y-113481855D01*
X102849500Y-113518482D01*
X102849500Y-114281516D01*
X102861280Y-114355894D01*
X102852524Y-114392361D01*
X102847531Y-114398207D01*
X102636854Y-114608884D01*
X102602206Y-114623236D01*
X102567558Y-114608884D01*
X102559771Y-114598736D01*
X102504691Y-114503334D01*
X102465633Y-114435684D01*
X102435899Y-114402661D01*
X102338975Y-114295015D01*
X102338972Y-114295013D01*
X102320397Y-114281517D01*
X102185830Y-114183749D01*
X102012903Y-114106756D01*
X102012900Y-114106755D01*
X102012896Y-114106754D01*
X101868714Y-114076107D01*
X101837807Y-114054865D01*
X101830973Y-114017990D01*
X101846879Y-113994538D01*
X101845224Y-113992883D01*
X101882091Y-113956014D01*
X101912070Y-113926036D01*
X101912070Y-113926035D01*
X101918959Y-113919146D01*
X101918961Y-113919143D01*
X102444843Y-113393261D01*
X102444846Y-113393259D01*
X102451735Y-113386370D01*
X102451736Y-113386370D01*
X102515170Y-113322936D01*
X102549500Y-113240055D01*
X102549500Y-110844245D01*
X102515170Y-110761364D01*
X102515169Y-110761363D01*
X102515168Y-110761361D01*
X102451736Y-110697930D01*
X101669052Y-109915246D01*
X101654700Y-109880598D01*
X101654700Y-108333692D01*
X101669052Y-108299044D01*
X101703700Y-108284692D01*
X101738348Y-108299044D01*
G37*
%TD.AperFunction*%
%TA.AperFunction,NonConductor*%
G36*
X101017748Y-115519297D02*
G01*
X101019501Y-115521144D01*
X101049035Y-115553945D01*
X101127224Y-115640784D01*
X101127227Y-115640786D01*
X101127229Y-115640788D01*
X101280370Y-115752051D01*
X101453297Y-115829044D01*
X101638454Y-115868400D01*
X101827746Y-115868400D01*
X102012903Y-115829044D01*
X102083470Y-115797624D01*
X102120959Y-115796642D01*
X102148163Y-115822457D01*
X102152400Y-115842388D01*
X102152400Y-116599797D01*
X102138048Y-116634445D01*
X102103400Y-116648797D01*
X102068752Y-116634445D01*
X102066986Y-116632584D01*
X101963949Y-116518148D01*
X101963946Y-116518146D01*
X101839611Y-116427811D01*
X101808763Y-116405399D01*
X101633531Y-116327381D01*
X101633528Y-116327380D01*
X101633524Y-116327379D01*
X101445908Y-116287500D01*
X101254092Y-116287500D01*
X101066475Y-116327379D01*
X101066466Y-116327382D01*
X100891235Y-116405400D01*
X100736053Y-116518146D01*
X100736050Y-116518148D01*
X100638014Y-116627031D01*
X100604165Y-116643177D01*
X100568813Y-116630658D01*
X100552667Y-116596809D01*
X100552600Y-116594244D01*
X100552600Y-116275685D01*
X100566952Y-116241037D01*
X100601600Y-116226685D01*
X100618355Y-116229639D01*
X100655614Y-116243200D01*
X100655615Y-116243200D01*
X100761586Y-116243200D01*
X100861168Y-116206956D01*
X100942347Y-116138839D01*
X100942349Y-116138836D01*
X100995333Y-116047065D01*
X100995333Y-116047064D01*
X100995334Y-116047063D01*
X101013736Y-115942700D01*
X100995334Y-115838337D01*
X100995333Y-115838335D01*
X100995333Y-115838334D01*
X100940665Y-115743646D01*
X100934100Y-115719146D01*
X100934100Y-115553945D01*
X100948452Y-115519297D01*
X100983100Y-115504945D01*
X101017748Y-115519297D01*
G37*
%TD.AperFunction*%
%TA.AperFunction,NonConductor*%
G36*
X99738458Y-117566094D02*
G01*
X99743800Y-117588343D01*
X99743800Y-117703521D01*
X99729448Y-117738169D01*
X99694800Y-117752521D01*
X99660152Y-117738169D01*
X99649530Y-117722273D01*
X99622266Y-117656453D01*
X99622266Y-117618950D01*
X99625094Y-117613213D01*
X99648202Y-117573191D01*
X99648204Y-117573183D01*
X99649246Y-117570845D01*
X99649946Y-117571156D01*
X99672551Y-117544685D01*
X99709938Y-117541740D01*
X99738458Y-117566094D01*
G37*
%TD.AperFunction*%
%TA.AperFunction,NonConductor*%
G36*
X99315069Y-114969730D02*
G01*
X99316368Y-114968183D01*
X99400831Y-115039056D01*
X99500414Y-115075300D01*
X99606385Y-115075300D01*
X99606386Y-115075300D01*
X99678041Y-115049220D01*
X99715509Y-115050856D01*
X99740845Y-115078506D01*
X99743800Y-115095265D01*
X99743800Y-116811656D01*
X99729448Y-116846304D01*
X99694800Y-116860656D01*
X99660152Y-116846304D01*
X99649557Y-116829016D01*
X99649246Y-116829155D01*
X99648204Y-116826817D01*
X99648202Y-116826809D01*
X99639453Y-116811656D01*
X99552296Y-116660696D01*
X99552294Y-116660692D01*
X99497797Y-116600166D01*
X99423949Y-116518148D01*
X99423946Y-116518146D01*
X99299611Y-116427811D01*
X99268763Y-116405399D01*
X99093531Y-116327381D01*
X99093528Y-116327380D01*
X99093524Y-116327379D01*
X98905908Y-116287500D01*
X98714092Y-116287500D01*
X98526475Y-116327379D01*
X98526466Y-116327382D01*
X98351235Y-116405400D01*
X98196053Y-116518146D01*
X98196050Y-116518148D01*
X98067709Y-116660688D01*
X98067703Y-116660696D01*
X97971803Y-116826800D01*
X97971798Y-116826808D01*
X97912524Y-117009235D01*
X97904965Y-117081153D01*
X97892474Y-117200000D01*
X97912524Y-117390764D01*
X97971798Y-117573191D01*
X98067706Y-117739308D01*
X98067709Y-117739311D01*
X98196050Y-117881851D01*
X98196053Y-117881853D01*
X98196055Y-117881855D01*
X98351237Y-117994601D01*
X98526469Y-118072619D01*
X98714092Y-118112500D01*
X98905908Y-118112500D01*
X99093531Y-118072619D01*
X99093541Y-118072614D01*
X99095972Y-118071825D01*
X99096477Y-118073380D01*
X99129002Y-118072487D01*
X99156238Y-118098268D01*
X99160500Y-118118255D01*
X99160500Y-118546900D01*
X99146148Y-118581548D01*
X99111500Y-118595900D01*
X97720176Y-118595900D01*
X97676280Y-118604632D01*
X97676278Y-118604632D01*
X97676278Y-118604633D01*
X97665650Y-118611734D01*
X97657522Y-118617165D01*
X97620739Y-118624480D01*
X97589557Y-118603644D01*
X97581300Y-118576422D01*
X97581300Y-115606366D01*
X97595652Y-115571718D01*
X97630300Y-115557366D01*
X97664948Y-115571718D01*
X97666714Y-115573579D01*
X97727224Y-115640784D01*
X97727227Y-115640786D01*
X97727229Y-115640788D01*
X97880370Y-115752051D01*
X98053297Y-115829044D01*
X98238454Y-115868400D01*
X98427746Y-115868400D01*
X98612903Y-115829044D01*
X98785830Y-115752051D01*
X98938971Y-115640788D01*
X99065633Y-115500116D01*
X99160279Y-115336184D01*
X99218774Y-115156156D01*
X99235236Y-114999518D01*
X99253131Y-114966562D01*
X99289090Y-114955910D01*
X99315069Y-114969730D01*
G37*
%TD.AperFunction*%
%TA.AperFunction,NonConductor*%
G36*
X103065544Y-116605506D02*
G01*
X103124696Y-116635646D01*
X103218481Y-116650500D01*
X104111298Y-116650499D01*
X104145946Y-116664851D01*
X104562248Y-117081153D01*
X104576600Y-117115801D01*
X104576600Y-118588497D01*
X104562248Y-118623145D01*
X104527600Y-118637497D01*
X104492952Y-118623146D01*
X104465059Y-118595253D01*
X104437236Y-118567430D01*
X104437234Y-118567429D01*
X104434443Y-118564638D01*
X104434443Y-118564637D01*
X104434439Y-118564634D01*
X103757313Y-117887508D01*
X103743705Y-117861369D01*
X103730934Y-117788937D01*
X103709187Y-117751270D01*
X103677949Y-117697163D01*
X103677947Y-117697160D01*
X103596768Y-117629043D01*
X103497186Y-117592800D01*
X103391214Y-117592800D01*
X103291631Y-117629043D01*
X103210452Y-117697160D01*
X103210450Y-117697163D01*
X103157466Y-117788934D01*
X103139064Y-117893300D01*
X103157466Y-117997665D01*
X103210450Y-118089436D01*
X103210452Y-118089439D01*
X103291631Y-118157556D01*
X103391214Y-118193800D01*
X103405499Y-118193800D01*
X103440147Y-118208152D01*
X103722647Y-118490652D01*
X103736999Y-118525300D01*
X103722647Y-118559948D01*
X103687999Y-118574300D01*
X103095382Y-118574300D01*
X103050964Y-118581335D01*
X103014498Y-118572579D01*
X102994903Y-118540602D01*
X102994300Y-118532938D01*
X102994300Y-116649166D01*
X103008652Y-116614518D01*
X103043300Y-116600166D01*
X103065544Y-116605506D01*
G37*
%TD.AperFunction*%
%TA.AperFunction,NonConductor*%
G36*
X102136187Y-117763789D02*
G01*
X102152333Y-117797638D01*
X102152400Y-117800203D01*
X102152400Y-118615612D01*
X102138048Y-118650260D01*
X102103400Y-118664612D01*
X102068752Y-118650260D01*
X102065242Y-118646750D01*
X102065235Y-118646745D01*
X101952208Y-118589155D01*
X101952205Y-118589154D01*
X101952204Y-118589154D01*
X101858419Y-118574300D01*
X101858417Y-118574300D01*
X101095383Y-118574300D01*
X101001592Y-118589154D01*
X100998876Y-118590037D01*
X100961489Y-118587093D01*
X100949088Y-118578083D01*
X100566952Y-118195947D01*
X100552600Y-118161299D01*
X100552600Y-117805756D01*
X100566952Y-117771108D01*
X100601600Y-117756756D01*
X100636248Y-117771108D01*
X100638014Y-117772969D01*
X100736050Y-117881851D01*
X100736053Y-117881853D01*
X100736055Y-117881855D01*
X100891237Y-117994601D01*
X101066469Y-118072619D01*
X101254092Y-118112500D01*
X101445908Y-118112500D01*
X101633531Y-118072619D01*
X101808763Y-117994601D01*
X101963945Y-117881855D01*
X101987573Y-117855614D01*
X102066986Y-117767416D01*
X102100835Y-117751270D01*
X102136187Y-117763789D01*
G37*
%TD.AperFunction*%
%TA.AperFunction,NonConductor*%
G36*
X98775748Y-101630108D02*
G01*
X98790100Y-101664756D01*
X98790100Y-109117272D01*
X98790100Y-109216928D01*
X98828236Y-109308997D01*
X98828237Y-109308998D01*
X98828237Y-109308999D01*
X99535248Y-110016009D01*
X99549600Y-110050657D01*
X99549600Y-112185581D01*
X99535248Y-112220229D01*
X99500600Y-112234581D01*
X99465952Y-112220229D01*
X99464186Y-112218368D01*
X99373949Y-112118148D01*
X99373946Y-112118146D01*
X99218764Y-112005400D01*
X99218763Y-112005399D01*
X99043531Y-111927381D01*
X99043528Y-111927380D01*
X99043524Y-111927379D01*
X98855908Y-111887500D01*
X98664092Y-111887500D01*
X98476475Y-111927379D01*
X98476466Y-111927382D01*
X98301235Y-112005400D01*
X98146053Y-112118146D01*
X98146050Y-112118148D01*
X98017709Y-112260688D01*
X98017703Y-112260696D01*
X97921800Y-112426805D01*
X97921798Y-112426808D01*
X97921798Y-112426809D01*
X97862524Y-112609236D01*
X97842474Y-112800000D01*
X97862524Y-112990764D01*
X97921798Y-113173191D01*
X98017706Y-113339308D01*
X98017709Y-113339311D01*
X98146050Y-113481851D01*
X98146053Y-113481853D01*
X98146055Y-113481855D01*
X98301237Y-113594601D01*
X98476469Y-113672619D01*
X98664092Y-113712500D01*
X98764652Y-113712500D01*
X98799300Y-113726852D01*
X98813652Y-113761500D01*
X98807088Y-113785999D01*
X98801466Y-113795735D01*
X98783064Y-113900100D01*
X98801466Y-114004465D01*
X98830565Y-114054865D01*
X98854452Y-114096238D01*
X98854453Y-114096238D01*
X98856135Y-114099152D01*
X98862700Y-114123652D01*
X98862700Y-114143430D01*
X98848348Y-114178078D01*
X98813700Y-114192430D01*
X98788506Y-114184248D01*
X98788054Y-114185033D01*
X98785833Y-114183751D01*
X98785832Y-114183750D01*
X98785830Y-114183749D01*
X98612903Y-114106756D01*
X98612900Y-114106755D01*
X98612896Y-114106754D01*
X98427746Y-114067400D01*
X98238454Y-114067400D01*
X98053303Y-114106754D01*
X98053294Y-114106757D01*
X97880368Y-114183750D01*
X97727227Y-114295013D01*
X97727224Y-114295015D01*
X97666714Y-114362220D01*
X97632865Y-114378366D01*
X97597513Y-114365847D01*
X97581367Y-114331998D01*
X97581300Y-114329433D01*
X97581300Y-109453800D01*
X97595651Y-109419153D01*
X97740043Y-109274760D01*
X97740046Y-109274759D01*
X97746935Y-109267870D01*
X97746936Y-109267870D01*
X97810370Y-109204436D01*
X97820425Y-109180160D01*
X97844701Y-109121555D01*
X97844701Y-109049500D01*
X97859053Y-109014852D01*
X97893701Y-109000500D01*
X98484020Y-109000500D01*
X98527922Y-108991767D01*
X98577704Y-108958504D01*
X98610967Y-108908722D01*
X98619700Y-108864820D01*
X98619700Y-107135180D01*
X98610967Y-107091278D01*
X98597542Y-107071186D01*
X98577704Y-107041495D01*
X98527921Y-107008232D01*
X98484023Y-106999500D01*
X98484020Y-106999500D01*
X96754380Y-106999500D01*
X96749458Y-107000479D01*
X96712676Y-106993161D01*
X96691841Y-106961978D01*
X96690900Y-106952420D01*
X96690900Y-106041306D01*
X96705252Y-106006658D01*
X96739900Y-105992306D01*
X96774548Y-106006658D01*
X96781907Y-106016581D01*
X96781960Y-106016546D01*
X96782675Y-106017617D01*
X96783113Y-106018208D01*
X96783290Y-106018538D01*
X96783291Y-106018540D01*
X96783294Y-106018544D01*
X96796904Y-106035127D01*
X96908317Y-106170883D01*
X96995627Y-106242537D01*
X97060655Y-106295905D01*
X97060658Y-106295907D01*
X97060662Y-106295910D01*
X97234473Y-106388814D01*
X97423068Y-106446024D01*
X97619200Y-106465341D01*
X97815332Y-106446024D01*
X98003927Y-106388814D01*
X98177738Y-106295910D01*
X98330083Y-106170883D01*
X98455110Y-106018538D01*
X98548014Y-105844727D01*
X98605224Y-105656132D01*
X98624541Y-105460000D01*
X98605224Y-105263868D01*
X98548014Y-105075273D01*
X98455110Y-104901462D01*
X98455107Y-104901458D01*
X98455105Y-104901455D01*
X98330083Y-104749117D01*
X98312248Y-104734480D01*
X98294570Y-104701407D01*
X98305456Y-104665519D01*
X98326576Y-104650559D01*
X98345268Y-104643756D01*
X98385858Y-104609697D01*
X98426445Y-104575641D01*
X98426446Y-104575639D01*
X98426448Y-104575638D01*
X98479434Y-104483863D01*
X98497836Y-104379500D01*
X98479434Y-104275137D01*
X98479433Y-104275135D01*
X98479433Y-104275134D01*
X98426449Y-104183363D01*
X98426447Y-104183360D01*
X98345268Y-104115243D01*
X98245686Y-104079000D01*
X98139714Y-104079000D01*
X98040135Y-104115242D01*
X98040129Y-104115246D01*
X98007606Y-104142536D01*
X97976110Y-104154000D01*
X97178654Y-104154000D01*
X97088945Y-104154000D01*
X97088943Y-104154000D01*
X97088941Y-104154001D01*
X97006063Y-104188330D01*
X97006061Y-104188331D01*
X96337665Y-104856729D01*
X96274230Y-104920163D01*
X96274230Y-104920165D01*
X96239899Y-105003043D01*
X96239899Y-105098455D01*
X96239900Y-105098464D01*
X96239900Y-118110246D01*
X96233335Y-118134746D01*
X96178666Y-118229434D01*
X96160264Y-118333800D01*
X96178666Y-118438165D01*
X96231650Y-118529936D01*
X96231652Y-118529939D01*
X96312831Y-118598056D01*
X96412414Y-118634300D01*
X96518386Y-118634300D01*
X96617968Y-118598056D01*
X96699147Y-118529939D01*
X96699149Y-118529936D01*
X96752133Y-118438165D01*
X96752133Y-118438164D01*
X96752134Y-118438163D01*
X96770536Y-118333800D01*
X96752134Y-118229437D01*
X96752133Y-118229435D01*
X96752133Y-118229434D01*
X96697465Y-118134746D01*
X96690900Y-118110246D01*
X96690900Y-109047579D01*
X96705252Y-109012931D01*
X96739900Y-108998579D01*
X96749452Y-108999519D01*
X96754380Y-109000500D01*
X97258198Y-109000500D01*
X97292846Y-109014852D01*
X97307198Y-109049500D01*
X97292846Y-109084148D01*
X97164630Y-109212363D01*
X97164630Y-109212365D01*
X97130299Y-109295243D01*
X97130299Y-109390655D01*
X97130300Y-109390664D01*
X97130300Y-119556395D01*
X97115948Y-119591043D01*
X97081300Y-119605395D01*
X97046652Y-119591043D01*
X97043504Y-119587895D01*
X96993721Y-119554632D01*
X96949823Y-119545900D01*
X96949820Y-119545900D01*
X95551500Y-119545900D01*
X95516852Y-119531548D01*
X95502500Y-119496900D01*
X95502500Y-104854356D01*
X95516852Y-104819708D01*
X98706452Y-101630108D01*
X98741100Y-101615756D01*
X98775748Y-101630108D01*
G37*
%TD.AperFunction*%
%TA.AperFunction,NonConductor*%
G36*
X102687048Y-118989209D02*
G01*
X102712048Y-119014209D01*
X102726400Y-119048857D01*
X102726400Y-119800742D01*
X102712048Y-119835390D01*
X102687048Y-119860390D01*
X102652400Y-119874742D01*
X102617752Y-119860390D01*
X102603400Y-119825742D01*
X102603400Y-119023857D01*
X102617752Y-118989209D01*
X102652400Y-118974857D01*
X102687048Y-118989209D01*
G37*
%TD.AperFunction*%
%TA.AperFunction,NonConductor*%
G36*
X100328448Y-118595253D02*
G01*
X100712048Y-118978853D01*
X100726400Y-119013501D01*
X100726400Y-119906317D01*
X100738907Y-119985289D01*
X100730151Y-120021755D01*
X100698174Y-120041350D01*
X100661708Y-120032594D01*
X100655862Y-120027601D01*
X100259152Y-119630891D01*
X100244800Y-119596243D01*
X100244800Y-118629901D01*
X100259152Y-118595253D01*
X100293800Y-118580901D01*
X100328448Y-118595253D01*
G37*
%TD.AperFunction*%
%TA.AperFunction,NonConductor*%
G36*
X98170148Y-119911252D02*
G01*
X98184500Y-119945900D01*
X98184500Y-119948272D01*
X98184500Y-120047928D01*
X98184500Y-120047930D01*
X98184501Y-120047931D01*
X98207373Y-120103150D01*
X98207373Y-120140653D01*
X98180854Y-120167171D01*
X98143351Y-120167171D01*
X98127455Y-120156549D01*
X98054067Y-120083161D01*
X97951452Y-119980547D01*
X97937101Y-119945900D01*
X97951453Y-119911252D01*
X97986101Y-119896900D01*
X98135500Y-119896900D01*
X98170148Y-119911252D01*
G37*
%TD.AperFunction*%
%TA.AperFunction,NonConductor*%
G36*
X98854591Y-120262952D02*
G01*
X99003891Y-120412252D01*
X99018243Y-120446900D01*
X99003891Y-120481548D01*
X98969243Y-120495900D01*
X98709500Y-120495900D01*
X98674852Y-120481548D01*
X98660500Y-120446900D01*
X98660500Y-120374847D01*
X98660499Y-120374843D01*
X98648484Y-120345836D01*
X98636271Y-120316350D01*
X98636271Y-120278849D01*
X98662789Y-120252330D01*
X98681541Y-120248600D01*
X98819943Y-120248600D01*
X98854591Y-120262952D01*
G37*
%TD.AperFunction*%
%TA.AperFunction,NonConductor*%
G36*
X97169148Y-119836054D02*
G01*
X97234955Y-119901861D01*
X97234957Y-119901862D01*
X97746118Y-120413024D01*
X97760470Y-120447672D01*
X97746118Y-120482320D01*
X97721030Y-120495730D01*
X97676278Y-120504632D01*
X97626495Y-120537895D01*
X97593232Y-120587678D01*
X97584500Y-120631576D01*
X97584500Y-121199696D01*
X97570148Y-121234344D01*
X97535500Y-121248696D01*
X97500852Y-121234344D01*
X97493065Y-121224196D01*
X97482249Y-121205463D01*
X97482247Y-121205460D01*
X97401068Y-121137343D01*
X97301486Y-121101100D01*
X97287201Y-121101100D01*
X97252553Y-121086748D01*
X97041754Y-120875949D01*
X97027402Y-120841301D01*
X97041754Y-120806653D01*
X97041760Y-120806646D01*
X97043497Y-120804908D01*
X97043504Y-120804904D01*
X97076767Y-120755122D01*
X97085500Y-120711220D01*
X97085500Y-119870702D01*
X97099852Y-119836054D01*
X97134500Y-119821702D01*
X97169148Y-119836054D01*
G37*
%TD.AperFunction*%
%TA.AperFunction,NonConductor*%
G36*
X102061159Y-120259923D02*
G01*
X102066500Y-120282169D01*
X102066500Y-121319943D01*
X102052148Y-121354591D01*
X102017500Y-121368943D01*
X101982852Y-121354591D01*
X100974097Y-120345836D01*
X100959745Y-120311188D01*
X100974097Y-120276540D01*
X101008745Y-120262188D01*
X101016392Y-120262789D01*
X101095381Y-120275300D01*
X101858418Y-120275299D01*
X101952204Y-120260446D01*
X101995255Y-120238509D01*
X102032641Y-120235567D01*
X102061159Y-120259923D01*
G37*
%TD.AperFunction*%
%TA.AperFunction,NonConductor*%
G36*
X100228343Y-87730964D02*
G01*
X100239602Y-87733773D01*
X100467378Y-87820375D01*
X100476235Y-87824815D01*
X100712889Y-87975174D01*
X100719236Y-87979973D01*
X100878383Y-88122077D01*
X100962983Y-88197617D01*
X100967378Y-88202078D01*
X101214799Y-88487600D01*
X101217829Y-88491474D01*
X101465870Y-88843651D01*
X101467991Y-88846933D01*
X101601160Y-89072230D01*
X101714387Y-89263787D01*
X101715900Y-89266545D01*
X101890837Y-89611423D01*
X101959047Y-89745893D01*
X101960153Y-89748224D01*
X102032454Y-89911657D01*
X102198892Y-90287883D01*
X102199724Y-90289883D01*
X102394890Y-90789674D01*
X102394125Y-90827170D01*
X102367071Y-90853141D01*
X102329575Y-90852376D01*
X102312833Y-90840286D01*
X102300971Y-90827112D01*
X102246059Y-90787216D01*
X102147830Y-90715849D01*
X101974903Y-90638856D01*
X101974900Y-90638855D01*
X101974896Y-90638854D01*
X101789746Y-90599500D01*
X101600454Y-90599500D01*
X101415303Y-90638854D01*
X101415294Y-90638857D01*
X101284909Y-90696909D01*
X101243013Y-90715563D01*
X101242368Y-90715850D01*
X101089227Y-90827113D01*
X101089224Y-90827115D01*
X100962570Y-90967780D01*
X100962564Y-90967788D01*
X100928326Y-91027090D01*
X100898573Y-91049920D01*
X100861391Y-91045025D01*
X100851243Y-91037238D01*
X100841816Y-91027811D01*
X100827464Y-90993163D01*
X100829863Y-90978019D01*
X100830741Y-90975313D01*
X100830746Y-90975304D01*
X100845600Y-90881519D01*
X100845599Y-90118482D01*
X100830746Y-90024696D01*
X100830743Y-90024690D01*
X100773154Y-89911664D01*
X100773149Y-89911657D01*
X100683442Y-89821950D01*
X100683435Y-89821945D01*
X100570408Y-89764355D01*
X100570405Y-89764354D01*
X100570404Y-89764354D01*
X100476619Y-89749500D01*
X100476617Y-89749500D01*
X99513582Y-89749500D01*
X99419796Y-89764353D01*
X99306764Y-89821945D01*
X99306757Y-89821950D01*
X99217050Y-89911657D01*
X99217045Y-89911664D01*
X99159455Y-90024690D01*
X99159455Y-90024692D01*
X99144600Y-90118482D01*
X99144600Y-90881517D01*
X99159453Y-90975303D01*
X99217045Y-91088335D01*
X99217050Y-91088342D01*
X99306757Y-91178049D01*
X99306764Y-91178054D01*
X99419791Y-91235644D01*
X99419792Y-91235644D01*
X99419796Y-91235646D01*
X99513581Y-91250500D01*
X100406398Y-91250499D01*
X100441046Y-91264851D01*
X100790692Y-91614497D01*
X100804775Y-91644022D01*
X100809424Y-91688250D01*
X100809425Y-91688253D01*
X100829326Y-91749501D01*
X100867921Y-91868284D01*
X100962567Y-92032216D01*
X100962570Y-92032219D01*
X101089224Y-92172884D01*
X101089227Y-92172886D01*
X101089229Y-92172888D01*
X101242370Y-92284151D01*
X101415297Y-92361144D01*
X101600454Y-92400500D01*
X101789746Y-92400500D01*
X101974903Y-92361144D01*
X102147830Y-92284151D01*
X102300971Y-92172888D01*
X102427633Y-92032216D01*
X102522279Y-91868284D01*
X102580774Y-91688256D01*
X102587642Y-91622902D01*
X102605537Y-91589946D01*
X102641496Y-91579294D01*
X102674454Y-91597189D01*
X102683151Y-91613433D01*
X102857682Y-92172884D01*
X102882661Y-92252951D01*
X102883054Y-92254278D01*
X103096888Y-93014586D01*
X103097204Y-93015767D01*
X103303503Y-93826362D01*
X103303761Y-93827423D01*
X103303771Y-93827466D01*
X103491334Y-94639818D01*
X103502152Y-94686669D01*
X103502361Y-94687620D01*
X103592071Y-95115273D01*
X103692379Y-95593444D01*
X103692556Y-95594326D01*
X103873852Y-96545105D01*
X103874000Y-96545919D01*
X104046170Y-97539715D01*
X104046295Y-97540471D01*
X104208989Y-98575622D01*
X104209095Y-98576331D01*
X104361946Y-99651061D01*
X104362036Y-99651728D01*
X104504664Y-100764117D01*
X104504741Y-100764751D01*
X104636815Y-101913243D01*
X104636881Y-101913848D01*
X104758028Y-103096531D01*
X104758084Y-103097112D01*
X104867968Y-104312402D01*
X104868015Y-104312962D01*
X104966271Y-105558946D01*
X104966311Y-105559490D01*
X105052595Y-106834533D01*
X105052628Y-106835063D01*
X105126588Y-108137314D01*
X105126615Y-108137833D01*
X105187910Y-109465725D01*
X105187931Y-109466235D01*
X105236209Y-110817916D01*
X105236224Y-110818420D01*
X105271137Y-112192146D01*
X105271147Y-112192646D01*
X105292346Y-113586615D01*
X105292351Y-113587112D01*
X105299495Y-114999751D01*
X105299495Y-115000247D01*
X105292351Y-116412885D01*
X105292346Y-116413382D01*
X105271147Y-117807351D01*
X105271137Y-117807851D01*
X105236224Y-119181577D01*
X105236209Y-119182081D01*
X105187931Y-120533762D01*
X105187910Y-120534272D01*
X105126615Y-121862164D01*
X105126588Y-121862682D01*
X105125521Y-121881482D01*
X105109229Y-121915261D01*
X105073823Y-121927626D01*
X105040044Y-121911334D01*
X105027600Y-121878705D01*
X105027600Y-117052664D01*
X105027601Y-117052655D01*
X105027601Y-116957248D01*
X105027600Y-116957244D01*
X104993270Y-116874365D01*
X104993269Y-116874363D01*
X104927046Y-116808140D01*
X104927039Y-116808134D01*
X104546716Y-116427811D01*
X104532364Y-116393163D01*
X104534763Y-116378019D01*
X104535641Y-116375313D01*
X104535646Y-116375304D01*
X104550500Y-116281519D01*
X104550499Y-115518482D01*
X104535646Y-115424696D01*
X104478054Y-115311664D01*
X104478049Y-115311657D01*
X104388342Y-115221950D01*
X104388335Y-115221945D01*
X104275308Y-115164355D01*
X104275305Y-115164354D01*
X104275304Y-115164354D01*
X104181519Y-115149500D01*
X104181517Y-115149500D01*
X103218482Y-115149500D01*
X103124699Y-115164353D01*
X103124697Y-115164353D01*
X103124696Y-115164354D01*
X103073074Y-115190656D01*
X103065545Y-115194493D01*
X103028158Y-115197435D01*
X102999640Y-115173078D01*
X102994300Y-115150833D01*
X102994300Y-114980256D01*
X103008651Y-114945609D01*
X103289409Y-114664850D01*
X103324057Y-114650499D01*
X104181517Y-114650499D01*
X104181518Y-114650499D01*
X104275304Y-114635646D01*
X104347744Y-114598736D01*
X104388335Y-114578054D01*
X104388337Y-114578052D01*
X104388342Y-114578050D01*
X104478050Y-114488342D01*
X104485205Y-114474300D01*
X104535644Y-114375309D01*
X104535644Y-114375307D01*
X104535646Y-114375304D01*
X104550500Y-114281519D01*
X104550499Y-113518482D01*
X104535646Y-113424696D01*
X104511856Y-113378005D01*
X104478054Y-113311664D01*
X104478049Y-113311657D01*
X104388342Y-113221950D01*
X104388335Y-113221945D01*
X104275308Y-113164355D01*
X104275305Y-113164354D01*
X104275304Y-113164354D01*
X104181519Y-113149500D01*
X104181517Y-113149500D01*
X104109200Y-113149500D01*
X104074552Y-113135148D01*
X104060200Y-113100500D01*
X104060200Y-107394074D01*
X104060199Y-107394070D01*
X104059550Y-107392503D01*
X104022064Y-107302003D01*
X104022062Y-107302001D01*
X104022062Y-107302000D01*
X103951597Y-107231536D01*
X103146901Y-106426840D01*
X103132549Y-106392192D01*
X103146901Y-106357544D01*
X103158440Y-106348984D01*
X103257738Y-106295910D01*
X103410083Y-106170883D01*
X103535110Y-106018538D01*
X103628014Y-105844727D01*
X103685224Y-105656132D01*
X103704541Y-105460000D01*
X103685224Y-105263868D01*
X103628014Y-105075273D01*
X103535110Y-104901462D01*
X103535107Y-104901458D01*
X103535105Y-104901455D01*
X103454910Y-104803739D01*
X103410083Y-104749117D01*
X103338427Y-104690310D01*
X103257744Y-104624094D01*
X103257741Y-104624092D01*
X103257739Y-104624091D01*
X103257738Y-104624090D01*
X103167087Y-104575636D01*
X103083926Y-104531185D01*
X102895332Y-104473976D01*
X102699200Y-104454659D01*
X102503067Y-104473976D01*
X102503066Y-104473976D01*
X102314473Y-104531185D01*
X102140658Y-104624092D01*
X102140655Y-104624094D01*
X101988317Y-104749117D01*
X101863294Y-104901455D01*
X101863292Y-104901458D01*
X101770385Y-105075273D01*
X101713176Y-105263866D01*
X101713176Y-105263867D01*
X101693859Y-105459999D01*
X101693859Y-105460000D01*
X101713176Y-105656132D01*
X101713176Y-105656133D01*
X101770385Y-105844726D01*
X101820558Y-105938592D01*
X101863289Y-106018537D01*
X101863292Y-106018541D01*
X101863294Y-106018544D01*
X101876904Y-106035127D01*
X101988317Y-106170883D01*
X102075627Y-106242537D01*
X102140655Y-106295905D01*
X102140658Y-106295907D01*
X102140662Y-106295910D01*
X102314473Y-106388814D01*
X102413925Y-106418982D01*
X102442914Y-106442772D01*
X102448700Y-106465871D01*
X102448700Y-106511872D01*
X102448700Y-106611528D01*
X102486836Y-106703597D01*
X102486837Y-106703598D01*
X102486838Y-106703600D01*
X102557300Y-106774062D01*
X102557301Y-106774062D01*
X102557303Y-106774064D01*
X102649372Y-106812200D01*
X102803443Y-106812200D01*
X102838091Y-106826552D01*
X102943878Y-106932339D01*
X102958230Y-106966987D01*
X102943878Y-107001635D01*
X102909230Y-107015987D01*
X102897727Y-107014280D01*
X102897695Y-107014446D01*
X102895332Y-107013976D01*
X102699200Y-106994659D01*
X102503067Y-107013976D01*
X102503066Y-107013976D01*
X102314473Y-107071185D01*
X102140658Y-107164092D01*
X102140655Y-107164094D01*
X101988317Y-107289117D01*
X101863294Y-107441455D01*
X101863292Y-107441458D01*
X101770385Y-107615273D01*
X101750590Y-107680531D01*
X101726798Y-107709521D01*
X101689476Y-107713197D01*
X101660486Y-107689405D01*
X101654700Y-107666307D01*
X101654700Y-107650347D01*
X101654700Y-107650345D01*
X101620370Y-107567464D01*
X101620369Y-107567463D01*
X101620368Y-107567461D01*
X101556936Y-107504030D01*
X101556935Y-107504029D01*
X101046067Y-106993161D01*
X100523312Y-106470407D01*
X100508961Y-106435760D01*
X100523313Y-106401112D01*
X100541825Y-106390020D01*
X100541706Y-106389733D01*
X100543648Y-106388928D01*
X100543750Y-106388867D01*
X100543927Y-106388814D01*
X100717738Y-106295910D01*
X100870083Y-106170883D01*
X100995110Y-106018538D01*
X101088014Y-105844727D01*
X101145224Y-105656132D01*
X101164541Y-105460000D01*
X101145224Y-105263868D01*
X101088014Y-105075273D01*
X100995110Y-104901462D01*
X100995107Y-104901458D01*
X100995105Y-104901455D01*
X100914910Y-104803739D01*
X100870083Y-104749117D01*
X100798427Y-104690310D01*
X100717744Y-104624094D01*
X100717741Y-104624092D01*
X100717739Y-104624091D01*
X100717738Y-104624090D01*
X100627087Y-104575636D01*
X100543926Y-104531185D01*
X100355332Y-104473976D01*
X100159200Y-104454659D01*
X99963067Y-104473976D01*
X99963066Y-104473976D01*
X99774473Y-104531185D01*
X99600658Y-104624092D01*
X99600655Y-104624094D01*
X99448317Y-104749117D01*
X99377977Y-104834825D01*
X99344902Y-104852503D01*
X99309014Y-104841616D01*
X99291336Y-104808541D01*
X99291100Y-104803739D01*
X99291100Y-101563056D01*
X99305451Y-101528409D01*
X99531555Y-101302304D01*
X99566202Y-101287953D01*
X99586131Y-101292188D01*
X99716469Y-101350219D01*
X99904092Y-101390100D01*
X100095908Y-101390100D01*
X100283531Y-101350219D01*
X100458763Y-101272201D01*
X100613945Y-101159455D01*
X100742294Y-101016908D01*
X100838202Y-100850791D01*
X100897476Y-100668364D01*
X100917526Y-100477600D01*
X101622474Y-100477600D01*
X101642524Y-100668364D01*
X101701798Y-100850791D01*
X101797706Y-101016908D01*
X101820304Y-101042006D01*
X101926050Y-101159451D01*
X101926053Y-101159453D01*
X101926055Y-101159455D01*
X102081237Y-101272201D01*
X102256469Y-101350219D01*
X102444092Y-101390100D01*
X102635908Y-101390100D01*
X102823531Y-101350219D01*
X102998763Y-101272201D01*
X103153945Y-101159455D01*
X103282294Y-101016908D01*
X103378202Y-100850791D01*
X103437476Y-100668364D01*
X103457526Y-100477600D01*
X103437476Y-100286836D01*
X103378202Y-100104409D01*
X103282294Y-99938292D01*
X103252162Y-99904827D01*
X103153949Y-99795748D01*
X103153946Y-99795746D01*
X102998764Y-99683000D01*
X102998763Y-99682999D01*
X102823531Y-99604981D01*
X102823528Y-99604980D01*
X102823524Y-99604979D01*
X102635908Y-99565100D01*
X102444092Y-99565100D01*
X102256475Y-99604979D01*
X102256466Y-99604982D01*
X102081235Y-99683000D01*
X101926053Y-99795746D01*
X101926050Y-99795748D01*
X101797709Y-99938288D01*
X101797703Y-99938296D01*
X101701800Y-100104405D01*
X101701798Y-100104408D01*
X101701798Y-100104409D01*
X101642524Y-100286836D01*
X101622474Y-100477600D01*
X100917526Y-100477600D01*
X100897476Y-100286836D01*
X100838202Y-100104409D01*
X100742294Y-99938292D01*
X100712162Y-99904827D01*
X100613949Y-99795748D01*
X100613946Y-99795746D01*
X100458764Y-99683000D01*
X100458763Y-99682999D01*
X100283531Y-99604981D01*
X100283528Y-99604980D01*
X100283524Y-99604979D01*
X100095908Y-99565100D01*
X99904092Y-99565100D01*
X99716475Y-99604979D01*
X99716466Y-99604982D01*
X99541235Y-99683000D01*
X99386053Y-99795746D01*
X99386050Y-99795748D01*
X99257709Y-99938288D01*
X99257703Y-99938296D01*
X99161800Y-100104405D01*
X99161798Y-100104408D01*
X99102524Y-100286835D01*
X99082474Y-100477600D01*
X99102524Y-100668364D01*
X99161798Y-100850791D01*
X99161800Y-100850794D01*
X99184267Y-100889709D01*
X99189162Y-100926891D01*
X99176480Y-100948857D01*
X99064148Y-101061190D01*
X99029500Y-101075542D01*
X98994852Y-101061190D01*
X98980500Y-101026542D01*
X98980500Y-99265757D01*
X98994852Y-99231109D01*
X101482362Y-96743599D01*
X101482364Y-96743597D01*
X101520500Y-96651528D01*
X101520500Y-96551873D01*
X101520500Y-96505871D01*
X101534852Y-96471223D01*
X101555272Y-96458982D01*
X101654727Y-96428814D01*
X101828538Y-96335910D01*
X101980883Y-96210883D01*
X102105910Y-96058538D01*
X102198814Y-95884727D01*
X102256024Y-95696132D01*
X102275341Y-95500000D01*
X102256024Y-95303868D01*
X102198814Y-95115273D01*
X102105910Y-94941462D01*
X102105907Y-94941458D01*
X102105905Y-94941455D01*
X102052537Y-94876427D01*
X101980883Y-94789117D01*
X101909227Y-94730310D01*
X101828544Y-94664094D01*
X101828541Y-94664092D01*
X101828539Y-94664091D01*
X101828538Y-94664090D01*
X101710202Y-94600838D01*
X101654726Y-94571185D01*
X101466132Y-94513976D01*
X101270000Y-94494659D01*
X101073867Y-94513976D01*
X101073866Y-94513976D01*
X100885273Y-94571185D01*
X100711458Y-94664092D01*
X100711455Y-94664094D01*
X100559117Y-94789117D01*
X100434094Y-94941455D01*
X100434092Y-94941458D01*
X100341185Y-95115273D01*
X100283976Y-95303866D01*
X100283976Y-95303867D01*
X100264659Y-95499999D01*
X100264659Y-95500000D01*
X100283976Y-95696132D01*
X100283976Y-95696133D01*
X100341185Y-95884726D01*
X100434092Y-96058541D01*
X100434094Y-96058544D01*
X100500310Y-96139227D01*
X100559117Y-96210883D01*
X100646427Y-96282537D01*
X100711455Y-96335905D01*
X100711458Y-96335907D01*
X100711462Y-96335910D01*
X100885273Y-96428814D01*
X100963066Y-96452412D01*
X100992055Y-96476202D01*
X100995731Y-96513525D01*
X100983489Y-96533949D01*
X98588103Y-98929336D01*
X98517637Y-98999800D01*
X98517637Y-98999801D01*
X98479500Y-99091870D01*
X98479500Y-101128242D01*
X98465148Y-101162890D01*
X95210247Y-104417790D01*
X95175599Y-104432142D01*
X95140951Y-104417790D01*
X95126599Y-104383142D01*
X95126750Y-104379310D01*
X95131985Y-104312914D01*
X95132029Y-104312402D01*
X95135066Y-104278818D01*
X95241922Y-103097011D01*
X95241959Y-103096630D01*
X95363129Y-101913718D01*
X95363164Y-101913404D01*
X95495269Y-100764636D01*
X95495319Y-100764227D01*
X95532069Y-100477600D01*
X96542474Y-100477600D01*
X96562524Y-100668364D01*
X96621798Y-100850791D01*
X96717706Y-101016908D01*
X96740304Y-101042006D01*
X96846050Y-101159451D01*
X96846053Y-101159453D01*
X96846055Y-101159455D01*
X97001237Y-101272201D01*
X97176469Y-101350219D01*
X97364092Y-101390100D01*
X97555908Y-101390100D01*
X97743531Y-101350219D01*
X97918763Y-101272201D01*
X98073945Y-101159455D01*
X98202294Y-101016908D01*
X98298202Y-100850791D01*
X98357476Y-100668364D01*
X98377526Y-100477600D01*
X98357476Y-100286836D01*
X98298202Y-100104409D01*
X98202294Y-99938292D01*
X98172162Y-99904827D01*
X98073949Y-99795748D01*
X98073946Y-99795746D01*
X97918764Y-99683000D01*
X97918763Y-99682999D01*
X97743531Y-99604981D01*
X97743528Y-99604980D01*
X97743524Y-99604979D01*
X97555908Y-99565100D01*
X97364092Y-99565100D01*
X97176475Y-99604979D01*
X97176466Y-99604982D01*
X97001235Y-99683000D01*
X96846053Y-99795746D01*
X96846050Y-99795748D01*
X96717709Y-99938288D01*
X96717703Y-99938296D01*
X96621800Y-100104405D01*
X96621798Y-100104408D01*
X96621798Y-100104409D01*
X96562524Y-100286836D01*
X96542474Y-100477600D01*
X95532069Y-100477600D01*
X95637966Y-99651684D01*
X95638052Y-99651051D01*
X95790920Y-98576205D01*
X95790988Y-98575750D01*
X95953716Y-97540376D01*
X95953813Y-97539793D01*
X96126006Y-96545866D01*
X96126145Y-96545105D01*
X96160522Y-96364823D01*
X97729500Y-96364823D01*
X97738232Y-96408721D01*
X97771495Y-96458504D01*
X97794231Y-96473695D01*
X97821278Y-96491767D01*
X97865180Y-96500500D01*
X99594820Y-96500500D01*
X99638722Y-96491767D01*
X99688504Y-96458504D01*
X99721767Y-96408722D01*
X99730500Y-96364820D01*
X99730500Y-94635180D01*
X99721767Y-94591278D01*
X99708342Y-94571186D01*
X99688504Y-94541495D01*
X99638721Y-94508232D01*
X99594823Y-94499500D01*
X99594820Y-94499500D01*
X99101357Y-94499500D01*
X99066709Y-94485148D01*
X99052357Y-94450500D01*
X99066709Y-94415852D01*
X99296625Y-94185935D01*
X100130104Y-93352454D01*
X100130107Y-93352453D01*
X100136996Y-93345564D01*
X100136997Y-93345564D01*
X100207464Y-93275097D01*
X100207465Y-93275094D01*
X100209350Y-93272275D01*
X100240533Y-93251440D01*
X100250091Y-93250499D01*
X100476617Y-93250499D01*
X100476618Y-93250499D01*
X100570404Y-93235646D01*
X100631487Y-93204522D01*
X100683435Y-93178054D01*
X100683437Y-93178052D01*
X100683442Y-93178050D01*
X100773150Y-93088342D01*
X100810129Y-93015767D01*
X100830744Y-92975309D01*
X100830744Y-92975307D01*
X100830746Y-92975304D01*
X100845600Y-92881519D01*
X100845599Y-92118482D01*
X100830746Y-92024696D01*
X100830743Y-92024690D01*
X100773154Y-91911664D01*
X100773149Y-91911657D01*
X100683442Y-91821950D01*
X100683435Y-91821945D01*
X100570408Y-91764355D01*
X100570405Y-91764354D01*
X100570404Y-91764354D01*
X100476619Y-91749500D01*
X100476617Y-91749500D01*
X99513582Y-91749500D01*
X99419796Y-91764353D01*
X99306764Y-91821945D01*
X99306757Y-91821950D01*
X99217050Y-91911657D01*
X99217045Y-91911664D01*
X99159455Y-92024690D01*
X99159455Y-92024692D01*
X99159454Y-92024694D01*
X99159454Y-92024696D01*
X99147277Y-92101582D01*
X99144600Y-92118482D01*
X99144600Y-92881517D01*
X99159453Y-92975303D01*
X99217045Y-93088335D01*
X99217050Y-93088342D01*
X99306757Y-93178049D01*
X99306764Y-93178054D01*
X99419790Y-93235644D01*
X99419794Y-93235645D01*
X99419796Y-93235646D01*
X99427192Y-93236817D01*
X99459168Y-93256409D01*
X99467925Y-93292875D01*
X99454176Y-93319861D01*
X98581211Y-94192827D01*
X98517637Y-94256401D01*
X98479500Y-94348470D01*
X98479500Y-94450500D01*
X98465148Y-94485148D01*
X98430500Y-94499500D01*
X97865176Y-94499500D01*
X97821278Y-94508232D01*
X97771495Y-94541495D01*
X97738232Y-94591278D01*
X97729500Y-94635176D01*
X97729500Y-96364823D01*
X96160522Y-96364823D01*
X96307459Y-95594234D01*
X96307597Y-95593544D01*
X96497645Y-94687579D01*
X96497839Y-94686698D01*
X96696243Y-93827388D01*
X96696463Y-93826485D01*
X96902808Y-93015710D01*
X96903110Y-93014586D01*
X97116966Y-92254196D01*
X97117313Y-92253026D01*
X97309518Y-91636924D01*
X97333538Y-91608123D01*
X97370888Y-91604741D01*
X97399690Y-91628761D01*
X97405026Y-91646393D01*
X97409426Y-91688256D01*
X97467921Y-91868284D01*
X97562567Y-92032216D01*
X97562570Y-92032219D01*
X97689224Y-92172884D01*
X97689227Y-92172886D01*
X97689229Y-92172888D01*
X97842370Y-92284151D01*
X98015297Y-92361144D01*
X98200454Y-92400500D01*
X98389746Y-92400500D01*
X98574903Y-92361144D01*
X98747830Y-92284151D01*
X98900971Y-92172888D01*
X99027633Y-92032216D01*
X99122279Y-91868284D01*
X99180774Y-91688256D01*
X99200560Y-91500000D01*
X99180774Y-91311744D01*
X99122279Y-91131716D01*
X99027633Y-90967784D01*
X98997899Y-90934761D01*
X98900975Y-90827115D01*
X98900972Y-90827113D01*
X98849442Y-90789674D01*
X98747830Y-90715849D01*
X98574903Y-90638856D01*
X98574900Y-90638855D01*
X98574896Y-90638854D01*
X98389746Y-90599500D01*
X98200454Y-90599500D01*
X98015303Y-90638854D01*
X98015294Y-90638857D01*
X97884909Y-90696909D01*
X97843013Y-90715563D01*
X97842368Y-90715850D01*
X97687151Y-90828622D01*
X97686292Y-90827440D01*
X97655149Y-90838419D01*
X97621322Y-90822227D01*
X97608853Y-90786857D01*
X97612137Y-90771671D01*
X97800287Y-90289849D01*
X97801091Y-90287915D01*
X98039858Y-89748193D01*
X98040930Y-89745934D01*
X98284109Y-89266521D01*
X98285591Y-89263820D01*
X98532012Y-88846924D01*
X98534114Y-88843672D01*
X98782175Y-88491463D01*
X98785188Y-88487611D01*
X99032620Y-88202077D01*
X99037007Y-88197624D01*
X99280769Y-87979966D01*
X99287104Y-87975176D01*
X99523766Y-87824812D01*
X99532616Y-87820376D01*
X99760397Y-87733773D01*
X99771652Y-87730964D01*
X99993853Y-87702872D01*
X100006145Y-87702872D01*
X100228343Y-87730964D01*
G37*
%TD.AperFunction*%
%TA.AperFunction,NonConductor*%
G36*
X94989057Y-107576241D02*
G01*
X95001500Y-107608869D01*
X95001500Y-121595172D01*
X95001500Y-121694828D01*
X95039636Y-121786897D01*
X95039637Y-121786898D01*
X95039637Y-121786899D01*
X95149054Y-121896315D01*
X95162661Y-121922452D01*
X95167865Y-121951963D01*
X95220850Y-122043736D01*
X95220852Y-122043739D01*
X95302031Y-122111856D01*
X95401614Y-122148100D01*
X95507586Y-122148100D01*
X95607168Y-122111856D01*
X95688347Y-122043739D01*
X95688349Y-122043736D01*
X95741333Y-121951965D01*
X95741333Y-121951964D01*
X95741334Y-121951963D01*
X95759736Y-121847600D01*
X95741334Y-121743237D01*
X95741333Y-121743235D01*
X95741333Y-121743234D01*
X95688349Y-121651463D01*
X95688345Y-121651458D01*
X95607171Y-121583346D01*
X95607166Y-121583343D01*
X95534741Y-121556983D01*
X95507091Y-121531646D01*
X95502500Y-121510938D01*
X95502500Y-120895900D01*
X95516852Y-120861252D01*
X95551500Y-120846900D01*
X95960500Y-120846900D01*
X95995148Y-120861252D01*
X96009500Y-120895900D01*
X96009500Y-120967955D01*
X96009500Y-120967957D01*
X96009501Y-120967958D01*
X96043830Y-121050836D01*
X96043832Y-121050839D01*
X96107261Y-121114268D01*
X96107263Y-121114269D01*
X96107264Y-121114270D01*
X96190145Y-121148600D01*
X96656299Y-121148600D01*
X96690947Y-121162952D01*
X96935385Y-121407390D01*
X96948992Y-121433528D01*
X96961765Y-121505962D01*
X97014750Y-121597736D01*
X97014752Y-121597739D01*
X97095931Y-121665856D01*
X97195514Y-121702100D01*
X97301485Y-121702100D01*
X97301486Y-121702100D01*
X97372880Y-121676115D01*
X97410346Y-121677751D01*
X97435683Y-121705401D01*
X97434047Y-121742868D01*
X97424286Y-121756808D01*
X95150430Y-124030663D01*
X95150430Y-124030665D01*
X95116099Y-124113543D01*
X95116099Y-124208508D01*
X95101747Y-124243156D01*
X95067099Y-124257508D01*
X95032451Y-124243156D01*
X95018211Y-124211816D01*
X94947402Y-123165463D01*
X94947369Y-123164933D01*
X94891802Y-122186539D01*
X94873405Y-121862628D01*
X94873381Y-121862160D01*
X94872709Y-121847600D01*
X94812084Y-120534216D01*
X94812066Y-120533762D01*
X94811239Y-120510594D01*
X94763785Y-119181984D01*
X94763776Y-119181710D01*
X94728855Y-117807618D01*
X94707649Y-116413245D01*
X94707647Y-116413031D01*
X94700503Y-115000196D01*
X94700503Y-114999751D01*
X94700671Y-114966562D01*
X94707647Y-113586964D01*
X94707649Y-113586754D01*
X94728855Y-112192380D01*
X94763777Y-110818280D01*
X94763784Y-110818018D01*
X94812068Y-109466176D01*
X94812087Y-109465725D01*
X94812638Y-109453800D01*
X94873383Y-108137787D01*
X94873408Y-108137318D01*
X94873409Y-108137314D01*
X94903579Y-107606090D01*
X94919872Y-107572312D01*
X94955278Y-107559948D01*
X94989057Y-107576241D01*
G37*
%TD.AperFunction*%
%TA.AperFunction,NonConductor*%
G36*
X104078659Y-120251007D02*
G01*
X104084000Y-120273253D01*
X104084000Y-120782899D01*
X104069648Y-120817547D01*
X103727647Y-121159548D01*
X103692999Y-121173900D01*
X103678714Y-121173900D01*
X103579131Y-121210143D01*
X103497952Y-121278260D01*
X103497950Y-121278263D01*
X103444966Y-121370034D01*
X103426564Y-121474400D01*
X103444966Y-121578765D01*
X103497950Y-121670536D01*
X103497952Y-121670539D01*
X103579131Y-121738656D01*
X103678714Y-121774900D01*
X103784686Y-121774900D01*
X103884268Y-121738656D01*
X103965447Y-121670539D01*
X103965449Y-121670536D01*
X103976461Y-121651462D01*
X104018434Y-121578763D01*
X104031205Y-121506327D01*
X104044811Y-121480192D01*
X104430343Y-121094661D01*
X104430346Y-121094659D01*
X104437235Y-121087770D01*
X104437236Y-121087770D01*
X104492952Y-121032054D01*
X104527600Y-121017702D01*
X104562248Y-121032054D01*
X104576600Y-121066702D01*
X104576600Y-124723800D01*
X104562248Y-124758448D01*
X104527600Y-124772800D01*
X103032900Y-124772800D01*
X102998252Y-124758448D01*
X102983900Y-124723800D01*
X102983900Y-120315014D01*
X102998252Y-120280366D01*
X103032900Y-120266014D01*
X103040550Y-120266615D01*
X103095381Y-120275300D01*
X103858418Y-120275299D01*
X103952204Y-120260446D01*
X104012754Y-120229593D01*
X104050142Y-120226651D01*
X104078659Y-120251007D01*
G37*
%TD.AperFunction*%
%TA.AperFunction,NonConductor*%
G36*
X102586564Y-125401675D02*
G01*
X102587045Y-125400517D01*
X102591502Y-125402363D01*
X102591503Y-125402364D01*
X102683572Y-125440500D01*
X102783228Y-125440500D01*
X102788217Y-125440500D01*
X102822865Y-125454852D01*
X102836274Y-125479938D01*
X102837406Y-125485624D01*
X102843333Y-125515423D01*
X102876595Y-125565204D01*
X102926378Y-125598467D01*
X102970280Y-125607200D01*
X104285199Y-125607200D01*
X104319847Y-125621552D01*
X104334199Y-125656200D01*
X104319847Y-125690848D01*
X103982247Y-126028448D01*
X103947599Y-126042800D01*
X102970276Y-126042800D01*
X102926378Y-126051532D01*
X102876595Y-126084795D01*
X102840652Y-126138590D01*
X102838773Y-126137335D01*
X102818073Y-126158018D01*
X102780570Y-126158002D01*
X102764693Y-126147388D01*
X102531852Y-125914547D01*
X102517500Y-125879899D01*
X102517500Y-125444589D01*
X102531852Y-125409941D01*
X102566500Y-125395589D01*
X102586564Y-125401675D01*
G37*
%TD.AperFunction*%
%TA.AperFunction,NonConductor*%
G36*
X104832398Y-125885401D02*
G01*
X104846750Y-125920049D01*
X104846551Y-125924461D01*
X104782801Y-126629534D01*
X104765387Y-126662750D01*
X104729588Y-126673923D01*
X104696372Y-126656509D01*
X104685000Y-126625122D01*
X104685000Y-126178480D01*
X104684999Y-126178476D01*
X104680926Y-126158002D01*
X104676267Y-126134578D01*
X104643008Y-126084800D01*
X104639593Y-126081386D01*
X104640970Y-126080008D01*
X104624276Y-126055014D01*
X104631598Y-126018233D01*
X104637683Y-126010820D01*
X104763103Y-125885400D01*
X104797750Y-125871049D01*
X104832398Y-125885401D01*
G37*
%TD.AperFunction*%
%TA.AperFunction,NonConductor*%
G36*
X97540042Y-125394728D02*
G01*
X97548300Y-125421951D01*
X97548300Y-127186898D01*
X97533948Y-127221546D01*
X97338106Y-127417387D01*
X97303458Y-127431739D01*
X97268810Y-127417387D01*
X97262689Y-127408228D01*
X97262148Y-127408590D01*
X97226204Y-127354795D01*
X97176421Y-127321532D01*
X97132523Y-127312800D01*
X97132520Y-127312800D01*
X95553480Y-127312800D01*
X95553476Y-127312800D01*
X95509578Y-127321532D01*
X95459795Y-127354795D01*
X95426532Y-127404578D01*
X95417800Y-127448476D01*
X95417800Y-127660771D01*
X95403448Y-127695419D01*
X95368800Y-127709771D01*
X95334152Y-127695419D01*
X95320055Y-127665764D01*
X95296083Y-127431739D01*
X95241958Y-126903348D01*
X95241918Y-126902935D01*
X95226655Y-126734130D01*
X95237828Y-126698332D01*
X95271044Y-126680918D01*
X95294207Y-126684448D01*
X95296745Y-126685500D01*
X95368800Y-126685500D01*
X95403448Y-126699852D01*
X95417800Y-126734500D01*
X95417800Y-126741523D01*
X95426532Y-126785421D01*
X95459795Y-126835204D01*
X95509578Y-126868467D01*
X95553480Y-126877200D01*
X97132520Y-126877200D01*
X97176422Y-126868467D01*
X97226204Y-126835204D01*
X97259467Y-126785422D01*
X97268200Y-126741520D01*
X97268200Y-126178480D01*
X97259467Y-126134578D01*
X97226207Y-126084800D01*
X97226204Y-126084795D01*
X97176421Y-126051532D01*
X97132523Y-126042800D01*
X97132520Y-126042800D01*
X95616100Y-126042800D01*
X95581452Y-126028448D01*
X95567100Y-125993800D01*
X95567100Y-125656200D01*
X95581452Y-125621552D01*
X95616100Y-125607200D01*
X97132520Y-125607200D01*
X97176422Y-125598467D01*
X97226204Y-125565204D01*
X97259467Y-125515422D01*
X97268200Y-125471520D01*
X97268200Y-125464500D01*
X97282552Y-125429852D01*
X97317200Y-125415500D01*
X97389253Y-125415500D01*
X97389255Y-125415500D01*
X97472136Y-125381170D01*
X97472136Y-125381169D01*
X97476595Y-125379323D01*
X97476972Y-125380235D01*
X97508859Y-125373892D01*
X97540042Y-125394728D01*
G37*
%TD.AperFunction*%
%TA.AperFunction,NonConductor*%
G36*
X98933607Y-121811252D02*
G01*
X98947959Y-121845900D01*
X98941394Y-121870400D01*
X98932366Y-121886035D01*
X98913964Y-121990400D01*
X98932366Y-122094765D01*
X98985350Y-122186536D01*
X98985352Y-122186539D01*
X99066531Y-122254656D01*
X99118550Y-122273588D01*
X99151723Y-122285662D01*
X99179374Y-122310998D01*
X99181010Y-122348465D01*
X99160977Y-122372342D01*
X99161016Y-122372388D01*
X99160755Y-122372606D01*
X99159469Y-122374140D01*
X99157733Y-122375142D01*
X99076552Y-122443260D01*
X99076550Y-122443263D01*
X99023566Y-122535034D01*
X99005164Y-122639400D01*
X99023566Y-122743765D01*
X99059307Y-122805668D01*
X99076552Y-122835538D01*
X99076553Y-122835538D01*
X99078235Y-122838452D01*
X99084800Y-122862952D01*
X99084800Y-129033199D01*
X99070448Y-129067847D01*
X99035800Y-129082199D01*
X99001152Y-129067847D01*
X97697953Y-127764648D01*
X97683601Y-127730000D01*
X97697953Y-127695352D01*
X97964968Y-127428338D01*
X97964968Y-127428337D01*
X97964970Y-127428336D01*
X97999300Y-127345455D01*
X97999300Y-127255746D01*
X97999300Y-125287452D01*
X98005865Y-125262952D01*
X98007546Y-125260038D01*
X98007548Y-125260038D01*
X98060534Y-125168263D01*
X98078936Y-125063900D01*
X98060534Y-124959537D01*
X98060533Y-124959535D01*
X98060533Y-124959534D01*
X98007549Y-124867763D01*
X98007547Y-124867760D01*
X97926368Y-124799643D01*
X97826786Y-124763400D01*
X97720814Y-124763400D01*
X97635658Y-124794393D01*
X97598191Y-124792757D01*
X97572855Y-124765106D01*
X97569900Y-124748348D01*
X97569900Y-124319152D01*
X97576465Y-124294652D01*
X97578146Y-124291738D01*
X97578148Y-124291738D01*
X97629232Y-124203257D01*
X97631133Y-124199965D01*
X97631133Y-124199964D01*
X97631134Y-124199963D01*
X97649536Y-124095600D01*
X97631134Y-123991237D01*
X97631133Y-123991235D01*
X97631133Y-123991234D01*
X97578149Y-123899463D01*
X97578147Y-123899460D01*
X97496968Y-123831343D01*
X97397386Y-123795100D01*
X97291414Y-123795100D01*
X97191831Y-123831343D01*
X97110652Y-123899460D01*
X97110650Y-123899463D01*
X97057666Y-123991234D01*
X97039264Y-124095600D01*
X97057666Y-124199965D01*
X97082603Y-124243156D01*
X97110652Y-124291738D01*
X97110653Y-124291738D01*
X97112335Y-124294652D01*
X97118900Y-124319152D01*
X97118900Y-124723800D01*
X97104548Y-124758448D01*
X97069900Y-124772800D01*
X95616100Y-124772800D01*
X95581452Y-124758448D01*
X95567100Y-124723800D01*
X95567100Y-124272101D01*
X95581452Y-124237453D01*
X98007653Y-121811252D01*
X98042301Y-121796900D01*
X98898959Y-121796900D01*
X98933607Y-121811252D01*
G37*
%TD.AperFunction*%
%TA.AperFunction,NonConductor*%
G36*
X97338106Y-128042611D02*
G01*
X98641248Y-129345753D01*
X98655600Y-129380401D01*
X98655600Y-129386546D01*
X98649035Y-129411046D01*
X98594366Y-129505734D01*
X98575964Y-129610100D01*
X98594366Y-129714465D01*
X98647350Y-129806236D01*
X98647352Y-129806239D01*
X98728531Y-129874356D01*
X98743961Y-129879971D01*
X98763820Y-129887199D01*
X98791471Y-129912534D01*
X98793107Y-129950002D01*
X98778559Y-129970780D01*
X98719352Y-130020460D01*
X98719350Y-130020463D01*
X98666365Y-130112236D01*
X98665461Y-130114722D01*
X98640122Y-130142371D01*
X98602655Y-130144004D01*
X98584769Y-130132608D01*
X97282552Y-128830391D01*
X97268200Y-128795743D01*
X97268200Y-128718480D01*
X97268199Y-128718476D01*
X97259467Y-128674578D01*
X97226204Y-128624795D01*
X97176421Y-128591532D01*
X97132523Y-128582800D01*
X97132520Y-128582800D01*
X95553480Y-128582800D01*
X95553476Y-128582800D01*
X95509580Y-128591532D01*
X95509578Y-128591532D01*
X95509578Y-128591533D01*
X95496859Y-128600031D01*
X95494266Y-128601764D01*
X95457483Y-128609079D01*
X95426301Y-128588243D01*
X95418366Y-128566622D01*
X95368809Y-128135681D01*
X95379108Y-128099621D01*
X95411890Y-128081405D01*
X95447951Y-128091704D01*
X95458230Y-128102861D01*
X95459796Y-128105205D01*
X95496689Y-128129855D01*
X95509578Y-128138467D01*
X95553480Y-128147200D01*
X97132520Y-128147200D01*
X97176422Y-128138467D01*
X97226204Y-128105204D01*
X97235224Y-128091704D01*
X97262148Y-128051410D01*
X97264033Y-128052669D01*
X97284686Y-128031997D01*
X97322189Y-128031981D01*
X97338106Y-128042611D01*
G37*
%TD.AperFunction*%
%TA.AperFunction,NonConductor*%
G36*
X100086548Y-120166808D02*
G01*
X101654348Y-121734608D01*
X101668700Y-121769256D01*
X101668700Y-130645194D01*
X101654348Y-130679842D01*
X101619700Y-130694194D01*
X101597455Y-130688854D01*
X101529667Y-130654315D01*
X101500304Y-130639354D01*
X101406519Y-130624500D01*
X101406517Y-130624500D01*
X101337000Y-130624500D01*
X101302352Y-130610148D01*
X101288000Y-130575500D01*
X101288000Y-128074451D01*
X101294565Y-128049951D01*
X101324233Y-127998565D01*
X101324233Y-127998564D01*
X101324234Y-127998563D01*
X101342636Y-127894200D01*
X101324234Y-127789837D01*
X101324233Y-127789835D01*
X101324233Y-127789834D01*
X101271249Y-127698063D01*
X101271247Y-127698060D01*
X101190068Y-127629943D01*
X101090486Y-127593700D01*
X100984514Y-127593700D01*
X100884931Y-127629943D01*
X100803752Y-127698060D01*
X100803750Y-127698063D01*
X100750766Y-127789834D01*
X100732364Y-127894200D01*
X100750766Y-127998565D01*
X100780435Y-128049951D01*
X100787000Y-128074451D01*
X100787000Y-130575500D01*
X100772648Y-130610148D01*
X100738001Y-130624500D01*
X100668482Y-130624500D01*
X100574696Y-130639353D01*
X100461664Y-130696945D01*
X100461657Y-130696950D01*
X100371950Y-130786657D01*
X100371945Y-130786664D01*
X100314355Y-130899690D01*
X100314355Y-130899692D01*
X100299500Y-130993482D01*
X100299500Y-132006517D01*
X100314353Y-132100303D01*
X100371945Y-132213335D01*
X100371950Y-132213342D01*
X100461657Y-132303049D01*
X100461664Y-132303054D01*
X100574691Y-132360644D01*
X100574692Y-132360644D01*
X100574696Y-132360646D01*
X100668481Y-132375500D01*
X100737999Y-132375499D01*
X100772648Y-132389850D01*
X100787000Y-132424498D01*
X100787000Y-132545342D01*
X100772648Y-132579990D01*
X99176728Y-134175909D01*
X99142080Y-134190261D01*
X99122150Y-134186025D01*
X98990433Y-134127382D01*
X98990431Y-134127381D01*
X98990428Y-134127380D01*
X98990424Y-134127379D01*
X98802808Y-134087500D01*
X98610992Y-134087500D01*
X98423375Y-134127379D01*
X98423366Y-134127382D01*
X98248135Y-134205400D01*
X98092953Y-134318146D01*
X98092950Y-134318148D01*
X97974514Y-134449687D01*
X97940665Y-134465833D01*
X97905313Y-134453314D01*
X97889167Y-134419465D01*
X97889100Y-134416900D01*
X97889100Y-132947956D01*
X97903451Y-132913309D01*
X98445652Y-132371107D01*
X98480299Y-132356756D01*
X98495696Y-132360462D01*
X98496024Y-132359453D01*
X98499692Y-132360644D01*
X98499696Y-132360646D01*
X98593481Y-132375500D01*
X99331518Y-132375499D01*
X99425304Y-132360646D01*
X99528231Y-132308202D01*
X99538335Y-132303054D01*
X99538337Y-132303052D01*
X99538342Y-132303050D01*
X99628050Y-132213342D01*
X99628054Y-132213335D01*
X99685644Y-132100309D01*
X99685644Y-132100307D01*
X99685646Y-132100304D01*
X99700500Y-132006519D01*
X99700499Y-130993482D01*
X99685646Y-130899696D01*
X99685643Y-130899690D01*
X99628054Y-130786664D01*
X99628049Y-130786657D01*
X99538342Y-130696950D01*
X99538334Y-130696944D01*
X99535146Y-130695320D01*
X99510791Y-130666802D01*
X99513735Y-130629415D01*
X99522742Y-130617017D01*
X99887404Y-130252354D01*
X99887407Y-130252353D01*
X99894296Y-130245464D01*
X99894297Y-130245464D01*
X99964764Y-130174997D01*
X100002900Y-130082928D01*
X100002900Y-129012983D01*
X100017252Y-128978335D01*
X100051900Y-128963983D01*
X100068655Y-128966937D01*
X100139714Y-128992800D01*
X100139715Y-128992800D01*
X100245686Y-128992800D01*
X100345268Y-128956556D01*
X100426447Y-128888439D01*
X100426449Y-128888436D01*
X100479433Y-128796665D01*
X100479433Y-128796664D01*
X100479434Y-128796663D01*
X100497836Y-128692300D01*
X100479434Y-128587937D01*
X100467126Y-128566619D01*
X100449765Y-128536547D01*
X100443200Y-128512047D01*
X100443200Y-127526856D01*
X100457551Y-127492209D01*
X100738824Y-127210935D01*
X100756709Y-127199541D01*
X100844868Y-127167456D01*
X100901374Y-127120042D01*
X100926045Y-127099341D01*
X100926046Y-127099339D01*
X100926048Y-127099338D01*
X100979034Y-127007563D01*
X100997436Y-126903200D01*
X100979034Y-126798837D01*
X100979033Y-126798835D01*
X100979033Y-126798834D01*
X100926049Y-126707063D01*
X100926047Y-126707060D01*
X100844868Y-126638943D01*
X100745286Y-126602700D01*
X100639314Y-126602700D01*
X100539731Y-126638943D01*
X100458552Y-126707060D01*
X100458550Y-126707063D01*
X100405565Y-126798837D01*
X100400362Y-126828344D01*
X100386755Y-126854482D01*
X100086548Y-127154690D01*
X100051900Y-127169042D01*
X100017252Y-127154690D01*
X100002900Y-127120042D01*
X100002900Y-120201456D01*
X100017252Y-120166808D01*
X100051900Y-120152456D01*
X100086548Y-120166808D01*
G37*
%TD.AperFunction*%
%TA.AperFunction,NonConductor*%
G36*
X97135072Y-129418562D02*
G01*
X97167139Y-129424863D01*
X97174660Y-129431021D01*
X98378975Y-130635336D01*
X98393327Y-130669984D01*
X98378975Y-130704632D01*
X98296951Y-130786656D01*
X98296945Y-130786664D01*
X98239355Y-130899690D01*
X98239355Y-130899692D01*
X98224500Y-130993482D01*
X98224500Y-131863442D01*
X98210148Y-131898090D01*
X97496703Y-132611536D01*
X97426237Y-132682000D01*
X97426237Y-132682001D01*
X97388100Y-132774070D01*
X97388100Y-137872029D01*
X97399029Y-137898413D01*
X97426236Y-137964097D01*
X97426237Y-137964098D01*
X97426237Y-137964099D01*
X97500932Y-138038793D01*
X97515284Y-138073441D01*
X97508720Y-138097939D01*
X97489224Y-138131710D01*
X97489221Y-138131715D01*
X97430726Y-138311743D01*
X97420959Y-138404671D01*
X97403063Y-138437629D01*
X97367105Y-138448281D01*
X97334147Y-138430385D01*
X97325450Y-138414142D01*
X97117318Y-137746990D01*
X97116961Y-137745781D01*
X96903108Y-136985406D01*
X96902798Y-136984246D01*
X96883773Y-136909492D01*
X96696468Y-136173533D01*
X96696239Y-136172589D01*
X96497844Y-135313320D01*
X96497637Y-135312377D01*
X96472126Y-135190764D01*
X96307602Y-134406475D01*
X96307455Y-134405743D01*
X96126139Y-133454861D01*
X96125997Y-133454078D01*
X96032311Y-132913308D01*
X95953816Y-132460225D01*
X95953713Y-132459601D01*
X95790992Y-131424267D01*
X95790917Y-131423772D01*
X95638050Y-130348934D01*
X95637962Y-130348278D01*
X95625663Y-130252353D01*
X95525663Y-129472431D01*
X95535492Y-129436240D01*
X95568033Y-129417598D01*
X95574265Y-129417200D01*
X97132520Y-129417200D01*
X97134915Y-129416964D01*
X97135072Y-129418562D01*
G37*
%TD.AperFunction*%
%TA.AperFunction,NonConductor*%
G36*
X102253348Y-126273853D02*
G01*
X102564434Y-126584939D01*
X102564437Y-126584943D01*
X102630661Y-126651168D01*
X102630663Y-126651169D01*
X102630664Y-126651170D01*
X102713545Y-126685500D01*
X102785600Y-126685500D01*
X102820248Y-126699852D01*
X102834600Y-126734500D01*
X102834600Y-126741523D01*
X102843332Y-126785421D01*
X102876595Y-126835204D01*
X102926378Y-126868467D01*
X102970280Y-126877200D01*
X104130440Y-126877200D01*
X104165088Y-126891552D01*
X104179440Y-126926200D01*
X104178695Y-126934710D01*
X104166992Y-127001070D01*
X104153385Y-127027208D01*
X103882147Y-127298448D01*
X103847499Y-127312800D01*
X102970276Y-127312800D01*
X102926378Y-127321532D01*
X102876595Y-127354795D01*
X102843332Y-127404578D01*
X102834600Y-127448476D01*
X102834600Y-128011523D01*
X102843332Y-128055421D01*
X102876595Y-128105204D01*
X102913489Y-128129855D01*
X102926378Y-128138467D01*
X102970280Y-128147200D01*
X104037267Y-128147200D01*
X104071915Y-128161552D01*
X104086267Y-128196200D01*
X104076529Y-128222949D01*
X104077395Y-128223449D01*
X104022265Y-128318937D01*
X104009492Y-128391370D01*
X103995885Y-128417508D01*
X103844947Y-128568448D01*
X103810299Y-128582800D01*
X102970276Y-128582800D01*
X102926378Y-128591532D01*
X102876595Y-128624795D01*
X102843332Y-128674578D01*
X102834600Y-128718476D01*
X102834600Y-129281523D01*
X102843332Y-129325421D01*
X102876595Y-129375204D01*
X102924244Y-129407041D01*
X102926378Y-129408467D01*
X102970280Y-129417200D01*
X104425733Y-129417200D01*
X104460381Y-129431552D01*
X104474733Y-129466200D01*
X104474335Y-129472432D01*
X104362036Y-130348269D01*
X104361946Y-130348936D01*
X104209095Y-131423666D01*
X104208989Y-131424375D01*
X104046295Y-132459526D01*
X104046170Y-132460282D01*
X103874000Y-133454078D01*
X103873852Y-133454892D01*
X103692556Y-134405671D01*
X103692379Y-134406553D01*
X103502364Y-135312364D01*
X103502152Y-135313328D01*
X103303761Y-136172574D01*
X103303503Y-136173635D01*
X103097204Y-136984230D01*
X103096888Y-136985411D01*
X102883054Y-137745719D01*
X102882661Y-137747046D01*
X102699083Y-138335494D01*
X102675063Y-138364296D01*
X102637713Y-138367678D01*
X102608911Y-138343658D01*
X102603574Y-138326025D01*
X102602074Y-138311744D01*
X102543579Y-138131716D01*
X102448933Y-137967784D01*
X102386471Y-137898413D01*
X102322275Y-137827115D01*
X102322272Y-137827113D01*
X102319462Y-137825071D01*
X102169130Y-137715849D01*
X101996203Y-137638856D01*
X101996200Y-137638855D01*
X101996196Y-137638854D01*
X101811046Y-137599500D01*
X101621754Y-137599500D01*
X101436603Y-137638854D01*
X101436594Y-137638857D01*
X101263668Y-137715850D01*
X101110527Y-137827113D01*
X101110524Y-137827115D01*
X100983870Y-137967780D01*
X100983864Y-137967788D01*
X100889223Y-138131712D01*
X100889221Y-138131715D01*
X100830726Y-138311743D01*
X100810940Y-138500000D01*
X100830726Y-138688256D01*
X100868738Y-138805244D01*
X100865795Y-138842632D01*
X100837278Y-138866988D01*
X100799890Y-138864045D01*
X100778476Y-138842631D01*
X100754951Y-138796460D01*
X100754949Y-138796457D01*
X100665242Y-138706750D01*
X100665235Y-138706745D01*
X100552208Y-138649155D01*
X100552205Y-138649154D01*
X100552204Y-138649154D01*
X100458419Y-138634300D01*
X100458417Y-138634300D01*
X99495382Y-138634300D01*
X99401596Y-138649153D01*
X99288564Y-138706745D01*
X99288557Y-138706750D01*
X99287583Y-138707725D01*
X99286731Y-138708077D01*
X99285443Y-138709014D01*
X99285217Y-138708704D01*
X99252932Y-138722072D01*
X99218286Y-138707716D01*
X99203939Y-138673065D01*
X99204205Y-138667972D01*
X99221860Y-138500000D01*
X99202074Y-138311744D01*
X99143579Y-138131716D01*
X99048933Y-137967784D01*
X98986471Y-137898413D01*
X98922275Y-137827115D01*
X98922272Y-137827113D01*
X98919462Y-137825071D01*
X98769130Y-137715849D01*
X98596203Y-137638856D01*
X98596200Y-137638855D01*
X98596196Y-137638854D01*
X98411046Y-137599500D01*
X98221754Y-137599500D01*
X98036597Y-137638856D01*
X97958030Y-137673836D01*
X97920540Y-137674817D01*
X97893336Y-137649002D01*
X97889100Y-137629072D01*
X97889100Y-135583099D01*
X97903452Y-135548451D01*
X97938100Y-135534099D01*
X97972748Y-135548451D01*
X97974514Y-135550312D01*
X98092950Y-135681851D01*
X98092953Y-135681853D01*
X98092955Y-135681855D01*
X98248137Y-135794601D01*
X98423369Y-135872619D01*
X98610992Y-135912500D01*
X98802808Y-135912500D01*
X98990431Y-135872619D01*
X99122151Y-135813972D01*
X99159640Y-135812992D01*
X99176728Y-135824089D01*
X99712048Y-136359409D01*
X99726400Y-136394057D01*
X99726400Y-136585300D01*
X99712048Y-136619948D01*
X99677400Y-136634300D01*
X99495382Y-136634300D01*
X99401596Y-136649153D01*
X99288564Y-136706745D01*
X99288557Y-136706750D01*
X99198850Y-136796457D01*
X99198845Y-136796464D01*
X99141255Y-136909490D01*
X99141255Y-136909492D01*
X99141254Y-136909494D01*
X99141254Y-136909496D01*
X99129228Y-136985427D01*
X99126400Y-137003282D01*
X99126400Y-137766317D01*
X99141253Y-137860103D01*
X99198845Y-137973135D01*
X99198850Y-137973142D01*
X99288557Y-138062849D01*
X99288564Y-138062854D01*
X99401591Y-138120444D01*
X99401592Y-138120444D01*
X99401596Y-138120446D01*
X99495381Y-138135300D01*
X100458418Y-138135299D01*
X100552204Y-138120446D01*
X100613287Y-138089322D01*
X100665235Y-138062854D01*
X100665237Y-138062852D01*
X100665242Y-138062850D01*
X100754950Y-137973142D01*
X100757680Y-137967784D01*
X100812544Y-137860109D01*
X100812544Y-137860107D01*
X100812546Y-137860104D01*
X100827400Y-137766319D01*
X100827399Y-137003282D01*
X100812546Y-136909496D01*
X100812543Y-136909490D01*
X100754954Y-136796464D01*
X100754949Y-136796457D01*
X100665242Y-136706750D01*
X100665235Y-136706745D01*
X100552208Y-136649155D01*
X100552205Y-136649154D01*
X100552204Y-136649154D01*
X100458419Y-136634300D01*
X100458417Y-136634300D01*
X100276400Y-136634300D01*
X100241752Y-136619948D01*
X100227400Y-136585300D01*
X100227400Y-136220174D01*
X100227399Y-136220170D01*
X100189264Y-136128103D01*
X100189262Y-136128101D01*
X100189262Y-136128100D01*
X100118797Y-136057636D01*
X99531150Y-135469989D01*
X99516798Y-135435341D01*
X99523363Y-135410842D01*
X99545102Y-135373191D01*
X99604376Y-135190764D01*
X99624426Y-135000000D01*
X99604376Y-134809236D01*
X99545102Y-134626809D01*
X99523362Y-134589156D01*
X99518467Y-134551975D01*
X99531148Y-134530011D01*
X101249864Y-132811297D01*
X101288000Y-132719228D01*
X101288000Y-132619572D01*
X101288000Y-132424498D01*
X101302352Y-132389851D01*
X101337000Y-132375499D01*
X101406517Y-132375499D01*
X101406518Y-132375499D01*
X101500304Y-132360646D01*
X101597454Y-132311144D01*
X101634842Y-132308202D01*
X101663359Y-132332558D01*
X101668700Y-132354804D01*
X101668700Y-134113488D01*
X101654348Y-134148136D01*
X101619700Y-134162488D01*
X101599771Y-134158252D01*
X101530437Y-134127383D01*
X101530424Y-134127379D01*
X101342808Y-134087500D01*
X101150992Y-134087500D01*
X100963375Y-134127379D01*
X100963366Y-134127382D01*
X100788135Y-134205400D01*
X100632953Y-134318146D01*
X100632950Y-134318148D01*
X100504609Y-134460688D01*
X100504603Y-134460696D01*
X100408700Y-134626805D01*
X100408698Y-134626808D01*
X100408698Y-134626809D01*
X100349424Y-134809236D01*
X100329374Y-135000000D01*
X100349424Y-135190764D01*
X100408698Y-135373191D01*
X100445073Y-135436194D01*
X100501598Y-135534099D01*
X100504606Y-135539308D01*
X100514514Y-135550312D01*
X100632950Y-135681851D01*
X100632953Y-135681853D01*
X100632955Y-135681855D01*
X100788137Y-135794601D01*
X100963369Y-135872619D01*
X101150992Y-135912500D01*
X101342808Y-135912500D01*
X101530431Y-135872619D01*
X101705663Y-135794601D01*
X101860845Y-135681855D01*
X101989194Y-135539308D01*
X102085102Y-135373191D01*
X102144376Y-135190764D01*
X102164426Y-135000000D01*
X102144376Y-134809236D01*
X102085102Y-134626809D01*
X102063364Y-134589157D01*
X102058469Y-134551974D01*
X102071148Y-134530012D01*
X102131564Y-134469597D01*
X102142734Y-134442630D01*
X102169701Y-134377528D01*
X102169701Y-134277872D01*
X102169701Y-134273929D01*
X102169700Y-134273915D01*
X102169700Y-126308501D01*
X102184052Y-126273853D01*
X102218700Y-126259501D01*
X102253348Y-126273853D01*
G37*
%TD.AperFunction*%
%TA.AperFunction,NonConductor*%
G36*
X99110187Y-139037415D02*
G01*
X99126333Y-139071264D01*
X99126400Y-139073829D01*
X99126400Y-139766317D01*
X99141253Y-139860103D01*
X99198845Y-139973135D01*
X99198850Y-139973142D01*
X99288557Y-140062849D01*
X99288564Y-140062854D01*
X99401591Y-140120444D01*
X99401592Y-140120444D01*
X99401596Y-140120446D01*
X99495381Y-140135300D01*
X100458418Y-140135299D01*
X100552204Y-140120446D01*
X100613287Y-140089322D01*
X100665235Y-140062854D01*
X100665237Y-140062852D01*
X100665242Y-140062850D01*
X100754950Y-139973142D01*
X100791408Y-139901590D01*
X100812544Y-139860109D01*
X100812544Y-139860107D01*
X100812546Y-139860104D01*
X100827400Y-139766319D01*
X100827400Y-139659301D01*
X100841752Y-139624653D01*
X100871905Y-139612162D01*
X100871722Y-139611242D01*
X100876351Y-139610321D01*
X100876400Y-139610301D01*
X100876453Y-139610301D01*
X100876455Y-139610301D01*
X100935060Y-139586025D01*
X100951764Y-139579106D01*
X100959332Y-139575972D01*
X100959333Y-139575971D01*
X100959336Y-139575970D01*
X101022770Y-139512536D01*
X101022770Y-139512535D01*
X101029659Y-139505646D01*
X101029661Y-139505643D01*
X101231197Y-139304106D01*
X101265844Y-139289755D01*
X101285766Y-139293989D01*
X101436597Y-139361144D01*
X101621754Y-139400500D01*
X101811046Y-139400500D01*
X101996203Y-139361144D01*
X102169130Y-139284151D01*
X102308804Y-139182671D01*
X102345270Y-139173917D01*
X102377247Y-139193513D01*
X102386002Y-139229979D01*
X102383248Y-139240138D01*
X102199724Y-139710114D01*
X102198892Y-139712114D01*
X101960158Y-140251762D01*
X101959047Y-140254104D01*
X101715905Y-140733443D01*
X101714387Y-140736210D01*
X101467991Y-141153064D01*
X101465870Y-141156346D01*
X101217829Y-141508523D01*
X101214799Y-141512397D01*
X100967378Y-141797919D01*
X100962983Y-141802380D01*
X100719242Y-142020019D01*
X100712883Y-142024827D01*
X100476238Y-142175180D01*
X100467375Y-142179623D01*
X100239606Y-142266222D01*
X100228338Y-142269034D01*
X100006145Y-142297126D01*
X99993853Y-142297126D01*
X99771659Y-142269034D01*
X99760391Y-142266222D01*
X99532623Y-142179624D01*
X99523760Y-142175181D01*
X99419029Y-142108640D01*
X99287112Y-142024826D01*
X99280761Y-142020024D01*
X99037015Y-141802380D01*
X99037011Y-141802376D01*
X99032616Y-141797915D01*
X98785197Y-141512397D01*
X98782167Y-141508523D01*
X98709230Y-141404964D01*
X98534122Y-141156336D01*
X98532003Y-141153058D01*
X98419023Y-140961918D01*
X98285599Y-140736190D01*
X98284103Y-140733463D01*
X98040937Y-140254077D01*
X98039852Y-140251789D01*
X97801098Y-139712097D01*
X97800273Y-139710114D01*
X97766901Y-139624653D01*
X97596300Y-139187768D01*
X97597065Y-139150274D01*
X97624119Y-139124303D01*
X97661615Y-139125068D01*
X97678358Y-139137158D01*
X97710529Y-139172888D01*
X97863670Y-139284151D01*
X98036597Y-139361144D01*
X98221754Y-139400500D01*
X98411046Y-139400500D01*
X98596203Y-139361144D01*
X98769130Y-139284151D01*
X98922271Y-139172888D01*
X98965329Y-139125068D01*
X99040986Y-139041042D01*
X99074835Y-139024896D01*
X99110187Y-139037415D01*
G37*
%TD.AperFunction*%
M02*
