%TF.GenerationSoftware,KiCad,Pcbnew,8.0.0*%
%TF.CreationDate,2024-06-05T20:58:04+05:30*%
%TF.ProjectId,version1,76657273-696f-46e3-912e-6b696361645f,rev?*%
%TF.SameCoordinates,Original*%
%TF.FileFunction,Soldermask,Bot*%
%TF.FilePolarity,Negative*%
%FSLAX46Y46*%
G04 Gerber Fmt 4.6, Leading zero omitted, Abs format (unit mm)*
G04 Created by KiCad (PCBNEW 8.0.0) date 2024-06-05 20:58:04*
%MOMM*%
%LPD*%
G01*
G04 APERTURE LIST*
G04 Aperture macros list*
%AMRoundRect*
0 Rectangle with rounded corners*
0 $1 Rounding radius*
0 $2 $3 $4 $5 $6 $7 $8 $9 X,Y pos of 4 corners*
0 Add a 4 corners polygon primitive as box body*
4,1,4,$2,$3,$4,$5,$6,$7,$8,$9,$2,$3,0*
0 Add four circle primitives for the rounded corners*
1,1,$1+$1,$2,$3*
1,1,$1+$1,$4,$5*
1,1,$1+$1,$6,$7*
1,1,$1+$1,$8,$9*
0 Add four rect primitives between the rounded corners*
20,1,$1+$1,$2,$3,$4,$5,0*
20,1,$1+$1,$4,$5,$6,$7,0*
20,1,$1+$1,$6,$7,$8,$9,0*
20,1,$1+$1,$8,$9,$2,$3,0*%
G04 Aperture macros list end*
%ADD10R,1.700000X1.700000*%
%ADD11O,1.700000X1.700000*%
%ADD12C,1.500000*%
%ADD13C,1.524000*%
%ADD14RoundRect,0.250000X0.350000X0.450000X-0.350000X0.450000X-0.350000X-0.450000X0.350000X-0.450000X0*%
%ADD15RoundRect,0.250000X0.450000X-0.325000X0.450000X0.325000X-0.450000X0.325000X-0.450000X-0.325000X0*%
%ADD16RoundRect,0.250000X-0.350000X-0.450000X0.350000X-0.450000X0.350000X0.450000X-0.350000X0.450000X0*%
%ADD17RoundRect,0.102000X0.985000X0.300000X-0.985000X0.300000X-0.985000X-0.300000X0.985000X-0.300000X0*%
%ADD18RoundRect,0.102000X-0.700000X0.500000X-0.700000X-0.500000X0.700000X-0.500000X0.700000X0.500000X0*%
G04 APERTURE END LIST*
D10*
%TO.C,J2*%
X97619200Y-108000000D03*
D11*
X97619200Y-105460000D03*
X100159200Y-108000000D03*
X100159200Y-105460000D03*
X102699200Y-108000000D03*
X102699200Y-105460000D03*
%TD*%
D12*
%TO.C,L2*%
X98333100Y-114967900D03*
X101733100Y-114967900D03*
%TD*%
%TO.C,L3*%
X98316400Y-138500000D03*
X101716400Y-138500000D03*
%TD*%
D13*
%TO.C,BT1*%
X98706900Y-135000000D03*
X101246900Y-135000000D03*
%TD*%
D12*
%TO.C,L1*%
X98295100Y-91500000D03*
X101695100Y-91500000D03*
%TD*%
D10*
%TO.C,J3*%
X98730000Y-95500000D03*
D11*
X101270000Y-95500000D03*
%TD*%
D13*
%TO.C,SW2*%
X97460000Y-100477600D03*
X100000000Y-100477600D03*
X102540000Y-100477600D03*
%TD*%
D14*
%TO.C,R2*%
X102976900Y-122500000D03*
X100976900Y-122500000D03*
%TD*%
D15*
%TO.C,D1*%
X96376900Y-116449800D03*
X96376900Y-114399800D03*
%TD*%
D16*
%TO.C,R1*%
X96708200Y-125500000D03*
X98708200Y-125500000D03*
%TD*%
D14*
%TO.C,R6*%
X102976900Y-119500000D03*
X100976900Y-119500000D03*
%TD*%
D13*
%TO.C,M1*%
X98810000Y-117200000D03*
X101350000Y-117200000D03*
%TD*%
D17*
%TO.C,U1*%
X97526900Y-127690000D03*
X97526900Y-128960000D03*
X97526900Y-130230000D03*
X97526900Y-131500000D03*
X102476900Y-131500000D03*
X102476900Y-130230000D03*
X102476900Y-128960000D03*
X102476900Y-127690000D03*
%TD*%
D18*
%TO.C,Q2*%
X98512100Y-119286500D03*
X98512100Y-121186500D03*
X96312100Y-120236500D03*
%TD*%
D13*
%TO.C,M2*%
X101300000Y-112800000D03*
X98760000Y-112800000D03*
%TD*%
D15*
%TO.C,D2*%
X103635700Y-116451600D03*
X103635700Y-114401600D03*
%TD*%
D14*
%TO.C,R3*%
X102976900Y-125500000D03*
X100976900Y-125500000D03*
%TD*%
M02*
