%TF.GenerationSoftware,KiCad,Pcbnew,8.0.0*%
%TF.CreationDate,2024-06-05T20:58:04+05:30*%
%TF.ProjectId,version1,76657273-696f-46e3-912e-6b696361645f,rev?*%
%TF.SameCoordinates,Original*%
%TF.FileFunction,Copper,L2,Bot*%
%TF.FilePolarity,Positive*%
%FSLAX46Y46*%
G04 Gerber Fmt 4.6, Leading zero omitted, Abs format (unit mm)*
G04 Created by KiCad (PCBNEW 8.0.0) date 2024-06-05 20:58:04*
%MOMM*%
%LPD*%
G01*
G04 APERTURE LIST*
G04 Aperture macros list*
%AMRoundRect*
0 Rectangle with rounded corners*
0 $1 Rounding radius*
0 $2 $3 $4 $5 $6 $7 $8 $9 X,Y pos of 4 corners*
0 Add a 4 corners polygon primitive as box body*
4,1,4,$2,$3,$4,$5,$6,$7,$8,$9,$2,$3,0*
0 Add four circle primitives for the rounded corners*
1,1,$1+$1,$2,$3*
1,1,$1+$1,$4,$5*
1,1,$1+$1,$6,$7*
1,1,$1+$1,$8,$9*
0 Add four rect primitives between the rounded corners*
20,1,$1+$1,$2,$3,$4,$5,0*
20,1,$1+$1,$4,$5,$6,$7,0*
20,1,$1+$1,$6,$7,$8,$9,0*
20,1,$1+$1,$8,$9,$2,$3,0*%
G04 Aperture macros list end*
%TA.AperFunction,ComponentPad*%
%ADD10R,1.700000X1.700000*%
%TD*%
%TA.AperFunction,ComponentPad*%
%ADD11O,1.700000X1.700000*%
%TD*%
%TA.AperFunction,ComponentPad*%
%ADD12C,1.500000*%
%TD*%
%TA.AperFunction,ComponentPad*%
%ADD13C,1.524000*%
%TD*%
%TA.AperFunction,SMDPad,CuDef*%
%ADD14RoundRect,0.250000X0.350000X0.450000X-0.350000X0.450000X-0.350000X-0.450000X0.350000X-0.450000X0*%
%TD*%
%TA.AperFunction,SMDPad,CuDef*%
%ADD15RoundRect,0.250000X0.450000X-0.325000X0.450000X0.325000X-0.450000X0.325000X-0.450000X-0.325000X0*%
%TD*%
%TA.AperFunction,SMDPad,CuDef*%
%ADD16RoundRect,0.250000X-0.350000X-0.450000X0.350000X-0.450000X0.350000X0.450000X-0.350000X0.450000X0*%
%TD*%
%TA.AperFunction,SMDPad,CuDef*%
%ADD17R,1.970000X0.600000*%
%TD*%
%TA.AperFunction,SMDPad,CuDef*%
%ADD18R,1.400000X1.000000*%
%TD*%
%TA.AperFunction,ViaPad*%
%ADD19C,0.300000*%
%TD*%
%TA.AperFunction,Conductor*%
%ADD20C,0.200000*%
%TD*%
%TA.AperFunction,Conductor*%
%ADD21C,0.150000*%
%TD*%
G04 APERTURE END LIST*
D10*
%TO.P,J2,1,MISO*%
%TO.N,/PB1*%
X97619200Y-108000000D03*
D11*
%TO.P,J2,2,VCC*%
%TO.N,/V+*%
X97619200Y-105460000D03*
%TO.P,J2,3,SCK*%
%TO.N,/PB2*%
X100159200Y-108000000D03*
%TO.P,J2,4,MOSI*%
%TO.N,/PB0*%
X100159200Y-105460000D03*
%TO.P,J2,5,~{RST}*%
%TO.N,/Reset*%
X102699200Y-108000000D03*
%TO.P,J2,6,GND*%
%TO.N,GND*%
X102699200Y-105460000D03*
%TD*%
D12*
%TO.P,L2,1*%
%TO.N,/V+*%
X98333100Y-114967900D03*
%TO.P,L2,2*%
%TO.N,/PB4*%
X101733100Y-114967900D03*
%TD*%
%TO.P,L3,1*%
%TO.N,/V+*%
X98316400Y-138500000D03*
%TO.P,L3,2*%
%TO.N,/PB2*%
X101716400Y-138500000D03*
%TD*%
D13*
%TO.P,BT1,2,-*%
%TO.N,GND*%
X98706900Y-135000000D03*
%TO.P,BT1,1,+*%
%TO.N,Net-(BT1-+)*%
X101246900Y-135000000D03*
%TD*%
D12*
%TO.P,L1,1*%
%TO.N,/V+*%
X98295100Y-91500000D03*
%TO.P,L1,2*%
%TO.N,/PB3*%
X101695100Y-91500000D03*
%TD*%
D10*
%TO.P,J3,1,Pin_1*%
%TO.N,GND*%
X98730000Y-95500000D03*
D11*
%TO.P,J3,2,Pin_2*%
%TO.N,In+*%
X101270000Y-95500000D03*
%TD*%
D13*
%TO.P,SW2,1,A*%
%TO.N,unconnected-(SW2A-A-Pad1)*%
X97460000Y-100477600D03*
%TO.P,SW2,2,B*%
%TO.N,Net-(BT1-+)*%
X100000000Y-100477600D03*
%TO.P,SW2,3,C*%
%TO.N,/V+*%
X102540000Y-100477600D03*
%TD*%
D14*
%TO.P,R2,1*%
%TO.N,Net-(D1-A)*%
X102976900Y-122500000D03*
%TO.P,R2,2*%
%TO.N,In+*%
X100976900Y-122500000D03*
%TD*%
D15*
%TO.P,D1,1,K*%
%TO.N,Net-(D1-K)*%
X96376900Y-116449800D03*
%TO.P,D1,2,A*%
%TO.N,Net-(D1-A)*%
X96376900Y-114399800D03*
%TD*%
D16*
%TO.P,R1,1*%
%TO.N,Net-(U1-PROG)*%
X96708200Y-125500000D03*
%TO.P,R1,2*%
%TO.N,GND*%
X98708200Y-125500000D03*
%TD*%
D14*
%TO.P,R6,1*%
%TO.N,GND*%
X102976900Y-119500000D03*
%TO.P,R6,2*%
%TO.N,/PB0*%
X100976900Y-119500000D03*
%TD*%
D13*
%TO.P,M1,1,+*%
%TO.N,/V+*%
X98810000Y-117200000D03*
%TO.P,M1,2,-*%
%TO.N,Net-(M1--)*%
X101350000Y-117200000D03*
%TD*%
D17*
%TO.P,U1,8,CE*%
%TO.N,In+*%
X97526900Y-127690000D03*
%TO.P,U1,7,~{CHRG}*%
%TO.N,Net-(D1-K)*%
X97526900Y-128960000D03*
%TO.P,U1,6,~{STDBY}*%
%TO.N,Net-(D2-K)*%
X97526900Y-130230000D03*
%TO.P,U1,5,BAT*%
%TO.N,Net-(BT1-+)*%
X97526900Y-131500000D03*
%TO.P,U1,4,VCC*%
%TO.N,In+*%
X102476900Y-131500000D03*
%TO.P,U1,3,GND*%
%TO.N,GND*%
X102476900Y-130230000D03*
%TO.P,U1,2,PROG*%
%TO.N,Net-(U1-PROG)*%
X102476900Y-128960000D03*
%TO.P,U1,1,TEMP*%
%TO.N,GND*%
X102476900Y-127690000D03*
%TD*%
D18*
%TO.P,Q2,1*%
%TO.N,/PB0*%
X98512100Y-119286500D03*
%TO.P,Q2,2*%
%TO.N,GND*%
X98512100Y-121186500D03*
%TO.P,Q2,3*%
%TO.N,Net-(M2--)*%
X96312100Y-120236500D03*
%TD*%
D13*
%TO.P,M2,1,+*%
%TO.N,/V+*%
X101300000Y-112800000D03*
%TO.P,M2,2,-*%
%TO.N,Net-(M2--)*%
X98760000Y-112800000D03*
%TD*%
D15*
%TO.P,D2,1,K*%
%TO.N,Net-(D2-K)*%
X103635700Y-116451600D03*
%TO.P,D2,2,A*%
%TO.N,Net-(D2-A)*%
X103635700Y-114401600D03*
%TD*%
D14*
%TO.P,R3,1*%
%TO.N,Net-(D2-A)*%
X102976900Y-125500000D03*
%TO.P,R3,2*%
%TO.N,In+*%
X100976900Y-125500000D03*
%TD*%
D19*
%TO.N,Net-(M1--)*%
X97248500Y-121401600D03*
%TO.N,/PB3*%
X104466500Y-127033000D03*
%TO.N,/Reset*%
X104309000Y-128423300D03*
%TO.N,/PB2*%
X98881100Y-129610100D03*
X97773800Y-125063900D03*
X96465400Y-118333800D03*
X98192700Y-104379500D03*
%TO.N,/PB1*%
X100222000Y-111679500D03*
%TO.N,In+*%
X95454600Y-121847600D03*
X100192700Y-128692300D03*
X100692300Y-126903200D03*
%TO.N,/PB0*%
X100708600Y-115942700D03*
X97344400Y-124095600D03*
%TO.N,Net-(D2-K)*%
X99310300Y-122639400D03*
X98953100Y-130216600D03*
%TO.N,Net-(D1-A)*%
X99088200Y-113900100D03*
X99553400Y-114774800D03*
X103444200Y-117893300D03*
X103731700Y-121474400D03*
%TO.N,GND*%
X102669200Y-120843900D03*
X99219100Y-121990400D03*
X101037500Y-127894200D03*
%TD*%
D20*
%TO.N,/V+*%
X98732500Y-107057100D02*
X98237100Y-106561700D01*
X98237100Y-106561700D02*
X97619200Y-106561700D01*
X97619200Y-106561700D02*
X97619200Y-105460000D01*
X100949500Y-110348400D02*
X98732500Y-108131400D01*
X100949500Y-112800000D02*
X100949500Y-110348400D01*
X98732500Y-108131400D02*
X98732500Y-107057100D01*
%TO.N,GND*%
X103585800Y-103471700D02*
X102699200Y-104358300D01*
X102699200Y-104358300D02*
X102699200Y-105460000D01*
X103585800Y-99583550D02*
X103585800Y-103471700D01*
X98730000Y-95500000D02*
X99502250Y-95500000D01*
X99502250Y-95500000D02*
X103585800Y-99583550D01*
D21*
%TO.N,/PB3*%
X102445100Y-92250000D02*
X101695100Y-91500000D01*
X102445100Y-97983230D02*
X102445100Y-92250000D01*
X103910800Y-99448930D02*
X102445100Y-97983230D01*
X105197451Y-117753949D02*
X105215800Y-116547400D01*
X105215800Y-116547400D02*
X105215800Y-113654300D01*
X104730700Y-125708700D02*
X104730700Y-118220700D01*
X105215800Y-113654300D02*
X103910800Y-112349300D01*
X103910800Y-112349300D02*
X103910800Y-99448930D01*
X104466500Y-125972900D02*
X104730700Y-125708700D01*
X104466500Y-127033000D02*
X104466500Y-125972900D01*
X104730700Y-118220700D02*
X105197451Y-117753949D01*
%TO.N,/PB2*%
X98995400Y-105825400D02*
X98995400Y-105182200D01*
X100159200Y-106989200D02*
X98995400Y-105825400D01*
X98995400Y-105182200D02*
X98192700Y-104379500D01*
X100159200Y-108000000D02*
X100159200Y-106989200D01*
D20*
%TO.N,Net-(BT1-+)*%
X99000000Y-131500000D02*
X101246900Y-133746900D01*
X101246900Y-133746900D02*
X101246900Y-135000000D01*
X97526900Y-131500000D02*
X99000000Y-131500000D01*
D21*
%TO.N,Net-(M2--)*%
X96312100Y-120236500D02*
X96312100Y-119634800D01*
X97314500Y-118632400D02*
X96312100Y-119634800D01*
X97314500Y-114245500D02*
X97314500Y-118632400D01*
X98760000Y-112800000D02*
X97314500Y-114245500D01*
%TO.N,Net-(D2-A)*%
X104127300Y-124349600D02*
X102976900Y-125500000D01*
X104127300Y-117903000D02*
X104127300Y-124349600D01*
X104577800Y-117452500D02*
X104127300Y-117903000D01*
X104577800Y-115343700D02*
X104577800Y-117452500D01*
X103635700Y-114401600D02*
X104577800Y-115343700D01*
%TO.N,Net-(U1-PROG)*%
X97777400Y-126569200D02*
X96708200Y-125500000D01*
X98860300Y-126569200D02*
X97777400Y-126569200D01*
X101251100Y-128960000D02*
X98860300Y-126569200D01*
X102476900Y-128960000D02*
X101251100Y-128960000D01*
%TO.N,Net-(M1--)*%
X97584300Y-121065800D02*
X97248500Y-121401600D01*
X97584300Y-120565700D02*
X97584300Y-121065800D01*
X97690200Y-120459800D02*
X97584300Y-120565700D01*
X101549000Y-120459800D02*
X97690200Y-120459800D01*
X101838100Y-120170700D02*
X101549000Y-120459800D01*
X101838100Y-117688100D02*
X101838100Y-120170700D01*
X101350000Y-117200000D02*
X101838100Y-117688100D01*
%TO.N,/Reset*%
X104078600Y-128192900D02*
X104309000Y-128423300D01*
X104078600Y-125061700D02*
X104078600Y-128192900D01*
X104429000Y-124711300D02*
X104078600Y-125061700D01*
X104429000Y-118028000D02*
X104429000Y-124711300D01*
X104894600Y-117562400D02*
X104429000Y-118028000D01*
X104894600Y-113806800D02*
X104894600Y-117562400D01*
X102699200Y-111611400D02*
X104894600Y-113806800D01*
X102699200Y-108000000D02*
X102699200Y-111611400D01*
%TO.N,/PB2*%
X102236100Y-137980300D02*
X101716400Y-138500000D01*
X102236100Y-132965100D02*
X102236100Y-137980300D01*
X98881100Y-129610100D02*
X102236100Y-132965100D01*
X95385400Y-119413800D02*
X96465400Y-118333800D01*
X95385400Y-121198800D02*
X95385400Y-119413800D01*
X96498600Y-122312000D02*
X95385400Y-121198800D01*
X96498600Y-123788700D02*
X96498600Y-122312000D01*
X97773800Y-125063900D02*
X96498600Y-123788700D01*
%TO.N,/PB1*%
X97619200Y-108000000D02*
X97619200Y-109076700D01*
X97619200Y-109076700D02*
X100222000Y-111679500D01*
D20*
%TO.N,In+*%
X100976900Y-125500000D02*
X100976900Y-122500000D01*
X102476900Y-131500000D02*
X101240200Y-131500000D01*
X97526900Y-127690000D02*
X98763600Y-127690000D01*
X101240200Y-129739800D02*
X100192700Y-128692300D01*
X101240200Y-131500000D02*
X101240200Y-129739800D01*
X99765900Y-128692300D02*
X98763600Y-127690000D01*
X100192700Y-128692300D02*
X99765900Y-128692300D01*
X95676400Y-122069400D02*
X95454600Y-121847600D01*
X95676400Y-126043700D02*
X95676400Y-122069400D01*
X97322700Y-127690000D02*
X95676400Y-126043700D01*
X97526900Y-127690000D02*
X97322700Y-127690000D01*
X100976900Y-126618600D02*
X100692300Y-126903200D01*
X100976900Y-125500000D02*
X100976900Y-126618600D01*
D21*
%TO.N,/PB0*%
X100357000Y-116294300D02*
X100708600Y-115942700D01*
X100357000Y-119286500D02*
X100357000Y-116294300D01*
X100763400Y-119286500D02*
X100976900Y-119500000D01*
X100357000Y-119286500D02*
X100763400Y-119286500D01*
X100357000Y-119286500D02*
X98512100Y-119286500D01*
X98512100Y-119286500D02*
X97585400Y-119286500D01*
X96848300Y-123599500D02*
X97344400Y-124095600D01*
X96848300Y-121262700D02*
X96848300Y-123599500D01*
X97255600Y-120855400D02*
X96848300Y-121262700D01*
X97255600Y-119616300D02*
X97255600Y-120855400D01*
X97585400Y-119286500D02*
X97255600Y-119616300D01*
%TO.N,Net-(D2-K)*%
X97526900Y-130230000D02*
X98738600Y-130230000D01*
X98939700Y-130230000D02*
X98953100Y-130216600D01*
X98738600Y-130230000D02*
X98939700Y-130230000D01*
X103825600Y-116641500D02*
X103635700Y-116451600D01*
X103825600Y-120220300D02*
X103825600Y-116641500D01*
X102825300Y-121220600D02*
X103825600Y-120220300D01*
X100729100Y-121220600D02*
X102825300Y-121220600D01*
X99310300Y-122639400D02*
X100729100Y-121220600D01*
%TO.N,Net-(D1-A)*%
X99752200Y-113236100D02*
X99088200Y-113900100D01*
X99752200Y-112359100D02*
X99752200Y-113236100D01*
X99188900Y-111795800D02*
X99752200Y-112359100D01*
X98317300Y-111795800D02*
X99188900Y-111795800D01*
X96376900Y-113736200D02*
X98317300Y-111795800D01*
X96376900Y-114399800D02*
X96376900Y-113736200D01*
X103731700Y-121745200D02*
X103731700Y-121474400D01*
X102976900Y-122500000D02*
X103731700Y-121745200D01*
X100141300Y-114774800D02*
X99553400Y-114774800D01*
X101563200Y-116196700D02*
X100141300Y-114774800D01*
X101747600Y-116196700D02*
X101563200Y-116196700D01*
X103444200Y-117893300D02*
X101747600Y-116196700D01*
%TO.N,Net-(D1-K)*%
X97526900Y-128960000D02*
X96315200Y-128960000D01*
X96315200Y-128083900D02*
X96315200Y-128960000D01*
X95302400Y-127071100D02*
X96315200Y-128083900D01*
X95302400Y-122228100D02*
X95302400Y-127071100D01*
X95039400Y-121965100D02*
X95302400Y-122228100D01*
X95039400Y-117787300D02*
X95039400Y-121965100D01*
X96376900Y-116449800D02*
X95039400Y-117787300D01*
D20*
%TO.N,/V+*%
X97619200Y-105460000D02*
X97619200Y-104358300D01*
X97588600Y-96566300D02*
X101499900Y-100477600D01*
X97588600Y-92206500D02*
X97588600Y-96566300D01*
X98295100Y-91500000D02*
X97588600Y-92206500D01*
X102540000Y-100477600D02*
X101499900Y-100477600D01*
X101499900Y-100477600D02*
X97619200Y-104358300D01*
X98810000Y-114996300D02*
X98781600Y-114967900D01*
X98810000Y-117200000D02*
X98810000Y-114996300D01*
X98781600Y-114967900D02*
X98333100Y-114967900D01*
X101300000Y-112800000D02*
X100949500Y-112800000D01*
X100949500Y-112800000D02*
X98781600Y-114967900D01*
%TO.N,GND*%
X98512100Y-121186500D02*
X98512100Y-121777900D01*
X102476900Y-127690000D02*
X103713600Y-127690000D01*
X102476900Y-130230000D02*
X103713600Y-130230000D01*
X98512100Y-121186500D02*
X99463800Y-121186500D01*
X103713600Y-127690000D02*
X103713600Y-130230000D01*
X98512100Y-121794300D02*
X98708200Y-121990400D01*
X98512100Y-121777900D02*
X98512100Y-121794300D01*
X98708200Y-121990400D02*
X99219100Y-121990400D01*
X102476900Y-127690000D02*
X101328600Y-127690000D01*
X98708200Y-121990400D02*
X98708200Y-125500000D01*
X98708200Y-125500000D02*
X101070000Y-127861700D01*
X101241700Y-127690000D02*
X101070000Y-127861700D01*
X101328600Y-127690000D02*
X101241700Y-127690000D01*
X101070000Y-127861700D02*
X101037500Y-127894200D01*
X102646500Y-119830400D02*
X102646500Y-120833200D01*
X102976900Y-119500000D02*
X102646500Y-119830400D01*
X99817100Y-120833200D02*
X102646500Y-120833200D01*
X99463800Y-121186500D02*
X99817100Y-120833200D01*
X102657200Y-120843900D02*
X102669200Y-120843900D01*
X102646500Y-120833200D02*
X102657200Y-120843900D01*
%TD*%
%TA.AperFunction,NonConductor*%
G36*
X100228343Y-87730964D02*
G01*
X100239602Y-87733773D01*
X100467378Y-87820375D01*
X100476235Y-87824815D01*
X100712889Y-87975174D01*
X100719236Y-87979973D01*
X100878383Y-88122077D01*
X100962983Y-88197617D01*
X100967378Y-88202078D01*
X101214799Y-88487600D01*
X101217829Y-88491474D01*
X101465870Y-88843651D01*
X101467991Y-88846933D01*
X101601160Y-89072230D01*
X101714387Y-89263787D01*
X101715900Y-89266545D01*
X101890837Y-89611423D01*
X101959047Y-89745893D01*
X101960158Y-89748235D01*
X102198892Y-90287883D01*
X102199724Y-90289883D01*
X102394890Y-90789674D01*
X102394125Y-90827170D01*
X102367071Y-90853141D01*
X102329575Y-90852376D01*
X102312833Y-90840286D01*
X102300971Y-90827112D01*
X102246059Y-90787216D01*
X102147830Y-90715849D01*
X101974903Y-90638856D01*
X101974900Y-90638855D01*
X101974896Y-90638854D01*
X101789746Y-90599500D01*
X101600454Y-90599500D01*
X101415303Y-90638854D01*
X101415294Y-90638857D01*
X101284909Y-90696909D01*
X101243013Y-90715563D01*
X101242368Y-90715850D01*
X101089227Y-90827113D01*
X101089224Y-90827115D01*
X100962570Y-90967780D01*
X100962564Y-90967788D01*
X100867923Y-91131712D01*
X100867921Y-91131715D01*
X100809426Y-91311743D01*
X100802158Y-91380900D01*
X100789640Y-91500000D01*
X100809426Y-91688256D01*
X100867921Y-91868284D01*
X100962567Y-92032216D01*
X100962570Y-92032219D01*
X101089224Y-92172884D01*
X101089227Y-92172886D01*
X101089229Y-92172888D01*
X101242370Y-92284151D01*
X101415297Y-92361144D01*
X101600454Y-92400500D01*
X101789746Y-92400500D01*
X101974903Y-92361144D01*
X102125727Y-92293991D01*
X102163215Y-92293010D01*
X102180303Y-92304108D01*
X102205248Y-92329053D01*
X102219600Y-92363701D01*
X102219600Y-94958542D01*
X102205248Y-94993190D01*
X102170600Y-95007542D01*
X102135952Y-94993190D01*
X102127386Y-94981641D01*
X102115039Y-94958542D01*
X102105910Y-94941462D01*
X102105907Y-94941458D01*
X102105905Y-94941455D01*
X102052537Y-94876427D01*
X101980883Y-94789117D01*
X101909227Y-94730310D01*
X101828544Y-94664094D01*
X101828541Y-94664092D01*
X101828539Y-94664091D01*
X101828538Y-94664090D01*
X101710202Y-94600838D01*
X101654726Y-94571185D01*
X101466132Y-94513976D01*
X101270000Y-94494659D01*
X101073867Y-94513976D01*
X101073866Y-94513976D01*
X100885273Y-94571185D01*
X100711458Y-94664092D01*
X100711455Y-94664094D01*
X100559117Y-94789117D01*
X100434094Y-94941455D01*
X100434092Y-94941458D01*
X100341185Y-95115273D01*
X100283976Y-95303866D01*
X100283976Y-95303867D01*
X100264659Y-95499999D01*
X100264659Y-95500000D01*
X100283976Y-95696132D01*
X100283976Y-95696133D01*
X100327921Y-95841000D01*
X100324245Y-95878322D01*
X100295255Y-95902114D01*
X100257933Y-95898438D01*
X100246383Y-95889872D01*
X99744852Y-95388341D01*
X99730500Y-95353693D01*
X99730500Y-94635180D01*
X99730499Y-94635176D01*
X99721767Y-94591278D01*
X99688504Y-94541495D01*
X99638721Y-94508232D01*
X99594823Y-94499500D01*
X99594820Y-94499500D01*
X97888100Y-94499500D01*
X97853452Y-94485148D01*
X97839100Y-94450500D01*
X97839100Y-92358148D01*
X97853452Y-92323500D01*
X97888100Y-92309148D01*
X97908025Y-92313383D01*
X98015297Y-92361144D01*
X98200454Y-92400500D01*
X98389746Y-92400500D01*
X98574903Y-92361144D01*
X98747830Y-92284151D01*
X98900971Y-92172888D01*
X99027633Y-92032216D01*
X99122279Y-91868284D01*
X99180774Y-91688256D01*
X99200560Y-91500000D01*
X99180774Y-91311744D01*
X99122279Y-91131716D01*
X99027633Y-90967784D01*
X98997899Y-90934761D01*
X98900975Y-90827115D01*
X98900972Y-90827113D01*
X98849442Y-90789674D01*
X98747830Y-90715849D01*
X98574903Y-90638856D01*
X98574900Y-90638855D01*
X98574896Y-90638854D01*
X98389746Y-90599500D01*
X98200454Y-90599500D01*
X98015303Y-90638854D01*
X98015294Y-90638857D01*
X97884909Y-90696909D01*
X97843013Y-90715563D01*
X97842368Y-90715850D01*
X97687151Y-90828622D01*
X97686292Y-90827440D01*
X97655149Y-90838419D01*
X97621322Y-90822227D01*
X97608853Y-90786857D01*
X97612137Y-90771671D01*
X97800287Y-90289849D01*
X97801091Y-90287915D01*
X98039858Y-89748193D01*
X98040930Y-89745934D01*
X98284109Y-89266521D01*
X98285591Y-89263820D01*
X98532012Y-88846924D01*
X98534114Y-88843672D01*
X98782175Y-88491463D01*
X98785188Y-88487611D01*
X99032620Y-88202077D01*
X99037007Y-88197624D01*
X99280769Y-87979966D01*
X99287104Y-87975176D01*
X99523766Y-87824812D01*
X99532616Y-87820376D01*
X99760397Y-87733773D01*
X99771652Y-87730964D01*
X99993853Y-87702872D01*
X100006145Y-87702872D01*
X100228343Y-87730964D01*
G37*
%TD.AperFunction*%
%TA.AperFunction,NonConductor*%
G36*
X102193699Y-95998243D02*
G01*
X102217490Y-96027233D01*
X102219600Y-96041457D01*
X102219600Y-97744793D01*
X102205248Y-97779441D01*
X102170600Y-97793793D01*
X102135952Y-97779441D01*
X100880127Y-96523616D01*
X100865775Y-96488968D01*
X100880127Y-96454320D01*
X100914775Y-96439968D01*
X100928997Y-96442077D01*
X101073868Y-96486024D01*
X101270000Y-96505341D01*
X101466132Y-96486024D01*
X101654727Y-96428814D01*
X101828538Y-96335910D01*
X101980883Y-96210883D01*
X102105910Y-96058538D01*
X102127387Y-96018357D01*
X102156376Y-95994567D01*
X102193699Y-95998243D01*
G37*
%TD.AperFunction*%
%TA.AperFunction,NonConductor*%
G36*
X99814148Y-96166158D02*
G01*
X103320948Y-99672958D01*
X103335300Y-99707606D01*
X103335300Y-99869511D01*
X103320948Y-99904159D01*
X103286300Y-99918511D01*
X103251652Y-99904159D01*
X103249886Y-99902298D01*
X103153949Y-99795748D01*
X103153946Y-99795746D01*
X103032632Y-99707606D01*
X102998763Y-99682999D01*
X102823531Y-99604981D01*
X102823528Y-99604980D01*
X102823524Y-99604979D01*
X102635908Y-99565100D01*
X102444092Y-99565100D01*
X102256475Y-99604979D01*
X102256466Y-99604982D01*
X102081235Y-99683000D01*
X101926053Y-99795746D01*
X101926050Y-99795748D01*
X101797709Y-99938288D01*
X101797703Y-99938296D01*
X101701800Y-100104405D01*
X101701798Y-100104408D01*
X101672934Y-100193242D01*
X101648577Y-100221760D01*
X101626332Y-100227100D01*
X101623956Y-100227100D01*
X101589308Y-100212748D01*
X97960709Y-96584148D01*
X97946357Y-96549500D01*
X97960709Y-96514852D01*
X97995357Y-96500500D01*
X99594820Y-96500500D01*
X99638722Y-96491767D01*
X99688504Y-96458504D01*
X99721767Y-96408722D01*
X99730500Y-96364820D01*
X99730500Y-96200806D01*
X99744852Y-96166158D01*
X99779500Y-96151806D01*
X99814148Y-96166158D01*
G37*
%TD.AperFunction*%
%TA.AperFunction,NonConductor*%
G36*
X100984766Y-100317105D02*
G01*
X100988577Y-100320537D01*
X101110991Y-100442951D01*
X101125343Y-100477599D01*
X101110991Y-100512247D01*
X100988577Y-100634660D01*
X100953929Y-100649012D01*
X100919281Y-100634660D01*
X100904929Y-100600012D01*
X100905195Y-100594916D01*
X100917526Y-100477600D01*
X100905197Y-100360304D01*
X100915849Y-100324348D01*
X100948807Y-100306453D01*
X100984766Y-100317105D01*
G37*
%TD.AperFunction*%
%TA.AperFunction,NonConductor*%
G36*
X103670948Y-103810108D02*
G01*
X103685300Y-103844756D01*
X103685300Y-104986829D01*
X103670948Y-105021477D01*
X103636300Y-105035829D01*
X103601652Y-105021477D01*
X103593086Y-105009928D01*
X103582985Y-104991030D01*
X103535110Y-104901462D01*
X103535107Y-104901458D01*
X103535105Y-104901455D01*
X103481737Y-104836427D01*
X103410083Y-104749117D01*
X103338427Y-104690310D01*
X103257744Y-104624094D01*
X103257741Y-104624092D01*
X103257739Y-104624091D01*
X103257738Y-104624090D01*
X103083927Y-104531186D01*
X103083924Y-104531185D01*
X103006134Y-104507587D01*
X102977144Y-104483795D01*
X102973468Y-104446473D01*
X102985708Y-104426051D01*
X103601652Y-103810108D01*
X103636300Y-103795756D01*
X103670948Y-103810108D01*
G37*
%TD.AperFunction*%
%TA.AperFunction,NonConductor*%
G36*
X98665402Y-105174091D02*
G01*
X98676952Y-105182657D01*
X98755548Y-105261253D01*
X98769900Y-105295901D01*
X98769900Y-105776588D01*
X98769899Y-105776602D01*
X98769899Y-105870256D01*
X98784930Y-105906542D01*
X98804230Y-105953136D01*
X98804231Y-105953137D01*
X98804231Y-105953138D01*
X98874555Y-106023461D01*
X98874557Y-106023462D01*
X99830072Y-106978977D01*
X99844424Y-107013625D01*
X99830072Y-107048273D01*
X99809649Y-107060515D01*
X99774473Y-107071186D01*
X99774468Y-107071188D01*
X99600658Y-107164092D01*
X99600655Y-107164094D01*
X99448317Y-107289117D01*
X99323294Y-107441455D01*
X99323292Y-107441458D01*
X99230385Y-107615273D01*
X99173176Y-107803866D01*
X99173176Y-107803867D01*
X99153859Y-107999999D01*
X99153859Y-108000000D01*
X99162122Y-108083898D01*
X99151235Y-108119786D01*
X99118161Y-108137465D01*
X99082273Y-108126578D01*
X99078710Y-108123349D01*
X98997352Y-108041991D01*
X98983000Y-108007343D01*
X98983000Y-107007274D01*
X98982999Y-107007270D01*
X98944864Y-106915203D01*
X98944862Y-106915201D01*
X98944862Y-106915200D01*
X98874397Y-106844736D01*
X98378999Y-106349337D01*
X98286929Y-106311200D01*
X98285654Y-106310947D01*
X98284572Y-106310224D01*
X98282469Y-106309353D01*
X98282642Y-106308934D01*
X98254471Y-106290111D01*
X98247154Y-106253329D01*
X98264126Y-106225012D01*
X98330083Y-106170883D01*
X98455110Y-106018538D01*
X98548014Y-105844727D01*
X98605224Y-105656132D01*
X98624541Y-105460000D01*
X98605224Y-105263868D01*
X98595414Y-105231528D01*
X98599090Y-105194207D01*
X98628080Y-105170415D01*
X98665402Y-105174091D01*
G37*
%TD.AperFunction*%
%TA.AperFunction,NonConductor*%
G36*
X103659398Y-108429956D02*
G01*
X103683190Y-108458946D01*
X103685300Y-108473170D01*
X103685300Y-112160298D01*
X103670948Y-112194946D01*
X103636300Y-112209298D01*
X103601652Y-112194946D01*
X102939052Y-111532346D01*
X102924700Y-111497698D01*
X102924700Y-109013455D01*
X102939052Y-108978807D01*
X102959473Y-108966566D01*
X103083927Y-108928814D01*
X103257738Y-108835910D01*
X103410083Y-108710883D01*
X103535110Y-108558538D01*
X103593086Y-108450071D01*
X103622076Y-108426280D01*
X103659398Y-108429956D01*
G37*
%TD.AperFunction*%
%TA.AperFunction,NonConductor*%
G36*
X102674454Y-91597189D02*
G01*
X102683151Y-91613433D01*
X102867747Y-92205147D01*
X102882661Y-92252951D01*
X102883050Y-92254265D01*
X102898486Y-92309148D01*
X103096888Y-93014586D01*
X103097204Y-93015767D01*
X103303503Y-93826362D01*
X103303761Y-93827423D01*
X103303771Y-93827466D01*
X103491334Y-94639818D01*
X103502152Y-94686669D01*
X103502361Y-94687620D01*
X103559193Y-94958542D01*
X103692379Y-95593444D01*
X103692556Y-95594326D01*
X103873852Y-96545105D01*
X103874000Y-96545919D01*
X104046170Y-97539715D01*
X104046295Y-97540471D01*
X104208989Y-98575622D01*
X104209095Y-98576331D01*
X104361946Y-99651061D01*
X104362036Y-99651728D01*
X104504664Y-100764117D01*
X104504741Y-100764751D01*
X104636815Y-101913243D01*
X104636881Y-101913848D01*
X104758028Y-103096531D01*
X104758084Y-103097112D01*
X104867968Y-104312402D01*
X104868015Y-104312962D01*
X104966271Y-105558946D01*
X104966311Y-105559490D01*
X105052595Y-106834533D01*
X105052628Y-106835063D01*
X105126588Y-108137314D01*
X105126615Y-108137833D01*
X105187910Y-109465725D01*
X105187931Y-109466235D01*
X105236209Y-110817916D01*
X105236224Y-110818420D01*
X105271137Y-112192146D01*
X105271147Y-112192646D01*
X105287810Y-113288370D01*
X105273987Y-113323232D01*
X105239561Y-113338109D01*
X105204699Y-113324286D01*
X105204168Y-113323763D01*
X104150652Y-112270247D01*
X104136300Y-112235599D01*
X104136300Y-99499494D01*
X104136301Y-99499485D01*
X104136301Y-99404078D01*
X104136300Y-99404074D01*
X104101970Y-99321195D01*
X104101969Y-99321193D01*
X104035746Y-99254970D01*
X104035739Y-99254964D01*
X102684952Y-97904177D01*
X102670600Y-97869529D01*
X102670600Y-92205147D01*
X102670600Y-92205145D01*
X102636270Y-92122264D01*
X102636269Y-92122263D01*
X102636268Y-92122261D01*
X102570046Y-92056040D01*
X102570039Y-92056034D01*
X102497625Y-91983620D01*
X102483273Y-91948972D01*
X102489837Y-91924474D01*
X102522279Y-91868284D01*
X102580774Y-91688256D01*
X102587642Y-91622902D01*
X102605537Y-91589946D01*
X102641496Y-91579294D01*
X102674454Y-91597189D01*
G37*
%TD.AperFunction*%
%TA.AperFunction,NonConductor*%
G36*
X97838646Y-112662653D02*
G01*
X97852998Y-112697301D01*
X97852730Y-112702417D01*
X97842474Y-112800000D01*
X97862524Y-112990764D01*
X97921798Y-113173191D01*
X97935730Y-113197322D01*
X97956476Y-113233256D01*
X97961371Y-113270438D01*
X97948689Y-113292404D01*
X97286918Y-113954175D01*
X97252270Y-113968527D01*
X97217622Y-113954175D01*
X97208611Y-113941772D01*
X97154954Y-113836464D01*
X97154949Y-113836457D01*
X97065242Y-113746750D01*
X97065235Y-113746745D01*
X96952208Y-113689155D01*
X96952205Y-113689154D01*
X96952204Y-113689154D01*
X96882888Y-113678175D01*
X96866457Y-113675573D01*
X96834481Y-113655977D01*
X96825726Y-113619510D01*
X96839473Y-113592530D01*
X97769351Y-112662652D01*
X97803998Y-112648301D01*
X97838646Y-112662653D01*
G37*
%TD.AperFunction*%
%TA.AperFunction,NonConductor*%
G36*
X98320282Y-113603080D02*
G01*
X98476469Y-113672619D01*
X98664092Y-113712500D01*
X98764652Y-113712500D01*
X98799300Y-113726852D01*
X98813652Y-113761500D01*
X98807088Y-113785999D01*
X98801466Y-113795735D01*
X98783064Y-113900100D01*
X98801466Y-114004465D01*
X98854450Y-114096236D01*
X98854452Y-114096239D01*
X98935631Y-114164356D01*
X99035214Y-114200600D01*
X99076342Y-114200600D01*
X99110990Y-114214952D01*
X99125342Y-114249600D01*
X99110990Y-114284248D01*
X99070686Y-114324552D01*
X99051884Y-114343354D01*
X99017236Y-114357705D01*
X98982587Y-114343353D01*
X98980822Y-114341492D01*
X98938975Y-114295015D01*
X98938972Y-114295013D01*
X98924156Y-114284248D01*
X98785830Y-114183749D01*
X98612903Y-114106756D01*
X98612900Y-114106755D01*
X98612896Y-114106754D01*
X98427746Y-114067400D01*
X98238454Y-114067400D01*
X98053303Y-114106754D01*
X98053294Y-114106757D01*
X97880368Y-114183750D01*
X97727227Y-114295013D01*
X97727224Y-114295015D01*
X97625414Y-114408088D01*
X97591564Y-114424234D01*
X97556213Y-114411715D01*
X97540067Y-114377865D01*
X97540000Y-114375301D01*
X97540000Y-114359200D01*
X97554351Y-114324553D01*
X98265707Y-113613196D01*
X98300354Y-113598845D01*
X98320282Y-113603080D01*
G37*
%TD.AperFunction*%
%TA.AperFunction,NonConductor*%
G36*
X101076224Y-116028629D02*
G01*
X101257081Y-116209486D01*
X101271433Y-116244134D01*
X101257081Y-116278782D01*
X101232621Y-116292063D01*
X101066476Y-116327379D01*
X101066466Y-116327382D01*
X100891235Y-116405400D01*
X100736053Y-116518146D01*
X100736050Y-116518148D01*
X100667914Y-116593823D01*
X100634065Y-116609969D01*
X100598713Y-116597450D01*
X100582567Y-116563601D01*
X100582500Y-116561036D01*
X100582500Y-116408001D01*
X100596852Y-116373353D01*
X100712654Y-116257552D01*
X100747302Y-116243200D01*
X100761586Y-116243200D01*
X100861168Y-116206956D01*
X100942347Y-116138839D01*
X100942349Y-116138836D01*
X100967611Y-116095081D01*
X100995334Y-116047063D01*
X100995335Y-116047051D01*
X100995526Y-116046531D01*
X100995838Y-116046189D01*
X100997478Y-116043350D01*
X100998106Y-116043713D01*
X101020855Y-116018874D01*
X101058322Y-116017227D01*
X101076224Y-116028629D01*
G37*
%TD.AperFunction*%
%TA.AperFunction,NonConductor*%
G36*
X101660980Y-100742452D02*
G01*
X101672934Y-100761958D01*
X101701798Y-100850791D01*
X101797706Y-101016908D01*
X101797709Y-101016911D01*
X101926050Y-101159451D01*
X101926053Y-101159453D01*
X101926055Y-101159455D01*
X102081237Y-101272201D01*
X102256469Y-101350219D01*
X102444092Y-101390100D01*
X102635908Y-101390100D01*
X102823531Y-101350219D01*
X102998763Y-101272201D01*
X103153945Y-101159455D01*
X103249886Y-101052901D01*
X103283735Y-101036755D01*
X103319087Y-101049274D01*
X103335233Y-101083123D01*
X103335300Y-101085688D01*
X103335300Y-103347642D01*
X103320948Y-103382290D01*
X102486837Y-104216401D01*
X102448700Y-104308470D01*
X102448700Y-104454127D01*
X102434348Y-104488775D01*
X102413924Y-104501017D01*
X102314475Y-104531185D01*
X102314468Y-104531188D01*
X102140658Y-104624092D01*
X102140655Y-104624094D01*
X101988317Y-104749117D01*
X101863294Y-104901455D01*
X101863292Y-104901458D01*
X101770385Y-105075273D01*
X101713176Y-105263866D01*
X101713176Y-105263867D01*
X101693859Y-105459999D01*
X101693859Y-105460000D01*
X101713176Y-105656132D01*
X101713176Y-105656133D01*
X101770385Y-105844726D01*
X101794561Y-105889956D01*
X101863289Y-106018537D01*
X101863292Y-106018541D01*
X101863294Y-106018544D01*
X101929510Y-106099227D01*
X101988317Y-106170883D01*
X102054271Y-106225010D01*
X102140655Y-106295905D01*
X102140658Y-106295907D01*
X102140662Y-106295910D01*
X102314473Y-106388814D01*
X102503068Y-106446024D01*
X102699200Y-106465341D01*
X102895332Y-106446024D01*
X103083927Y-106388814D01*
X103257738Y-106295910D01*
X103410083Y-106170883D01*
X103535110Y-106018538D01*
X103593086Y-105910071D01*
X103622076Y-105886280D01*
X103659398Y-105889956D01*
X103683190Y-105918946D01*
X103685300Y-105933170D01*
X103685300Y-107526829D01*
X103670948Y-107561477D01*
X103636300Y-107575829D01*
X103601652Y-107561477D01*
X103593086Y-107549928D01*
X103535110Y-107441462D01*
X103535107Y-107441458D01*
X103535105Y-107441455D01*
X103481737Y-107376427D01*
X103410083Y-107289117D01*
X103338427Y-107230310D01*
X103257744Y-107164094D01*
X103257741Y-107164092D01*
X103257739Y-107164091D01*
X103257738Y-107164090D01*
X103177792Y-107121358D01*
X103083926Y-107071185D01*
X102895332Y-107013976D01*
X102699200Y-106994659D01*
X102503067Y-107013976D01*
X102503066Y-107013976D01*
X102314473Y-107071185D01*
X102140658Y-107164092D01*
X102140655Y-107164094D01*
X101988317Y-107289117D01*
X101863294Y-107441455D01*
X101863292Y-107441458D01*
X101770385Y-107615273D01*
X101713176Y-107803866D01*
X101713176Y-107803867D01*
X101693859Y-107999999D01*
X101693859Y-108000000D01*
X101713176Y-108196132D01*
X101713176Y-108196133D01*
X101770385Y-108384726D01*
X101794561Y-108429956D01*
X101863289Y-108558537D01*
X101863292Y-108558541D01*
X101863294Y-108558544D01*
X101929510Y-108639227D01*
X101988317Y-108710883D01*
X102075627Y-108782537D01*
X102140655Y-108835905D01*
X102140658Y-108835907D01*
X102140662Y-108835910D01*
X102314473Y-108928814D01*
X102438925Y-108966566D01*
X102467914Y-108990356D01*
X102473700Y-109013455D01*
X102473700Y-111562588D01*
X102473699Y-111562602D01*
X102473699Y-111656259D01*
X102483327Y-111679499D01*
X102483328Y-111679500D01*
X102508030Y-111739136D01*
X102508031Y-111739137D01*
X102508031Y-111739138D01*
X102578355Y-111809461D01*
X102578357Y-111809462D01*
X104654748Y-113885853D01*
X104669100Y-113920501D01*
X104669100Y-114997799D01*
X104654748Y-115032447D01*
X104620100Y-115046799D01*
X104585452Y-115032447D01*
X104474094Y-114921089D01*
X104459742Y-114886441D01*
X104465082Y-114864196D01*
X104471346Y-114851904D01*
X104486200Y-114758119D01*
X104486199Y-114045082D01*
X104471346Y-113951296D01*
X104455655Y-113920501D01*
X104413754Y-113838264D01*
X104413749Y-113838257D01*
X104324042Y-113748550D01*
X104324035Y-113748545D01*
X104211008Y-113690955D01*
X104211005Y-113690954D01*
X104211004Y-113690954D01*
X104117219Y-113676100D01*
X104117217Y-113676100D01*
X103154182Y-113676100D01*
X103060396Y-113690953D01*
X102947364Y-113748545D01*
X102947357Y-113748550D01*
X102857650Y-113838257D01*
X102857645Y-113838264D01*
X102800055Y-113951290D01*
X102800055Y-113951292D01*
X102800054Y-113951294D01*
X102800054Y-113951296D01*
X102785697Y-114041946D01*
X102785200Y-114045082D01*
X102785200Y-114758117D01*
X102800053Y-114851903D01*
X102857645Y-114964935D01*
X102857650Y-114964942D01*
X102947357Y-115054649D01*
X102947364Y-115054654D01*
X103060391Y-115112244D01*
X103060392Y-115112244D01*
X103060396Y-115112246D01*
X103154181Y-115127100D01*
X104021998Y-115127099D01*
X104056646Y-115141451D01*
X104337948Y-115422753D01*
X104352300Y-115457401D01*
X104352300Y-115732986D01*
X104337948Y-115767634D01*
X104303300Y-115781986D01*
X104281055Y-115776646D01*
X104222006Y-115746560D01*
X104211004Y-115740954D01*
X104117219Y-115726100D01*
X104117217Y-115726100D01*
X103154182Y-115726100D01*
X103060396Y-115740953D01*
X102947364Y-115798545D01*
X102947357Y-115798550D01*
X102857650Y-115888257D01*
X102857645Y-115888264D01*
X102800055Y-116001290D01*
X102800055Y-116001292D01*
X102800054Y-116001294D01*
X102800054Y-116001296D01*
X102788245Y-116075856D01*
X102785200Y-116095082D01*
X102785200Y-116797099D01*
X102770848Y-116831747D01*
X102736200Y-116846099D01*
X102701552Y-116831747D01*
X101945662Y-116075857D01*
X101945662Y-116075856D01*
X101875337Y-116005530D01*
X101851060Y-115995474D01*
X101792456Y-115971199D01*
X101792455Y-115971199D01*
X101702745Y-115971199D01*
X101697044Y-115971199D01*
X101697036Y-115971200D01*
X101676901Y-115971200D01*
X101642253Y-115956848D01*
X101637453Y-115952048D01*
X101623101Y-115917400D01*
X101637453Y-115882752D01*
X101672101Y-115868400D01*
X101827746Y-115868400D01*
X102012903Y-115829044D01*
X102185830Y-115752051D01*
X102338971Y-115640788D01*
X102465633Y-115500116D01*
X102560279Y-115336184D01*
X102618774Y-115156156D01*
X102638560Y-114967900D01*
X102618774Y-114779644D01*
X102560279Y-114599616D01*
X102465633Y-114435684D01*
X102415373Y-114379865D01*
X102338975Y-114295015D01*
X102338972Y-114295013D01*
X102324156Y-114284248D01*
X102185830Y-114183749D01*
X102012903Y-114106756D01*
X102012900Y-114106755D01*
X102012896Y-114106754D01*
X101827746Y-114067400D01*
X101638454Y-114067400D01*
X101453303Y-114106754D01*
X101453294Y-114106757D01*
X101280368Y-114183750D01*
X101127227Y-114295013D01*
X101127224Y-114295015D01*
X101000570Y-114435680D01*
X101000564Y-114435688D01*
X100905923Y-114599612D01*
X100905921Y-114599615D01*
X100847426Y-114779643D01*
X100827640Y-114967900D01*
X100833651Y-115025097D01*
X100822999Y-115061055D01*
X100790040Y-115078950D01*
X100754082Y-115068298D01*
X100750271Y-115064866D01*
X100339362Y-114653957D01*
X100339362Y-114653956D01*
X100269037Y-114583630D01*
X100244760Y-114573574D01*
X100186156Y-114549299D01*
X100186155Y-114549299D01*
X100096445Y-114549299D01*
X100090744Y-114549299D01*
X100090736Y-114549300D01*
X99769990Y-114549300D01*
X99738494Y-114537836D01*
X99705970Y-114510546D01*
X99705968Y-114510544D01*
X99705966Y-114510543D01*
X99705963Y-114510541D01*
X99695577Y-114506761D01*
X99667928Y-114481424D01*
X99666294Y-114443956D01*
X99677688Y-114426071D01*
X100619420Y-113484339D01*
X100654067Y-113469988D01*
X100683336Y-113481226D01*
X100683977Y-113480345D01*
X100686053Y-113481853D01*
X100686055Y-113481855D01*
X100841237Y-113594601D01*
X101016469Y-113672619D01*
X101204092Y-113712500D01*
X101395908Y-113712500D01*
X101583531Y-113672619D01*
X101758763Y-113594601D01*
X101913945Y-113481855D01*
X101914512Y-113481226D01*
X101963093Y-113427270D01*
X102042294Y-113339308D01*
X102138202Y-113173191D01*
X102197476Y-112990764D01*
X102217526Y-112800000D01*
X102197476Y-112609236D01*
X102138202Y-112426809D01*
X102042294Y-112260692D01*
X101996019Y-112209298D01*
X101913949Y-112118148D01*
X101913946Y-112118146D01*
X101913396Y-112117746D01*
X101758763Y-112005399D01*
X101583531Y-111927381D01*
X101583528Y-111927380D01*
X101583524Y-111927379D01*
X101395908Y-111887500D01*
X101249000Y-111887500D01*
X101214352Y-111873148D01*
X101200000Y-111838500D01*
X101200000Y-110298574D01*
X101199999Y-110298570D01*
X101161864Y-110206503D01*
X101161862Y-110206501D01*
X101161862Y-110206500D01*
X101091397Y-110136036D01*
X100035850Y-109080489D01*
X100021498Y-109045841D01*
X100035850Y-109011193D01*
X100070498Y-108996841D01*
X100075284Y-108997076D01*
X100159200Y-109005341D01*
X100355332Y-108986024D01*
X100543927Y-108928814D01*
X100717738Y-108835910D01*
X100870083Y-108710883D01*
X100995110Y-108558538D01*
X101088014Y-108384727D01*
X101145224Y-108196132D01*
X101164541Y-108000000D01*
X101145224Y-107803868D01*
X101088014Y-107615273D01*
X100995110Y-107441462D01*
X100995107Y-107441458D01*
X100995105Y-107441455D01*
X100941737Y-107376427D01*
X100870083Y-107289117D01*
X100798427Y-107230310D01*
X100717744Y-107164094D01*
X100717741Y-107164092D01*
X100717739Y-107164091D01*
X100717738Y-107164090D01*
X100637792Y-107121358D01*
X100543926Y-107071185D01*
X100419477Y-107033434D01*
X100390487Y-107009642D01*
X100384701Y-106986544D01*
X100384701Y-106944348D01*
X100384700Y-106944344D01*
X100372628Y-106915201D01*
X100350370Y-106861465D01*
X100350370Y-106861464D01*
X100286936Y-106798030D01*
X100284146Y-106795240D01*
X100284139Y-106795234D01*
X100028689Y-106539784D01*
X100014337Y-106505136D01*
X100028689Y-106470488D01*
X100063337Y-106456136D01*
X100068129Y-106456371D01*
X100159200Y-106465341D01*
X100355332Y-106446024D01*
X100543927Y-106388814D01*
X100717738Y-106295910D01*
X100870083Y-106170883D01*
X100995110Y-106018538D01*
X101088014Y-105844727D01*
X101145224Y-105656132D01*
X101164541Y-105460000D01*
X101145224Y-105263868D01*
X101088014Y-105075273D01*
X100995110Y-104901462D01*
X100995107Y-104901458D01*
X100995105Y-104901455D01*
X100941737Y-104836427D01*
X100870083Y-104749117D01*
X100798427Y-104690310D01*
X100717744Y-104624094D01*
X100717741Y-104624092D01*
X100717739Y-104624091D01*
X100717738Y-104624090D01*
X100637792Y-104581358D01*
X100543926Y-104531185D01*
X100355332Y-104473976D01*
X100159200Y-104454659D01*
X99963067Y-104473976D01*
X99963066Y-104473976D01*
X99774473Y-104531185D01*
X99600658Y-104624092D01*
X99600655Y-104624094D01*
X99448317Y-104749117D01*
X99323294Y-104901455D01*
X99323292Y-104901458D01*
X99253516Y-105031998D01*
X99224525Y-105055789D01*
X99187203Y-105052113D01*
X99175654Y-105043548D01*
X99153583Y-105021477D01*
X99123136Y-104991030D01*
X99123134Y-104991029D01*
X99120343Y-104988238D01*
X99120343Y-104988237D01*
X99120339Y-104988234D01*
X98505813Y-104373708D01*
X98492205Y-104347569D01*
X98479434Y-104275137D01*
X98426448Y-104183362D01*
X98426447Y-104183360D01*
X98345268Y-104115244D01*
X98323148Y-104107193D01*
X98295498Y-104081856D01*
X98293862Y-104044389D01*
X98305257Y-104026502D01*
X101589308Y-100742452D01*
X101623956Y-100728100D01*
X101626332Y-100728100D01*
X101660980Y-100742452D01*
G37*
%TD.AperFunction*%
%TA.AperFunction,NonConductor*%
G36*
X104346959Y-117147966D02*
G01*
X104352300Y-117170212D01*
X104352300Y-117338799D01*
X104337948Y-117373447D01*
X104134748Y-117576647D01*
X104100100Y-117590999D01*
X104065452Y-117576647D01*
X104051100Y-117541999D01*
X104051100Y-117226099D01*
X104065452Y-117191451D01*
X104100100Y-117177099D01*
X104117217Y-117177099D01*
X104117218Y-117177099D01*
X104211004Y-117162246D01*
X104281055Y-117126552D01*
X104318442Y-117123610D01*
X104346959Y-117147966D01*
G37*
%TD.AperFunction*%
%TA.AperFunction,NonConductor*%
G36*
X103585748Y-117191451D02*
G01*
X103600100Y-117226099D01*
X103600100Y-117560278D01*
X103585748Y-117594926D01*
X103551100Y-117609278D01*
X103534342Y-117606323D01*
X103497186Y-117592800D01*
X103482901Y-117592800D01*
X103448253Y-117578448D01*
X103130552Y-117260747D01*
X103116200Y-117226099D01*
X103130552Y-117191451D01*
X103165197Y-117177099D01*
X103551100Y-117177099D01*
X103585748Y-117191451D01*
G37*
%TD.AperFunction*%
%TA.AperFunction,NonConductor*%
G36*
X97399690Y-91628761D02*
G01*
X97405026Y-91646393D01*
X97409426Y-91688256D01*
X97467921Y-91868284D01*
X97487420Y-91902058D01*
X97492314Y-91939240D01*
X97479633Y-91961205D01*
X97446703Y-91994135D01*
X97439812Y-92001027D01*
X97439811Y-92001027D01*
X97376237Y-92064601D01*
X97338100Y-92156670D01*
X97338100Y-92156672D01*
X97338100Y-96516472D01*
X97338100Y-96616128D01*
X97376236Y-96708197D01*
X97376237Y-96708198D01*
X97376237Y-96708199D01*
X100153213Y-99485173D01*
X100167565Y-99519821D01*
X100153213Y-99554469D01*
X100118565Y-99568821D01*
X100108378Y-99567750D01*
X100095910Y-99565100D01*
X100095908Y-99565100D01*
X99904092Y-99565100D01*
X99716475Y-99604979D01*
X99716466Y-99604982D01*
X99541235Y-99683000D01*
X99386053Y-99795746D01*
X99386050Y-99795748D01*
X99257709Y-99938288D01*
X99257703Y-99938296D01*
X99161800Y-100104405D01*
X99161798Y-100104408D01*
X99126597Y-100212748D01*
X99102524Y-100286836D01*
X99082474Y-100477600D01*
X99102524Y-100668364D01*
X99161798Y-100850791D01*
X99257706Y-101016908D01*
X99257709Y-101016911D01*
X99386050Y-101159451D01*
X99386053Y-101159453D01*
X99386055Y-101159455D01*
X99541237Y-101272201D01*
X99716469Y-101350219D01*
X99904092Y-101390100D01*
X100095906Y-101390100D01*
X100095908Y-101390100D01*
X100108377Y-101387449D01*
X100145249Y-101394282D01*
X100166493Y-101425188D01*
X100159660Y-101462063D01*
X100153212Y-101470026D01*
X97406837Y-104216401D01*
X97368700Y-104308470D01*
X97368700Y-104454127D01*
X97354348Y-104488775D01*
X97333924Y-104501017D01*
X97234475Y-104531185D01*
X97234468Y-104531188D01*
X97060658Y-104624092D01*
X97060655Y-104624094D01*
X96908317Y-104749117D01*
X96783294Y-104901455D01*
X96783292Y-104901458D01*
X96690385Y-105075273D01*
X96633176Y-105263866D01*
X96633176Y-105263867D01*
X96613859Y-105459999D01*
X96613859Y-105460000D01*
X96633176Y-105656132D01*
X96633176Y-105656133D01*
X96690385Y-105844726D01*
X96714561Y-105889956D01*
X96783289Y-106018537D01*
X96783292Y-106018541D01*
X96783294Y-106018544D01*
X96849510Y-106099227D01*
X96908317Y-106170883D01*
X96974271Y-106225010D01*
X97060655Y-106295905D01*
X97060658Y-106295907D01*
X97060662Y-106295910D01*
X97234473Y-106388814D01*
X97333925Y-106418982D01*
X97362914Y-106442772D01*
X97368700Y-106465871D01*
X97368700Y-106611528D01*
X97406836Y-106703597D01*
X97406837Y-106703598D01*
X97406838Y-106703600D01*
X97477300Y-106774062D01*
X97477301Y-106774062D01*
X97477303Y-106774064D01*
X97569372Y-106812200D01*
X97669028Y-106812200D01*
X98113043Y-106812200D01*
X98147691Y-106826552D01*
X98236991Y-106915852D01*
X98251343Y-106950500D01*
X98236991Y-106985148D01*
X98202343Y-106999500D01*
X96754376Y-106999500D01*
X96710478Y-107008232D01*
X96660695Y-107041495D01*
X96627432Y-107091278D01*
X96618700Y-107135176D01*
X96618700Y-108864823D01*
X96627432Y-108908721D01*
X96660695Y-108958504D01*
X96701881Y-108986023D01*
X96710478Y-108991767D01*
X96754380Y-109000500D01*
X97344699Y-109000500D01*
X97379347Y-109014852D01*
X97393699Y-109049500D01*
X97393699Y-109121556D01*
X97417974Y-109180160D01*
X97428030Y-109204437D01*
X97498355Y-109274761D01*
X97498357Y-109274762D01*
X99908885Y-111685290D01*
X99922492Y-111711428D01*
X99935265Y-111783862D01*
X99988250Y-111875636D01*
X99988252Y-111875639D01*
X100069431Y-111943756D01*
X100169014Y-111980000D01*
X100274986Y-111980000D01*
X100374568Y-111943756D01*
X100455747Y-111875639D01*
X100455749Y-111875636D01*
X100457186Y-111873148D01*
X100482241Y-111829750D01*
X100508733Y-111783865D01*
X100508733Y-111783864D01*
X100508734Y-111783863D01*
X100527136Y-111679500D01*
X100508734Y-111575137D01*
X100508733Y-111575135D01*
X100508733Y-111575134D01*
X100455749Y-111483363D01*
X100455747Y-111483360D01*
X100374568Y-111415243D01*
X100274986Y-111379000D01*
X100260701Y-111379000D01*
X100226053Y-111364648D01*
X97945553Y-109084148D01*
X97931201Y-109049500D01*
X97945553Y-109014852D01*
X97980201Y-109000500D01*
X98484020Y-109000500D01*
X98527922Y-108991767D01*
X98577704Y-108958504D01*
X98610967Y-108908722D01*
X98619700Y-108864820D01*
X98619700Y-108491157D01*
X98634052Y-108456509D01*
X98668700Y-108442157D01*
X98703348Y-108456509D01*
X100684648Y-110437809D01*
X100699000Y-110472457D01*
X100699000Y-112084959D01*
X100686414Y-112117746D01*
X100557709Y-112260688D01*
X100557703Y-112260696D01*
X100461800Y-112426805D01*
X100461798Y-112426808D01*
X100402524Y-112609235D01*
X100382474Y-112800000D01*
X100400266Y-112969286D01*
X100389614Y-113005245D01*
X100386182Y-113009056D01*
X100055309Y-113339929D01*
X100020661Y-113354281D01*
X99986013Y-113339929D01*
X99971661Y-113305281D01*
X99975391Y-113286529D01*
X99977701Y-113280954D01*
X99977701Y-113191245D01*
X99977701Y-113187302D01*
X99977700Y-113187288D01*
X99977700Y-112314247D01*
X99977700Y-112314245D01*
X99943370Y-112231364D01*
X99943369Y-112231363D01*
X99943368Y-112231361D01*
X99879936Y-112167930D01*
X99879935Y-112167929D01*
X99386962Y-111674957D01*
X99386962Y-111674956D01*
X99316637Y-111604630D01*
X99292360Y-111594574D01*
X99233756Y-111570299D01*
X99233755Y-111570299D01*
X99144045Y-111570299D01*
X99138344Y-111570299D01*
X99138336Y-111570300D01*
X98367864Y-111570300D01*
X98367856Y-111570299D01*
X98362155Y-111570299D01*
X98272445Y-111570299D01*
X98272443Y-111570299D01*
X98272440Y-111570300D01*
X98213839Y-111594573D01*
X98213839Y-111594574D01*
X98201701Y-111599602D01*
X98189563Y-111604630D01*
X96249164Y-113545030D01*
X96185731Y-113608461D01*
X96185730Y-113608462D01*
X96180255Y-113621682D01*
X96180254Y-113621683D01*
X96170987Y-113644053D01*
X96144468Y-113670571D01*
X96125718Y-113674300D01*
X95895382Y-113674300D01*
X95801596Y-113689153D01*
X95688564Y-113746745D01*
X95688557Y-113746750D01*
X95598850Y-113836457D01*
X95598845Y-113836464D01*
X95541255Y-113949490D01*
X95541255Y-113949492D01*
X95541254Y-113949494D01*
X95541254Y-113949496D01*
X95526400Y-114043281D01*
X95526400Y-114043282D01*
X95526400Y-114756317D01*
X95541253Y-114850103D01*
X95598845Y-114963135D01*
X95598850Y-114963142D01*
X95688557Y-115052849D01*
X95688564Y-115052854D01*
X95801591Y-115110444D01*
X95801592Y-115110444D01*
X95801596Y-115110446D01*
X95895381Y-115125300D01*
X96858418Y-115125299D01*
X96952204Y-115110446D01*
X97017755Y-115077045D01*
X97055142Y-115074103D01*
X97083659Y-115098459D01*
X97089000Y-115120705D01*
X97089000Y-115728894D01*
X97074648Y-115763542D01*
X97040000Y-115777894D01*
X97017755Y-115772553D01*
X96952208Y-115739155D01*
X96952205Y-115739154D01*
X96952204Y-115739154D01*
X96858419Y-115724300D01*
X96858417Y-115724300D01*
X95895382Y-115724300D01*
X95801596Y-115739153D01*
X95688564Y-115796745D01*
X95688557Y-115796750D01*
X95598850Y-115886457D01*
X95598845Y-115886464D01*
X95541255Y-115999490D01*
X95541255Y-115999492D01*
X95541254Y-115999494D01*
X95541254Y-115999496D01*
X95530251Y-116068965D01*
X95526400Y-116093282D01*
X95526400Y-116806317D01*
X95541253Y-116900103D01*
X95547516Y-116912394D01*
X95550459Y-116949781D01*
X95538505Y-116969288D01*
X94911665Y-117596129D01*
X94848230Y-117659563D01*
X94848230Y-117659565D01*
X94821572Y-117723920D01*
X94795053Y-117750438D01*
X94757550Y-117750438D01*
X94731032Y-117723919D01*
X94727308Y-117705913D01*
X94727152Y-117695650D01*
X94707649Y-116413245D01*
X94707647Y-116413031D01*
X94700503Y-115000196D01*
X94700503Y-114999751D01*
X94700688Y-114963135D01*
X94707647Y-113586964D01*
X94707649Y-113586754D01*
X94728855Y-112192380D01*
X94763777Y-110818280D01*
X94763784Y-110818018D01*
X94812068Y-109466176D01*
X94812087Y-109465725D01*
X94814624Y-109410777D01*
X94873383Y-108137787D01*
X94873408Y-108137318D01*
X94873409Y-108137314D01*
X94947369Y-106835052D01*
X94947402Y-106834534D01*
X94948913Y-106812200D01*
X95033692Y-105559403D01*
X95033727Y-105558940D01*
X95041530Y-105460000D01*
X95131985Y-104312914D01*
X95132029Y-104312402D01*
X95241922Y-103097011D01*
X95241959Y-103096630D01*
X95363129Y-101913718D01*
X95363164Y-101913404D01*
X95495269Y-100764636D01*
X95495319Y-100764227D01*
X95532069Y-100477600D01*
X96542474Y-100477600D01*
X96562524Y-100668364D01*
X96621798Y-100850791D01*
X96717706Y-101016908D01*
X96717709Y-101016911D01*
X96846050Y-101159451D01*
X96846053Y-101159453D01*
X96846055Y-101159455D01*
X97001237Y-101272201D01*
X97176469Y-101350219D01*
X97364092Y-101390100D01*
X97555908Y-101390100D01*
X97743531Y-101350219D01*
X97918763Y-101272201D01*
X98073945Y-101159455D01*
X98202294Y-101016908D01*
X98298202Y-100850791D01*
X98357476Y-100668364D01*
X98377526Y-100477600D01*
X98357476Y-100286836D01*
X98298202Y-100104409D01*
X98202294Y-99938292D01*
X98140364Y-99869511D01*
X98073949Y-99795748D01*
X98073946Y-99795746D01*
X97952632Y-99707606D01*
X97918763Y-99682999D01*
X97743531Y-99604981D01*
X97743528Y-99604980D01*
X97743524Y-99604979D01*
X97555908Y-99565100D01*
X97364092Y-99565100D01*
X97176475Y-99604979D01*
X97176466Y-99604982D01*
X97001235Y-99683000D01*
X96846053Y-99795746D01*
X96846050Y-99795748D01*
X96717709Y-99938288D01*
X96717703Y-99938296D01*
X96621800Y-100104405D01*
X96621798Y-100104408D01*
X96586597Y-100212748D01*
X96562524Y-100286836D01*
X96542474Y-100477600D01*
X95532069Y-100477600D01*
X95637966Y-99651684D01*
X95638052Y-99651051D01*
X95790920Y-98576205D01*
X95790988Y-98575750D01*
X95953716Y-97540376D01*
X95953813Y-97539793D01*
X96126006Y-96545866D01*
X96126145Y-96545105D01*
X96131914Y-96514852D01*
X96307459Y-95594234D01*
X96307597Y-95593544D01*
X96497645Y-94687579D01*
X96497839Y-94686698D01*
X96696243Y-93827388D01*
X96696463Y-93826485D01*
X96902808Y-93015710D01*
X96903110Y-93014586D01*
X97116966Y-92254196D01*
X97117313Y-92253026D01*
X97309518Y-91636924D01*
X97333538Y-91608123D01*
X97370888Y-91604741D01*
X97399690Y-91628761D01*
G37*
%TD.AperFunction*%
%TA.AperFunction,NonConductor*%
G36*
X100666148Y-117804315D02*
G01*
X100667914Y-117806176D01*
X100736050Y-117881851D01*
X100736053Y-117881853D01*
X100736055Y-117881855D01*
X100891237Y-117994601D01*
X101066469Y-118072619D01*
X101254092Y-118112500D01*
X101445908Y-118112500D01*
X101553412Y-118089649D01*
X101590287Y-118096483D01*
X101611529Y-118127390D01*
X101612600Y-118137578D01*
X101612600Y-118666118D01*
X101598248Y-118700766D01*
X101563600Y-118715118D01*
X101541355Y-118709777D01*
X101452208Y-118664355D01*
X101452205Y-118664354D01*
X101452204Y-118664354D01*
X101358419Y-118649500D01*
X101358417Y-118649500D01*
X100631500Y-118649500D01*
X100596852Y-118635148D01*
X100582500Y-118600500D01*
X100582500Y-117838963D01*
X100596852Y-117804315D01*
X100631500Y-117789963D01*
X100666148Y-117804315D01*
G37*
%TD.AperFunction*%
%TA.AperFunction,NonConductor*%
G36*
X99315069Y-114969730D02*
G01*
X99316368Y-114968183D01*
X99400831Y-115039056D01*
X99500414Y-115075300D01*
X99606386Y-115075300D01*
X99705968Y-115039056D01*
X99738494Y-115011764D01*
X99769990Y-115000300D01*
X100027599Y-115000300D01*
X100062247Y-115014652D01*
X100626286Y-115578691D01*
X100640638Y-115613339D01*
X100626286Y-115647987D01*
X100608397Y-115659384D01*
X100556031Y-115678444D01*
X100474852Y-115746560D01*
X100474850Y-115746563D01*
X100421865Y-115838337D01*
X100409092Y-115910769D01*
X100395485Y-115936907D01*
X100229265Y-116103129D01*
X100165830Y-116166563D01*
X100165830Y-116166565D01*
X100131499Y-116249443D01*
X100131499Y-116344855D01*
X100131500Y-116344864D01*
X100131500Y-119012000D01*
X100117148Y-119046648D01*
X100082500Y-119061000D01*
X99411600Y-119061000D01*
X99376952Y-119046648D01*
X99362600Y-119012000D01*
X99362600Y-118771680D01*
X99362599Y-118771676D01*
X99353867Y-118727778D01*
X99320604Y-118677995D01*
X99270821Y-118644732D01*
X99226923Y-118636000D01*
X99226920Y-118636000D01*
X97797280Y-118636000D01*
X97797276Y-118636000D01*
X97753378Y-118644732D01*
X97703595Y-118677995D01*
X97670332Y-118727778D01*
X97661600Y-118771676D01*
X97661600Y-119011999D01*
X97647248Y-119046647D01*
X97612600Y-119060999D01*
X97540544Y-119060999D01*
X97522655Y-119068410D01*
X97457662Y-119095331D01*
X97457661Y-119095331D01*
X97394230Y-119158764D01*
X97064430Y-119488563D01*
X97064430Y-119488565D01*
X97036599Y-119555752D01*
X97010080Y-119582270D01*
X96991329Y-119586000D01*
X96798101Y-119586000D01*
X96763453Y-119571648D01*
X96749101Y-119537000D01*
X96763453Y-119502352D01*
X96840676Y-119425129D01*
X97435343Y-118830460D01*
X97435346Y-118830459D01*
X97442235Y-118823570D01*
X97442236Y-118823570D01*
X97505670Y-118760136D01*
X97521487Y-118721950D01*
X97540001Y-118677254D01*
X97540001Y-118587545D01*
X97540001Y-118583602D01*
X97540000Y-118583588D01*
X97540000Y-115560498D01*
X97554352Y-115525850D01*
X97589000Y-115511498D01*
X97623648Y-115525850D01*
X97625414Y-115527711D01*
X97727224Y-115640784D01*
X97727227Y-115640786D01*
X97727229Y-115640788D01*
X97880370Y-115752051D01*
X98053297Y-115829044D01*
X98238454Y-115868400D01*
X98427746Y-115868400D01*
X98500313Y-115852975D01*
X98537187Y-115859809D01*
X98558429Y-115890716D01*
X98559500Y-115900904D01*
X98559500Y-116281048D01*
X98545148Y-116315696D01*
X98528594Y-116325841D01*
X98528815Y-116326337D01*
X98526471Y-116327380D01*
X98526469Y-116327381D01*
X98390979Y-116387705D01*
X98351235Y-116405400D01*
X98196053Y-116518146D01*
X98196050Y-116518148D01*
X98067709Y-116660688D01*
X98067703Y-116660696D01*
X97971800Y-116826805D01*
X97971798Y-116826808D01*
X97912524Y-117009235D01*
X97905466Y-117076392D01*
X97892474Y-117200000D01*
X97912524Y-117390764D01*
X97971798Y-117573191D01*
X98067706Y-117739308D01*
X98083812Y-117757196D01*
X98196050Y-117881851D01*
X98196053Y-117881853D01*
X98196055Y-117881855D01*
X98351237Y-117994601D01*
X98526469Y-118072619D01*
X98714092Y-118112500D01*
X98905908Y-118112500D01*
X99093531Y-118072619D01*
X99268763Y-117994601D01*
X99423945Y-117881855D01*
X99424981Y-117880705D01*
X99483388Y-117815836D01*
X99552294Y-117739308D01*
X99648202Y-117573191D01*
X99707476Y-117390764D01*
X99727526Y-117200000D01*
X99707476Y-117009236D01*
X99648202Y-116826809D01*
X99552294Y-116660692D01*
X99495351Y-116597450D01*
X99423949Y-116518148D01*
X99423946Y-116518146D01*
X99279418Y-116413140D01*
X99268763Y-116405399D01*
X99093531Y-116327381D01*
X99093528Y-116327380D01*
X99091185Y-116326337D01*
X99091634Y-116325326D01*
X99065838Y-116303287D01*
X99060500Y-116281048D01*
X99060500Y-115522136D01*
X99067065Y-115497636D01*
X99126200Y-115395210D01*
X99160279Y-115336184D01*
X99218774Y-115156156D01*
X99235236Y-114999518D01*
X99253131Y-114966562D01*
X99289090Y-114955910D01*
X99315069Y-114969730D01*
G37*
%TD.AperFunction*%
%TA.AperFunction,NonConductor*%
G36*
X97083659Y-117148459D02*
G01*
X97089000Y-117170705D01*
X97089000Y-118518698D01*
X97074648Y-118553346D01*
X96120930Y-119507063D01*
X96118885Y-119512000D01*
X96110874Y-119531339D01*
X96110874Y-119531340D01*
X96110873Y-119531339D01*
X96100762Y-119555751D01*
X96074244Y-119582270D01*
X96055492Y-119586000D01*
X95659900Y-119586000D01*
X95625252Y-119571648D01*
X95610900Y-119537000D01*
X95610900Y-119527501D01*
X95625252Y-119492853D01*
X96469453Y-118648652D01*
X96504101Y-118634300D01*
X96518386Y-118634300D01*
X96617968Y-118598056D01*
X96699147Y-118529939D01*
X96699149Y-118529936D01*
X96752133Y-118438165D01*
X96752133Y-118438164D01*
X96752134Y-118438163D01*
X96770536Y-118333800D01*
X96752134Y-118229437D01*
X96752133Y-118229435D01*
X96752133Y-118229434D01*
X96699149Y-118137663D01*
X96699147Y-118137660D01*
X96617968Y-118069543D01*
X96518386Y-118033300D01*
X96412414Y-118033300D01*
X96312831Y-118069543D01*
X96231652Y-118137660D01*
X96231650Y-118137663D01*
X96178665Y-118229437D01*
X96165892Y-118301870D01*
X96152285Y-118328008D01*
X95348548Y-119131746D01*
X95313900Y-119146098D01*
X95279252Y-119131746D01*
X95264900Y-119097098D01*
X95264900Y-117901000D01*
X95279251Y-117866353D01*
X95955953Y-117189650D01*
X95990601Y-117175299D01*
X96858417Y-117175299D01*
X96858418Y-117175299D01*
X96952204Y-117160446D01*
X97017755Y-117127045D01*
X97055142Y-117124103D01*
X97083659Y-117148459D01*
G37*
%TD.AperFunction*%
%TA.AperFunction,NonConductor*%
G36*
X100212049Y-119526352D02*
G01*
X100226401Y-119561000D01*
X100226401Y-119981517D01*
X100241253Y-120075303D01*
X100285965Y-120163055D01*
X100288908Y-120200442D01*
X100264551Y-120228959D01*
X100242306Y-120234300D01*
X97645345Y-120234300D01*
X97645343Y-120234300D01*
X97645341Y-120234301D01*
X97562463Y-120268630D01*
X97558448Y-120271313D01*
X97557213Y-120269465D01*
X97530100Y-120280697D01*
X97495452Y-120266345D01*
X97481100Y-120231697D01*
X97481100Y-119730001D01*
X97495452Y-119695353D01*
X97577952Y-119612853D01*
X97612600Y-119598501D01*
X97647248Y-119612853D01*
X97661600Y-119647501D01*
X97661600Y-119801323D01*
X97670332Y-119845221D01*
X97703595Y-119895004D01*
X97753378Y-119928267D01*
X97797280Y-119937000D01*
X99226920Y-119937000D01*
X99270822Y-119928267D01*
X99320604Y-119895004D01*
X99353867Y-119845222D01*
X99362600Y-119801320D01*
X99362600Y-119561000D01*
X99376952Y-119526352D01*
X99411600Y-119512000D01*
X100177401Y-119512000D01*
X100212049Y-119526352D01*
G37*
%TD.AperFunction*%
%TA.AperFunction,NonConductor*%
G36*
X102342240Y-117110624D02*
G01*
X102346052Y-117114057D01*
X103131085Y-117899090D01*
X103144692Y-117925228D01*
X103157465Y-117997662D01*
X103210450Y-118089436D01*
X103210452Y-118089439D01*
X103291631Y-118157556D01*
X103391214Y-118193800D01*
X103497185Y-118193800D01*
X103497186Y-118193800D01*
X103534343Y-118180276D01*
X103571808Y-118181912D01*
X103597145Y-118209562D01*
X103600100Y-118226321D01*
X103600100Y-118659749D01*
X103585748Y-118694397D01*
X103551100Y-118708749D01*
X103528855Y-118703409D01*
X103478976Y-118677995D01*
X103452204Y-118664354D01*
X103358419Y-118649500D01*
X103358417Y-118649500D01*
X102595382Y-118649500D01*
X102501596Y-118664353D01*
X102388564Y-118721945D01*
X102388557Y-118721950D01*
X102298850Y-118811657D01*
X102298845Y-118811664D01*
X102241255Y-118924690D01*
X102241255Y-118924692D01*
X102241254Y-118924694D01*
X102241254Y-118924696D01*
X102226400Y-119018481D01*
X102226400Y-119018482D01*
X102226400Y-119981517D01*
X102241253Y-120075303D01*
X102298845Y-120188335D01*
X102298850Y-120188342D01*
X102381648Y-120271140D01*
X102396000Y-120305788D01*
X102396000Y-120533700D01*
X102381648Y-120568348D01*
X102347000Y-120582700D01*
X101863301Y-120582700D01*
X101828653Y-120568348D01*
X101814301Y-120533700D01*
X101828653Y-120499052D01*
X101893557Y-120434147D01*
X101958943Y-120368760D01*
X101958946Y-120368759D01*
X101965835Y-120361870D01*
X101965836Y-120361870D01*
X102029270Y-120298436D01*
X102063600Y-120215555D01*
X102063600Y-117789984D01*
X102076186Y-117757197D01*
X102092294Y-117739308D01*
X102188202Y-117573191D01*
X102247476Y-117390764D01*
X102267526Y-117200000D01*
X102262672Y-117153824D01*
X102273323Y-117117869D01*
X102306282Y-117099973D01*
X102342240Y-117110624D01*
G37*
%TD.AperFunction*%
%TA.AperFunction,NonConductor*%
G36*
X103292847Y-120364851D02*
G01*
X103307199Y-120399499D01*
X103292847Y-120434147D01*
X103012626Y-120714367D01*
X102977978Y-120728719D01*
X102943330Y-120714367D01*
X102935547Y-120704225D01*
X102903563Y-120648828D01*
X102897000Y-120624330D01*
X102897000Y-120399499D01*
X102911352Y-120364851D01*
X102946000Y-120350499D01*
X103258199Y-120350499D01*
X103292847Y-120364851D01*
G37*
%TD.AperFunction*%
%TA.AperFunction,NonConductor*%
G36*
X100463446Y-121098052D02*
G01*
X100477798Y-121132700D01*
X100463446Y-121167348D01*
X99607884Y-122022910D01*
X99573236Y-122037262D01*
X99538588Y-122022910D01*
X99526741Y-121994311D01*
X99524980Y-121994622D01*
X99521988Y-121977653D01*
X99505834Y-121886037D01*
X99505833Y-121886035D01*
X99505833Y-121886034D01*
X99452849Y-121794263D01*
X99452847Y-121794260D01*
X99380103Y-121733221D01*
X99362786Y-121699956D01*
X99362600Y-121695685D01*
X99362600Y-121486000D01*
X99376952Y-121451352D01*
X99411600Y-121437000D01*
X99513626Y-121437000D01*
X99513628Y-121437000D01*
X99605697Y-121398864D01*
X99906508Y-121098051D01*
X99941156Y-121083700D01*
X100428798Y-121083700D01*
X100463446Y-121098052D01*
G37*
%TD.AperFunction*%
%TA.AperFunction,NonConductor*%
G36*
X96821447Y-120901352D02*
G01*
X96835799Y-120936000D01*
X96821447Y-120970648D01*
X96720565Y-121071529D01*
X96657132Y-121134961D01*
X96657129Y-121134966D01*
X96653223Y-121144398D01*
X96653222Y-121144400D01*
X96622799Y-121217843D01*
X96622799Y-121313255D01*
X96622800Y-121313264D01*
X96622800Y-121998999D01*
X96608448Y-122033647D01*
X96573800Y-122047999D01*
X96539152Y-122033647D01*
X95625252Y-121119747D01*
X95610900Y-121085099D01*
X95610900Y-120936000D01*
X95625252Y-120901352D01*
X95659900Y-120887000D01*
X96786799Y-120887000D01*
X96821447Y-120901352D01*
G37*
%TD.AperFunction*%
%TA.AperFunction,NonConductor*%
G36*
X99063800Y-122252363D02*
G01*
X99066532Y-122254656D01*
X99151723Y-122285662D01*
X99179374Y-122310998D01*
X99181010Y-122348465D01*
X99160977Y-122372342D01*
X99161016Y-122372388D01*
X99160755Y-122372606D01*
X99159469Y-122374140D01*
X99157733Y-122375142D01*
X99076552Y-122443260D01*
X99076550Y-122443263D01*
X99050135Y-122489016D01*
X99020382Y-122511846D01*
X98983200Y-122506951D01*
X98960370Y-122477198D01*
X98958700Y-122464516D01*
X98958700Y-122289900D01*
X98973052Y-122255252D01*
X99007700Y-122240900D01*
X99032304Y-122240900D01*
X99063800Y-122252363D01*
G37*
%TD.AperFunction*%
%TA.AperFunction,NonConductor*%
G36*
X105248695Y-118090905D02*
G01*
X105263047Y-118125553D01*
X105263031Y-118126798D01*
X105236224Y-119181577D01*
X105236209Y-119182081D01*
X105187931Y-120533762D01*
X105187910Y-120534272D01*
X105126615Y-121862164D01*
X105126588Y-121862683D01*
X105054121Y-123138663D01*
X105037828Y-123172442D01*
X105002422Y-123184806D01*
X104968643Y-123168513D01*
X104956200Y-123135885D01*
X104956200Y-118334400D01*
X104970551Y-118299753D01*
X105179399Y-118090904D01*
X105214047Y-118076553D01*
X105248695Y-118090905D01*
G37*
%TD.AperFunction*%
%TA.AperFunction,NonConductor*%
G36*
X94977618Y-122222334D02*
G01*
X94979638Y-122224243D01*
X95062548Y-122307153D01*
X95076900Y-122341801D01*
X95076900Y-123629259D01*
X95062548Y-123663907D01*
X95027900Y-123678259D01*
X94993252Y-123663907D01*
X94979012Y-123632567D01*
X94947402Y-123165463D01*
X94947369Y-123164933D01*
X94936952Y-122981517D01*
X94896069Y-122261667D01*
X94908433Y-122226263D01*
X94942212Y-122209970D01*
X94977618Y-122222334D01*
G37*
%TD.AperFunction*%
%TA.AperFunction,NonConductor*%
G36*
X97647249Y-121391053D02*
G01*
X97661600Y-121425700D01*
X97661600Y-121701323D01*
X97670332Y-121745221D01*
X97703595Y-121795004D01*
X97753378Y-121828267D01*
X97797280Y-121837000D01*
X98225907Y-121837000D01*
X98260555Y-121851352D01*
X98271177Y-121867249D01*
X98299736Y-121936197D01*
X98299737Y-121936199D01*
X98443348Y-122079809D01*
X98457700Y-122114457D01*
X98457700Y-124600500D01*
X98443348Y-124635148D01*
X98408701Y-124649500D01*
X98326682Y-124649500D01*
X98232896Y-124664353D01*
X98119864Y-124721945D01*
X98119856Y-124721951D01*
X98030153Y-124811653D01*
X98027886Y-124814775D01*
X98026319Y-124813637D01*
X98002782Y-124833720D01*
X97965396Y-124830760D01*
X97956166Y-124824647D01*
X97926368Y-124799643D01*
X97826786Y-124763400D01*
X97812501Y-124763400D01*
X97777853Y-124749048D01*
X97471948Y-124443143D01*
X97457596Y-124408495D01*
X97471948Y-124373847D01*
X97489838Y-124362450D01*
X97496968Y-124359856D01*
X97537558Y-124325797D01*
X97578145Y-124291741D01*
X97578146Y-124291739D01*
X97578148Y-124291738D01*
X97631134Y-124199963D01*
X97649536Y-124095600D01*
X97631134Y-123991237D01*
X97631133Y-123991235D01*
X97631133Y-123991234D01*
X97578149Y-123899463D01*
X97578147Y-123899460D01*
X97496968Y-123831343D01*
X97397386Y-123795100D01*
X97383102Y-123795100D01*
X97348454Y-123780748D01*
X97088152Y-123520446D01*
X97073800Y-123485798D01*
X97073800Y-121727779D01*
X97088152Y-121693131D01*
X97122800Y-121678779D01*
X97139556Y-121681733D01*
X97195514Y-121702100D01*
X97195515Y-121702100D01*
X97301486Y-121702100D01*
X97401068Y-121665856D01*
X97482247Y-121597739D01*
X97482249Y-121597736D01*
X97490907Y-121582740D01*
X97535234Y-121505963D01*
X97548005Y-121433527D01*
X97561612Y-121407391D01*
X97577953Y-121391050D01*
X97612601Y-121376700D01*
X97647249Y-121391053D01*
G37*
%TD.AperFunction*%
%TA.AperFunction,NonConductor*%
G36*
X96010548Y-122142853D02*
G01*
X96258748Y-122391053D01*
X96273100Y-122425701D01*
X96273100Y-123739888D01*
X96273099Y-123739902D01*
X96273099Y-123833556D01*
X96283900Y-123859632D01*
X96283902Y-123859634D01*
X96307430Y-123916436D01*
X96307431Y-123916437D01*
X96307431Y-123916438D01*
X96377755Y-123986761D01*
X96377757Y-123986762D01*
X96956847Y-124565852D01*
X96971199Y-124600500D01*
X96956847Y-124635148D01*
X96922199Y-124649500D01*
X96326682Y-124649500D01*
X96232896Y-124664353D01*
X96119864Y-124721945D01*
X96119857Y-124721950D01*
X96030150Y-124811657D01*
X96030146Y-124811662D01*
X96019559Y-124832442D01*
X95991041Y-124856798D01*
X95953654Y-124853855D01*
X95929298Y-124825337D01*
X95926900Y-124810196D01*
X95926900Y-122177501D01*
X95941252Y-122142853D01*
X95975900Y-122128501D01*
X96010548Y-122142853D01*
G37*
%TD.AperFunction*%
%TA.AperFunction,NonConductor*%
G36*
X104490848Y-125037653D02*
G01*
X104505200Y-125072301D01*
X104505200Y-125594998D01*
X104490848Y-125629646D01*
X104387748Y-125732746D01*
X104353100Y-125747098D01*
X104318452Y-125732746D01*
X104304100Y-125698098D01*
X104304100Y-125175401D01*
X104318452Y-125140753D01*
X104421552Y-125037653D01*
X104456200Y-125023301D01*
X104490848Y-125037653D01*
G37*
%TD.AperFunction*%
%TA.AperFunction,NonConductor*%
G36*
X97539196Y-125259320D02*
G01*
X97621231Y-125328156D01*
X97720814Y-125364400D01*
X97826785Y-125364400D01*
X97826786Y-125364400D01*
X97891943Y-125340685D01*
X97929408Y-125342321D01*
X97954745Y-125369971D01*
X97957700Y-125386730D01*
X97957700Y-125981517D01*
X97972553Y-126075303D01*
X98030145Y-126188335D01*
X98030150Y-126188342D01*
X98101860Y-126260052D01*
X98116212Y-126294700D01*
X98101860Y-126329348D01*
X98067212Y-126343700D01*
X97891101Y-126343700D01*
X97856453Y-126329348D01*
X97473051Y-125945946D01*
X97458699Y-125911298D01*
X97458699Y-125296856D01*
X97473051Y-125262208D01*
X97507699Y-125247856D01*
X97539196Y-125259320D01*
G37*
%TD.AperFunction*%
%TA.AperFunction,NonConductor*%
G36*
X104821483Y-126006115D02*
G01*
X104835835Y-126040763D01*
X104835636Y-126045176D01*
X104789801Y-126552114D01*
X104772387Y-126585329D01*
X104736588Y-126596503D01*
X104703373Y-126579089D01*
X104692000Y-126547702D01*
X104692000Y-126086600D01*
X104706349Y-126051955D01*
X104752190Y-126006114D01*
X104786834Y-125991764D01*
X104821483Y-126006115D01*
G37*
%TD.AperFunction*%
%TA.AperFunction,NonConductor*%
G36*
X100212048Y-122125851D02*
G01*
X100226400Y-122160499D01*
X100226400Y-122981517D01*
X100241253Y-123075303D01*
X100298845Y-123188335D01*
X100298850Y-123188342D01*
X100388557Y-123278049D01*
X100388564Y-123278054D01*
X100501591Y-123335644D01*
X100501592Y-123335644D01*
X100501596Y-123335646D01*
X100595381Y-123350500D01*
X100677399Y-123350499D01*
X100712048Y-123364850D01*
X100726400Y-123399498D01*
X100726400Y-124600500D01*
X100712048Y-124635148D01*
X100677401Y-124649500D01*
X100595382Y-124649500D01*
X100501596Y-124664353D01*
X100388564Y-124721945D01*
X100388557Y-124721950D01*
X100298850Y-124811657D01*
X100298845Y-124811664D01*
X100241255Y-124924690D01*
X100241255Y-124924692D01*
X100241254Y-124924694D01*
X100241254Y-124924696D01*
X100231144Y-124988528D01*
X100226400Y-125018482D01*
X100226400Y-125981517D01*
X100241253Y-126075303D01*
X100298845Y-126188335D01*
X100298850Y-126188342D01*
X100388557Y-126278049D01*
X100388564Y-126278054D01*
X100501591Y-126335644D01*
X100501592Y-126335644D01*
X100501596Y-126335646D01*
X100595381Y-126350500D01*
X100677399Y-126350499D01*
X100712048Y-126364850D01*
X100726400Y-126399498D01*
X100726400Y-126494542D01*
X100712048Y-126529190D01*
X100645777Y-126595460D01*
X100627888Y-126606857D01*
X100539731Y-126638944D01*
X100458552Y-126707060D01*
X100458550Y-126707063D01*
X100421313Y-126771560D01*
X100391560Y-126794390D01*
X100354378Y-126789495D01*
X100344231Y-126781709D01*
X99473052Y-125910567D01*
X99458699Y-125875919D01*
X99458699Y-125018482D01*
X99443846Y-124924696D01*
X99386254Y-124811664D01*
X99386249Y-124811657D01*
X99296542Y-124721950D01*
X99296535Y-124721945D01*
X99183508Y-124664355D01*
X99183505Y-124664354D01*
X99183504Y-124664354D01*
X99089719Y-124649500D01*
X99089717Y-124649500D01*
X99007700Y-124649500D01*
X98973052Y-124635148D01*
X98958700Y-124600500D01*
X98958700Y-122814283D01*
X98973052Y-122779635D01*
X99007700Y-122765283D01*
X99042348Y-122779635D01*
X99050135Y-122789783D01*
X99076550Y-122835536D01*
X99076552Y-122835539D01*
X99157731Y-122903656D01*
X99257314Y-122939900D01*
X99363286Y-122939900D01*
X99462868Y-122903656D01*
X99544047Y-122835539D01*
X99544049Y-122835536D01*
X99597034Y-122743763D01*
X99609805Y-122671327D01*
X99623411Y-122645192D01*
X100142753Y-122125850D01*
X100177400Y-122111499D01*
X100212048Y-122125851D01*
G37*
%TD.AperFunction*%
%TA.AperFunction,NonConductor*%
G36*
X103887448Y-120546652D02*
G01*
X103901800Y-120581300D01*
X103901800Y-121146546D01*
X103887448Y-121181194D01*
X103852800Y-121195546D01*
X103836042Y-121192591D01*
X103784686Y-121173900D01*
X103678714Y-121173900D01*
X103579131Y-121210143D01*
X103497952Y-121278260D01*
X103497950Y-121278263D01*
X103444966Y-121370034D01*
X103426564Y-121474400D01*
X103444966Y-121578764D01*
X103447262Y-121582740D01*
X103452156Y-121619922D01*
X103429325Y-121649675D01*
X103397161Y-121655636D01*
X103382636Y-121653335D01*
X103358419Y-121649500D01*
X103358418Y-121649500D01*
X102595382Y-121649500D01*
X102501596Y-121664353D01*
X102388564Y-121721945D01*
X102388557Y-121721950D01*
X102298850Y-121811657D01*
X102298845Y-121811664D01*
X102241255Y-121924690D01*
X102241255Y-121924692D01*
X102241254Y-121924694D01*
X102241254Y-121924696D01*
X102230848Y-121990400D01*
X102226400Y-122018482D01*
X102226400Y-122981517D01*
X102241253Y-123075303D01*
X102298845Y-123188335D01*
X102298850Y-123188342D01*
X102388557Y-123278049D01*
X102388564Y-123278054D01*
X102501591Y-123335644D01*
X102501592Y-123335644D01*
X102501596Y-123335646D01*
X102595381Y-123350500D01*
X103358418Y-123350499D01*
X103452204Y-123335646D01*
X103513287Y-123304522D01*
X103565235Y-123278054D01*
X103565237Y-123278052D01*
X103565242Y-123278050D01*
X103654950Y-123188342D01*
X103656752Y-123184806D01*
X103712544Y-123075309D01*
X103712544Y-123075307D01*
X103712546Y-123075304D01*
X103727400Y-122981519D01*
X103727399Y-122088700D01*
X103741750Y-122054054D01*
X103818152Y-121977653D01*
X103852800Y-121963301D01*
X103887448Y-121977653D01*
X103901800Y-122012301D01*
X103901800Y-124235897D01*
X103887448Y-124270545D01*
X103504710Y-124653283D01*
X103470062Y-124667635D01*
X103454922Y-124665237D01*
X103452209Y-124664355D01*
X103452204Y-124664354D01*
X103358419Y-124649500D01*
X103358417Y-124649500D01*
X102595382Y-124649500D01*
X102501596Y-124664353D01*
X102388564Y-124721945D01*
X102388557Y-124721950D01*
X102298850Y-124811657D01*
X102298845Y-124811664D01*
X102241255Y-124924690D01*
X102241255Y-124924692D01*
X102241254Y-124924694D01*
X102241254Y-124924696D01*
X102231144Y-124988528D01*
X102226400Y-125018482D01*
X102226400Y-125981517D01*
X102241253Y-126075303D01*
X102298845Y-126188335D01*
X102298850Y-126188342D01*
X102388557Y-126278049D01*
X102388564Y-126278054D01*
X102501591Y-126335644D01*
X102501592Y-126335644D01*
X102501596Y-126335646D01*
X102595381Y-126350500D01*
X103358418Y-126350499D01*
X103452204Y-126335646D01*
X103532565Y-126294700D01*
X103565235Y-126278054D01*
X103565237Y-126278052D01*
X103565242Y-126278050D01*
X103654950Y-126188342D01*
X103654954Y-126188335D01*
X103712544Y-126075309D01*
X103712544Y-126075307D01*
X103712546Y-126075304D01*
X103727400Y-125981519D01*
X103727399Y-125088700D01*
X103741750Y-125054054D01*
X103769452Y-125026352D01*
X103804100Y-125012002D01*
X103838748Y-125026354D01*
X103853099Y-125061002D01*
X103853099Y-125112255D01*
X103853100Y-125112264D01*
X103853100Y-127403309D01*
X103838748Y-127437957D01*
X103804100Y-127452309D01*
X103785349Y-127448579D01*
X103763432Y-127439501D01*
X103763429Y-127439500D01*
X103763428Y-127439500D01*
X103763426Y-127439500D01*
X103661400Y-127439500D01*
X103626752Y-127425148D01*
X103612400Y-127390500D01*
X103612400Y-127375180D01*
X103612399Y-127375176D01*
X103610107Y-127363656D01*
X103603667Y-127331278D01*
X103592561Y-127314656D01*
X103570404Y-127281495D01*
X103520621Y-127248232D01*
X103476723Y-127239500D01*
X103476720Y-127239500D01*
X101477080Y-127239500D01*
X101477076Y-127239500D01*
X101433178Y-127248232D01*
X101383395Y-127281495D01*
X101350132Y-127331278D01*
X101341400Y-127375176D01*
X101341400Y-127390500D01*
X101327048Y-127425148D01*
X101292400Y-127439500D01*
X101191870Y-127439500D01*
X101099801Y-127477636D01*
X101097498Y-127479176D01*
X101060715Y-127486489D01*
X101035632Y-127473080D01*
X101034839Y-127472287D01*
X100815037Y-127252495D01*
X100800685Y-127217848D01*
X100815036Y-127183200D01*
X100832928Y-127171802D01*
X100844863Y-127167458D01*
X100844863Y-127167457D01*
X100844868Y-127167456D01*
X100885458Y-127133397D01*
X100926045Y-127099341D01*
X100926046Y-127099339D01*
X100926048Y-127099338D01*
X100979034Y-127007563D01*
X100984236Y-126978053D01*
X100997842Y-126951917D01*
X101189264Y-126760497D01*
X101227400Y-126668428D01*
X101227400Y-126568772D01*
X101227400Y-126399498D01*
X101241752Y-126364851D01*
X101276400Y-126350499D01*
X101358417Y-126350499D01*
X101358418Y-126350499D01*
X101452204Y-126335646D01*
X101532565Y-126294700D01*
X101565235Y-126278054D01*
X101565237Y-126278052D01*
X101565242Y-126278050D01*
X101654950Y-126188342D01*
X101654954Y-126188335D01*
X101712544Y-126075309D01*
X101712544Y-126075307D01*
X101712546Y-126075304D01*
X101727400Y-125981519D01*
X101727399Y-125018482D01*
X101712546Y-124924696D01*
X101684947Y-124870530D01*
X101654954Y-124811664D01*
X101654949Y-124811657D01*
X101565242Y-124721950D01*
X101565235Y-124721945D01*
X101452208Y-124664355D01*
X101452205Y-124664354D01*
X101452204Y-124664354D01*
X101358419Y-124649500D01*
X101358417Y-124649500D01*
X101276400Y-124649500D01*
X101241752Y-124635148D01*
X101227400Y-124600500D01*
X101227400Y-123399499D01*
X101241752Y-123364851D01*
X101276400Y-123350499D01*
X101358417Y-123350499D01*
X101358418Y-123350499D01*
X101452204Y-123335646D01*
X101513287Y-123304522D01*
X101565235Y-123278054D01*
X101565237Y-123278052D01*
X101565242Y-123278050D01*
X101654950Y-123188342D01*
X101656752Y-123184806D01*
X101712544Y-123075309D01*
X101712544Y-123075307D01*
X101712546Y-123075304D01*
X101727400Y-122981519D01*
X101727399Y-122018482D01*
X101712546Y-121924696D01*
X101691289Y-121882976D01*
X101654954Y-121811664D01*
X101654949Y-121811657D01*
X101565242Y-121721950D01*
X101565235Y-121721945D01*
X101452208Y-121664355D01*
X101452205Y-121664354D01*
X101452204Y-121664354D01*
X101358419Y-121649500D01*
X101358417Y-121649500D01*
X100737400Y-121649500D01*
X100702752Y-121635148D01*
X100688400Y-121600500D01*
X100702752Y-121565852D01*
X100721505Y-121547100D01*
X100808153Y-121460452D01*
X100842801Y-121446100D01*
X102774736Y-121446100D01*
X102774744Y-121446101D01*
X102780445Y-121446101D01*
X102870153Y-121446101D01*
X102870155Y-121446101D01*
X102928760Y-121421825D01*
X102945464Y-121414906D01*
X102953032Y-121411772D01*
X102953033Y-121411771D01*
X102953036Y-121411770D01*
X103016470Y-121348336D01*
X103016470Y-121348335D01*
X103023359Y-121341446D01*
X103023360Y-121341443D01*
X103818153Y-120546651D01*
X103852800Y-120532300D01*
X103887448Y-120546652D01*
G37*
%TD.AperFunction*%
%TA.AperFunction,NonConductor*%
G36*
X95611548Y-126333108D02*
G01*
X96467032Y-127188592D01*
X96481384Y-127223240D01*
X96467032Y-127257888D01*
X96459607Y-127263982D01*
X96433394Y-127281496D01*
X96400132Y-127331278D01*
X96391400Y-127375176D01*
X96391400Y-127722898D01*
X96377048Y-127757546D01*
X96342400Y-127771898D01*
X96307752Y-127757546D01*
X95542252Y-126992046D01*
X95527900Y-126957398D01*
X95527900Y-126367756D01*
X95542252Y-126333108D01*
X95576900Y-126318756D01*
X95611548Y-126333108D01*
G37*
%TD.AperFunction*%
%TA.AperFunction,NonConductor*%
G36*
X99200586Y-126347470D02*
G01*
X99206431Y-126352463D01*
X100718041Y-127864009D01*
X100731650Y-127890149D01*
X100750766Y-127998565D01*
X100758916Y-128012680D01*
X100763811Y-128049862D01*
X100740981Y-128079615D01*
X100703799Y-128084510D01*
X100681833Y-128071828D01*
X99058362Y-126448357D01*
X99058362Y-126448356D01*
X99044153Y-126434147D01*
X99029801Y-126399499D01*
X99044153Y-126364851D01*
X99078801Y-126350499D01*
X99089716Y-126350499D01*
X99089718Y-126350499D01*
X99164121Y-126338715D01*
X99200586Y-126347470D01*
G37*
%TD.AperFunction*%
%TA.AperFunction,NonConductor*%
G36*
X104703443Y-127290419D02*
G01*
X104714722Y-127326186D01*
X104714653Y-127326910D01*
X104636881Y-128086149D01*
X104636815Y-128086754D01*
X104624216Y-128196308D01*
X104606000Y-128229090D01*
X104569939Y-128239389D01*
X104544040Y-128228246D01*
X104461568Y-128159043D01*
X104361986Y-128122800D01*
X104353100Y-128122800D01*
X104318452Y-128108448D01*
X104304100Y-128073800D01*
X104304100Y-127363656D01*
X104318452Y-127329008D01*
X104353100Y-127314656D01*
X104369857Y-127317610D01*
X104413514Y-127333500D01*
X104413515Y-127333500D01*
X104519486Y-127333500D01*
X104619068Y-127297256D01*
X104634411Y-127284381D01*
X104670177Y-127273103D01*
X104703443Y-127290419D01*
G37*
%TD.AperFunction*%
%TA.AperFunction,NonConductor*%
G36*
X97223600Y-126337700D02*
G01*
X97236011Y-126346716D01*
X97583434Y-126694139D01*
X97583437Y-126694143D01*
X97649661Y-126760368D01*
X97649663Y-126760369D01*
X97649664Y-126760370D01*
X97732545Y-126794700D01*
X98746599Y-126794700D01*
X98781247Y-126809052D01*
X100280347Y-128308152D01*
X100294699Y-128342800D01*
X100280347Y-128377448D01*
X100245699Y-128391800D01*
X100139714Y-128391800D01*
X100040135Y-128428042D01*
X100040132Y-128428044D01*
X100037400Y-128430336D01*
X100005904Y-128441800D01*
X99889957Y-128441800D01*
X99855309Y-128427448D01*
X98905499Y-127477637D01*
X98903099Y-127476643D01*
X98835347Y-127448579D01*
X98813429Y-127439500D01*
X98813428Y-127439500D01*
X98711400Y-127439500D01*
X98676752Y-127425148D01*
X98662400Y-127390500D01*
X98662400Y-127375180D01*
X98662399Y-127375176D01*
X98660107Y-127363656D01*
X98653667Y-127331278D01*
X98642561Y-127314656D01*
X98620404Y-127281495D01*
X98570621Y-127248232D01*
X98526723Y-127239500D01*
X98526720Y-127239500D01*
X97246756Y-127239500D01*
X97212108Y-127225148D01*
X96421108Y-126434147D01*
X96406756Y-126399499D01*
X96421108Y-126364851D01*
X96455756Y-126350499D01*
X97089717Y-126350499D01*
X97089718Y-126350499D01*
X97161072Y-126339198D01*
X97183498Y-126335647D01*
X97183498Y-126335646D01*
X97183504Y-126335646D01*
X97183509Y-126335643D01*
X97186212Y-126334765D01*
X97223600Y-126337700D01*
G37*
%TD.AperFunction*%
%TA.AperFunction,NonConductor*%
G36*
X101348237Y-128054982D02*
G01*
X101364481Y-128070196D01*
X101383396Y-128098505D01*
X101430315Y-128129854D01*
X101433178Y-128131767D01*
X101477080Y-128140500D01*
X103414100Y-128140500D01*
X103448748Y-128154852D01*
X103463100Y-128189500D01*
X103463100Y-128460500D01*
X103448748Y-128495148D01*
X103414100Y-128509500D01*
X101477076Y-128509500D01*
X101433178Y-128518232D01*
X101383395Y-128551495D01*
X101350132Y-128601278D01*
X101344979Y-128627181D01*
X101324142Y-128658363D01*
X101287360Y-128665678D01*
X101262273Y-128652268D01*
X100858097Y-128248092D01*
X100843745Y-128213444D01*
X100858097Y-128178796D01*
X100892745Y-128164444D01*
X100909502Y-128167398D01*
X100984514Y-128194700D01*
X100984515Y-128194700D01*
X101090486Y-128194700D01*
X101190068Y-128158456D01*
X101211468Y-128140499D01*
X101271248Y-128090338D01*
X101281304Y-128072918D01*
X101311054Y-128050089D01*
X101348237Y-128054982D01*
G37*
%TD.AperFunction*%
%TA.AperFunction,NonConductor*%
G36*
X101150301Y-129162327D02*
G01*
X101157695Y-129165390D01*
X101206246Y-129185501D01*
X101206248Y-129185501D01*
X101292400Y-129185501D01*
X101327048Y-129199853D01*
X101341400Y-129234501D01*
X101341400Y-129274823D01*
X101350132Y-129318721D01*
X101383395Y-129368504D01*
X101433178Y-129401767D01*
X101477080Y-129410500D01*
X103414100Y-129410500D01*
X103448748Y-129424852D01*
X103463100Y-129459500D01*
X103463100Y-129730500D01*
X103448748Y-129765148D01*
X103414100Y-129779500D01*
X101539701Y-129779500D01*
X101505053Y-129765148D01*
X101490701Y-129730500D01*
X101490701Y-129689975D01*
X101490700Y-129689971D01*
X101452564Y-129597904D01*
X101452563Y-129597902D01*
X101379307Y-129524646D01*
X101379300Y-129524640D01*
X101096908Y-129242247D01*
X101082556Y-129207599D01*
X101096908Y-129172951D01*
X101131556Y-129158599D01*
X101150301Y-129162327D01*
G37*
%TD.AperFunction*%
%TA.AperFunction,NonConductor*%
G36*
X98737468Y-128018129D02*
G01*
X99553536Y-128834197D01*
X99624000Y-128904662D01*
X99624001Y-128904662D01*
X99624003Y-128904664D01*
X99716072Y-128942800D01*
X100005904Y-128942800D01*
X100037400Y-128954263D01*
X100040132Y-128956556D01*
X100128287Y-128988640D01*
X100146176Y-129000037D01*
X100975348Y-129829208D01*
X100989700Y-129863856D01*
X100989700Y-131281499D01*
X100975348Y-131316147D01*
X100940700Y-131330499D01*
X100906052Y-131316147D01*
X99194213Y-129604308D01*
X99180605Y-129578169D01*
X99167834Y-129505737D01*
X99131346Y-129442537D01*
X99114849Y-129413963D01*
X99114847Y-129413960D01*
X99033668Y-129345843D01*
X98934086Y-129309600D01*
X98828114Y-129309600D01*
X98724503Y-129347310D01*
X98723721Y-129345162D01*
X98694262Y-129348996D01*
X98664543Y-129326121D01*
X98658957Y-129292125D01*
X98662400Y-129274820D01*
X98662400Y-128645180D01*
X98653667Y-128601278D01*
X98636202Y-128575139D01*
X98620404Y-128551495D01*
X98570621Y-128518232D01*
X98526723Y-128509500D01*
X98526720Y-128509500D01*
X96589700Y-128509500D01*
X96555052Y-128495148D01*
X96540700Y-128460500D01*
X96540700Y-128189500D01*
X96555052Y-128154852D01*
X96589700Y-128140500D01*
X98526720Y-128140500D01*
X98570622Y-128131767D01*
X98620404Y-128098504D01*
X98653667Y-128048722D01*
X98654761Y-128043219D01*
X98675595Y-128012036D01*
X98712377Y-128004718D01*
X98737468Y-128018129D01*
G37*
%TD.AperFunction*%
%TA.AperFunction,NonConductor*%
G36*
X104047748Y-128575139D02*
G01*
X104055534Y-128585285D01*
X104069680Y-128609787D01*
X104075252Y-128619438D01*
X104075252Y-128619439D01*
X104156431Y-128687556D01*
X104256014Y-128723800D01*
X104361986Y-128723800D01*
X104461568Y-128687556D01*
X104484833Y-128668033D01*
X104520600Y-128656756D01*
X104553866Y-128674073D01*
X104565144Y-128709840D01*
X104565009Y-128711168D01*
X104504741Y-129235246D01*
X104504664Y-129235880D01*
X104362036Y-130348269D01*
X104361946Y-130348936D01*
X104209095Y-131423666D01*
X104208989Y-131424375D01*
X104046295Y-132459526D01*
X104046170Y-132460282D01*
X103874000Y-133454078D01*
X103873852Y-133454892D01*
X103692556Y-134405671D01*
X103692379Y-134406553D01*
X103502364Y-135312364D01*
X103502152Y-135313328D01*
X103303761Y-136172574D01*
X103303503Y-136173635D01*
X103097204Y-136984230D01*
X103096888Y-136985411D01*
X102883054Y-137745719D01*
X102882661Y-137747046D01*
X102699083Y-138335494D01*
X102675063Y-138364296D01*
X102637713Y-138367678D01*
X102608911Y-138343658D01*
X102603574Y-138326025D01*
X102602074Y-138311744D01*
X102543579Y-138131716D01*
X102502291Y-138060202D01*
X102468166Y-138001095D01*
X102461601Y-137976595D01*
X102461601Y-137931502D01*
X102461600Y-137931488D01*
X102461600Y-133015664D01*
X102461601Y-133015655D01*
X102461601Y-132920248D01*
X102461600Y-132920244D01*
X102427270Y-132837365D01*
X102427269Y-132837363D01*
X102361046Y-132771140D01*
X102361039Y-132771134D01*
X101624053Y-132034148D01*
X101609701Y-131999500D01*
X101624053Y-131964852D01*
X101658701Y-131950500D01*
X103476720Y-131950500D01*
X103520622Y-131941767D01*
X103570404Y-131908504D01*
X103603667Y-131858722D01*
X103612400Y-131814820D01*
X103612400Y-131185180D01*
X103603667Y-131141278D01*
X103570404Y-131091495D01*
X103520621Y-131058232D01*
X103476723Y-131049500D01*
X103476720Y-131049500D01*
X101539700Y-131049500D01*
X101505052Y-131035148D01*
X101490700Y-131000500D01*
X101490700Y-130729500D01*
X101505052Y-130694852D01*
X101539700Y-130680500D01*
X103476720Y-130680500D01*
X103520622Y-130671767D01*
X103570404Y-130638504D01*
X103603667Y-130588722D01*
X103612400Y-130544820D01*
X103612400Y-130529500D01*
X103626752Y-130494852D01*
X103661400Y-130480500D01*
X103763426Y-130480500D01*
X103763428Y-130480500D01*
X103855497Y-130442364D01*
X103855499Y-130442362D01*
X103855500Y-130442362D01*
X103925962Y-130371900D01*
X103925962Y-130371899D01*
X103925964Y-130371897D01*
X103964100Y-130279828D01*
X103964100Y-128609787D01*
X103978452Y-128575139D01*
X104013100Y-128560787D01*
X104047748Y-128575139D01*
G37*
%TD.AperFunction*%
%TA.AperFunction,NonConductor*%
G36*
X95384322Y-127472287D02*
G01*
X95388033Y-127475638D01*
X96075348Y-128162953D01*
X96089700Y-128197601D01*
X96089700Y-129004855D01*
X96089700Y-129004857D01*
X96089701Y-129004858D01*
X96124030Y-129087736D01*
X96124032Y-129087739D01*
X96187461Y-129151168D01*
X96187463Y-129151169D01*
X96187464Y-129151170D01*
X96270345Y-129185500D01*
X96342400Y-129185500D01*
X96377048Y-129199852D01*
X96391400Y-129234500D01*
X96391400Y-129274823D01*
X96400132Y-129318721D01*
X96433395Y-129368504D01*
X96483178Y-129401767D01*
X96527080Y-129410500D01*
X98526720Y-129410500D01*
X98559193Y-129404040D01*
X98595975Y-129411355D01*
X98616811Y-129442537D01*
X98611189Y-129476597D01*
X98594366Y-129505735D01*
X98575964Y-129610100D01*
X98594366Y-129714464D01*
X98595393Y-129717285D01*
X98593753Y-129754753D01*
X98566101Y-129780087D01*
X98539788Y-129782099D01*
X98529671Y-129780087D01*
X98526720Y-129779500D01*
X96527080Y-129779500D01*
X96527076Y-129779500D01*
X96483178Y-129788232D01*
X96433395Y-129821495D01*
X96400132Y-129871278D01*
X96391400Y-129915176D01*
X96391400Y-130544823D01*
X96400132Y-130588721D01*
X96433395Y-130638504D01*
X96483178Y-130671767D01*
X96527080Y-130680500D01*
X98526720Y-130680500D01*
X98570622Y-130671767D01*
X98620404Y-130638504D01*
X98653667Y-130588722D01*
X98662400Y-130544820D01*
X98662400Y-130504500D01*
X98676752Y-130469852D01*
X98711400Y-130455500D01*
X98752479Y-130455500D01*
X98783976Y-130466964D01*
X98800532Y-130480856D01*
X98900114Y-130517100D01*
X99006086Y-130517100D01*
X99105668Y-130480856D01*
X99186847Y-130412739D01*
X99186847Y-130412738D01*
X99186848Y-130412738D01*
X99220066Y-130355202D01*
X99249818Y-130332372D01*
X99287000Y-130337266D01*
X99297149Y-130345054D01*
X101996248Y-133044153D01*
X102010600Y-133078801D01*
X102010600Y-134356815D01*
X101996248Y-134391463D01*
X101961600Y-134405815D01*
X101926952Y-134391463D01*
X101925186Y-134389602D01*
X101860849Y-134318148D01*
X101860846Y-134318146D01*
X101705664Y-134205400D01*
X101705663Y-134205399D01*
X101530431Y-134127381D01*
X101530428Y-134127380D01*
X101528085Y-134126337D01*
X101528534Y-134125326D01*
X101502738Y-134103287D01*
X101497400Y-134081048D01*
X101497400Y-133697074D01*
X101497399Y-133697070D01*
X101459264Y-133605003D01*
X101459262Y-133605001D01*
X101459262Y-133605000D01*
X101388797Y-133534536D01*
X99141899Y-131287637D01*
X99049829Y-131249500D01*
X99049828Y-131249500D01*
X98711400Y-131249500D01*
X98676752Y-131235148D01*
X98662400Y-131200500D01*
X98662400Y-131185180D01*
X98662399Y-131185176D01*
X98653667Y-131141278D01*
X98620404Y-131091495D01*
X98570621Y-131058232D01*
X98526723Y-131049500D01*
X98526720Y-131049500D01*
X96527080Y-131049500D01*
X96527076Y-131049500D01*
X96483178Y-131058232D01*
X96433395Y-131091495D01*
X96400132Y-131141278D01*
X96391400Y-131185176D01*
X96391400Y-131814823D01*
X96400132Y-131858721D01*
X96433395Y-131908504D01*
X96483178Y-131941767D01*
X96527080Y-131950500D01*
X98526720Y-131950500D01*
X98570622Y-131941767D01*
X98620404Y-131908504D01*
X98653667Y-131858722D01*
X98662400Y-131814820D01*
X98662400Y-131799500D01*
X98676752Y-131764852D01*
X98711400Y-131750500D01*
X98875943Y-131750500D01*
X98910591Y-131764852D01*
X100982048Y-133836309D01*
X100996400Y-133870957D01*
X100996400Y-134081048D01*
X100982048Y-134115696D01*
X100965494Y-134125841D01*
X100965715Y-134126337D01*
X100963371Y-134127380D01*
X100963369Y-134127381D01*
X100788137Y-134205399D01*
X100788135Y-134205400D01*
X100632953Y-134318146D01*
X100632950Y-134318148D01*
X100504609Y-134460688D01*
X100504603Y-134460696D01*
X100408700Y-134626805D01*
X100408698Y-134626808D01*
X100349424Y-134809235D01*
X100329374Y-135000000D01*
X100349424Y-135190764D01*
X100408698Y-135373191D01*
X100408700Y-135373194D01*
X100483199Y-135502231D01*
X100504606Y-135539308D01*
X100504609Y-135539311D01*
X100632950Y-135681851D01*
X100632953Y-135681853D01*
X100632955Y-135681855D01*
X100788137Y-135794601D01*
X100963369Y-135872619D01*
X101150992Y-135912500D01*
X101342808Y-135912500D01*
X101530431Y-135872619D01*
X101705663Y-135794601D01*
X101860845Y-135681855D01*
X101895665Y-135643184D01*
X101925186Y-135610397D01*
X101959035Y-135594251D01*
X101994387Y-135606770D01*
X102010533Y-135640619D01*
X102010600Y-135643184D01*
X102010600Y-137581406D01*
X101996248Y-137616054D01*
X101961600Y-137630406D01*
X101951413Y-137629335D01*
X101811047Y-137599500D01*
X101811046Y-137599500D01*
X101621754Y-137599500D01*
X101436603Y-137638854D01*
X101436594Y-137638857D01*
X101263668Y-137715850D01*
X101110527Y-137827113D01*
X101110524Y-137827115D01*
X100983870Y-137967780D01*
X100983864Y-137967788D01*
X100889223Y-138131712D01*
X100889221Y-138131715D01*
X100889221Y-138131716D01*
X100830726Y-138311744D01*
X100810940Y-138500000D01*
X100830726Y-138688256D01*
X100889221Y-138868284D01*
X100983867Y-139032216D01*
X100983870Y-139032219D01*
X101110524Y-139172884D01*
X101110527Y-139172886D01*
X101110529Y-139172888D01*
X101263670Y-139284151D01*
X101436597Y-139361144D01*
X101621754Y-139400500D01*
X101811046Y-139400500D01*
X101996203Y-139361144D01*
X102169130Y-139284151D01*
X102308804Y-139182671D01*
X102345270Y-139173917D01*
X102377247Y-139193513D01*
X102386002Y-139229979D01*
X102383248Y-139240138D01*
X102199724Y-139710114D01*
X102198892Y-139712114D01*
X101960158Y-140251762D01*
X101959047Y-140254104D01*
X101715905Y-140733443D01*
X101714387Y-140736210D01*
X101467991Y-141153064D01*
X101465870Y-141156346D01*
X101217829Y-141508523D01*
X101214799Y-141512397D01*
X100967378Y-141797919D01*
X100962983Y-141802380D01*
X100719242Y-142020019D01*
X100712883Y-142024827D01*
X100476238Y-142175180D01*
X100467375Y-142179623D01*
X100239606Y-142266222D01*
X100228338Y-142269034D01*
X100006145Y-142297126D01*
X99993853Y-142297126D01*
X99771659Y-142269034D01*
X99760391Y-142266222D01*
X99532623Y-142179624D01*
X99523760Y-142175181D01*
X99419029Y-142108640D01*
X99287112Y-142024826D01*
X99280761Y-142020024D01*
X99037015Y-141802380D01*
X99037011Y-141802376D01*
X99032616Y-141797915D01*
X98785197Y-141512397D01*
X98782167Y-141508523D01*
X98709230Y-141404964D01*
X98534122Y-141156336D01*
X98532003Y-141153058D01*
X98419023Y-140961918D01*
X98285599Y-140736190D01*
X98284103Y-140733463D01*
X98040937Y-140254077D01*
X98039852Y-140251789D01*
X97801098Y-139712097D01*
X97800273Y-139710114D01*
X97596300Y-139187768D01*
X97597065Y-139150274D01*
X97624119Y-139124303D01*
X97661615Y-139125068D01*
X97678358Y-139137158D01*
X97710529Y-139172888D01*
X97863670Y-139284151D01*
X98036597Y-139361144D01*
X98221754Y-139400500D01*
X98411046Y-139400500D01*
X98596203Y-139361144D01*
X98769130Y-139284151D01*
X98922271Y-139172888D01*
X99048933Y-139032216D01*
X99143579Y-138868284D01*
X99202074Y-138688256D01*
X99221860Y-138500000D01*
X99202074Y-138311744D01*
X99143579Y-138131716D01*
X99048933Y-137967784D01*
X98986471Y-137898413D01*
X98922275Y-137827115D01*
X98922272Y-137827113D01*
X98919462Y-137825071D01*
X98769130Y-137715849D01*
X98596203Y-137638856D01*
X98596200Y-137638855D01*
X98596196Y-137638854D01*
X98411046Y-137599500D01*
X98221754Y-137599500D01*
X98036603Y-137638854D01*
X98036594Y-137638857D01*
X97863668Y-137715850D01*
X97710527Y-137827113D01*
X97710524Y-137827115D01*
X97583870Y-137967780D01*
X97583864Y-137967788D01*
X97489223Y-138131712D01*
X97489221Y-138131715D01*
X97430726Y-138311743D01*
X97420959Y-138404671D01*
X97403063Y-138437629D01*
X97367105Y-138448281D01*
X97334147Y-138430385D01*
X97325450Y-138414142D01*
X97117318Y-137746990D01*
X97116961Y-137745781D01*
X96903108Y-136985406D01*
X96902798Y-136984246D01*
X96730230Y-136306190D01*
X96696468Y-136173533D01*
X96696239Y-136172589D01*
X96497844Y-135313320D01*
X96497637Y-135312377D01*
X96472126Y-135190764D01*
X96432109Y-135000000D01*
X97789374Y-135000000D01*
X97809424Y-135190764D01*
X97868698Y-135373191D01*
X97868700Y-135373194D01*
X97943199Y-135502231D01*
X97964606Y-135539308D01*
X97964609Y-135539311D01*
X98092950Y-135681851D01*
X98092953Y-135681853D01*
X98092955Y-135681855D01*
X98248137Y-135794601D01*
X98423369Y-135872619D01*
X98610992Y-135912500D01*
X98802808Y-135912500D01*
X98990431Y-135872619D01*
X99165663Y-135794601D01*
X99320845Y-135681855D01*
X99449194Y-135539308D01*
X99545102Y-135373191D01*
X99604376Y-135190764D01*
X99624426Y-135000000D01*
X99604376Y-134809236D01*
X99545102Y-134626809D01*
X99449194Y-134460692D01*
X99419062Y-134427227D01*
X99320849Y-134318148D01*
X99320846Y-134318146D01*
X99165664Y-134205400D01*
X99165663Y-134205399D01*
X98990431Y-134127381D01*
X98990428Y-134127380D01*
X98990424Y-134127379D01*
X98802808Y-134087500D01*
X98610992Y-134087500D01*
X98423375Y-134127379D01*
X98423366Y-134127382D01*
X98248135Y-134205400D01*
X98092953Y-134318146D01*
X98092950Y-134318148D01*
X97964609Y-134460688D01*
X97964603Y-134460696D01*
X97868700Y-134626805D01*
X97868698Y-134626808D01*
X97809424Y-134809235D01*
X97789374Y-135000000D01*
X96432109Y-135000000D01*
X96307602Y-134406475D01*
X96307455Y-134405743D01*
X96126139Y-133454861D01*
X96125997Y-133454078D01*
X96057466Y-133058505D01*
X95953816Y-132460225D01*
X95953713Y-132459601D01*
X95790992Y-131424267D01*
X95790917Y-131423772D01*
X95638050Y-130348934D01*
X95637962Y-130348278D01*
X95593884Y-130004500D01*
X95495321Y-129235788D01*
X95495267Y-129235342D01*
X95363166Y-128086611D01*
X95363128Y-128086263D01*
X95304640Y-127515278D01*
X95315386Y-127479349D01*
X95348392Y-127461541D01*
X95384322Y-127472287D01*
G37*
%TD.AperFunction*%
M02*
