%TF.GenerationSoftware,KiCad,Pcbnew,8.0.0*%
%TF.CreationDate,2024-06-05T20:58:04+05:30*%
%TF.ProjectId,version1,76657273-696f-46e3-912e-6b696361645f,rev?*%
%TF.SameCoordinates,Original*%
%TF.FileFunction,Profile,NP*%
%FSLAX46Y46*%
G04 Gerber Fmt 4.6, Leading zero omitted, Abs format (unit mm)*
G04 Created by KiCad (PCBNEW 8.0.0) date 2024-06-05 20:58:04*
%MOMM*%
%LPD*%
G01*
G04 APERTURE LIST*
%ADD10C,0.200000*%
G04 APERTURE END LIST*
D10*
X100000000Y-87500000D02*
X99716970Y-87535782D01*
X99437656Y-87641979D01*
X99162404Y-87816861D01*
X98891558Y-88058702D01*
X98625464Y-88365772D01*
X98364468Y-88736345D01*
X98108915Y-89168692D01*
X97859151Y-89661086D01*
X97615522Y-90211798D01*
X97378373Y-90819101D01*
X97148049Y-91481267D01*
X96924897Y-92196567D01*
X96709262Y-92963275D01*
X96501489Y-93779662D01*
X96301924Y-94644001D01*
X96110912Y-95554563D01*
X95928800Y-96509620D01*
X95755932Y-97507446D01*
X95592655Y-98546311D01*
X95439313Y-99624488D01*
X95296253Y-100740249D01*
X95163820Y-101891866D01*
X95042359Y-103077612D01*
X94932217Y-104295758D01*
X94833738Y-105544577D01*
X94747269Y-106822341D01*
X94673154Y-108127321D01*
X94611740Y-109457790D01*
X94563372Y-110812021D01*
X94528395Y-112188284D01*
X94507156Y-113584853D01*
X94500000Y-115000000D01*
X105500000Y-115000000D02*
X105492843Y-113584853D01*
X105471604Y-112188284D01*
X105436627Y-110812021D01*
X105388259Y-109457790D01*
X105326845Y-108127321D01*
X105252730Y-106822341D01*
X105166261Y-105544577D01*
X105067782Y-104295758D01*
X104957640Y-103077612D01*
X104836179Y-101891866D01*
X104703746Y-100740249D01*
X104560686Y-99624488D01*
X104407344Y-98546311D01*
X104244067Y-97507446D01*
X104071199Y-96509620D01*
X103889087Y-95554563D01*
X103698075Y-94644001D01*
X103498510Y-93779662D01*
X103290737Y-92963275D01*
X103075102Y-92196567D01*
X102851950Y-91481267D01*
X102621626Y-90819101D01*
X102384477Y-90211798D01*
X102140848Y-89661086D01*
X101891084Y-89168692D01*
X101635531Y-88736345D01*
X101374535Y-88365772D01*
X101108441Y-88058702D01*
X100837595Y-87816861D01*
X100562343Y-87641979D01*
X100283029Y-87535782D01*
X100000000Y-87500000D01*
X100000000Y-142500000D02*
X100283029Y-142464217D01*
X100562343Y-142358020D01*
X100837595Y-142183138D01*
X101108441Y-141941297D01*
X101374535Y-141634227D01*
X101635531Y-141263654D01*
X101891084Y-140831307D01*
X102140848Y-140338913D01*
X102384477Y-139788201D01*
X102621626Y-139180898D01*
X102851950Y-138518732D01*
X103075102Y-137803432D01*
X103290737Y-137036724D01*
X103498510Y-136220337D01*
X103698075Y-135355998D01*
X103889087Y-134445436D01*
X104071199Y-133490379D01*
X104244067Y-132492553D01*
X104407344Y-131453688D01*
X104560686Y-130375511D01*
X104703746Y-129259750D01*
X104836179Y-128108133D01*
X104957640Y-126922387D01*
X105067782Y-125704241D01*
X105166261Y-124455422D01*
X105252730Y-123177658D01*
X105326845Y-121872678D01*
X105388259Y-120542209D01*
X105436627Y-119187978D01*
X105471604Y-117811715D01*
X105492843Y-116415146D01*
X105500000Y-115000000D01*
X94500000Y-115000000D02*
X94507156Y-116415146D01*
X94528395Y-117811715D01*
X94563372Y-119187978D01*
X94611740Y-120542209D01*
X94673154Y-121872678D01*
X94747269Y-123177658D01*
X94833738Y-124455422D01*
X94932217Y-125704241D01*
X95042359Y-126922387D01*
X95163820Y-128108133D01*
X95296253Y-129259750D01*
X95439313Y-130375511D01*
X95592655Y-131453688D01*
X95755932Y-132492553D01*
X95928800Y-133490379D01*
X96110912Y-134445436D01*
X96301924Y-135355998D01*
X96501489Y-136220337D01*
X96709262Y-137036724D01*
X96924897Y-137803432D01*
X97148049Y-138518732D01*
X97378373Y-139180898D01*
X97615522Y-139788201D01*
X97859151Y-140338913D01*
X98108915Y-140831307D01*
X98364468Y-141263654D01*
X98625464Y-141634227D01*
X98891558Y-141941297D01*
X99162404Y-142183138D01*
X99437656Y-142358020D01*
X99716970Y-142464217D01*
X100000000Y-142500000D01*
M02*
