M48
; DRILL file {KiCad 8.0.0} date 2024-06-05T20:58:06+0530
; FORMAT={-:-/ absolute / inch / decimal}
; #@! TF.CreationDate,2024-06-05T20:58:06+05:30
; #@! TF.GenerationSoftware,Kicad,Pcbnew,8.0.0
; #@! TF.FileFunction,Plated,1,2,PTH
FMAT,2
INCH
; #@! TA.AperFunction,Plated,PTH,ViaDrill
T1C0.0039
; #@! TA.AperFunction,Plated,PTH,ComponentDrill
T2C0.0315
; #@! TA.AperFunction,Plated,PTH,ComponentDrill
T3C0.0394
%
G90
G05
T1
X3.7581Y-4.7971
X3.7979Y-4.6588
X3.8287Y-4.7796
X3.8325Y-4.8857
X3.8494Y-4.9238
X3.8659Y-4.1094
X3.893Y-5.1028
X3.8958Y-5.1266
X3.9011Y-4.4843
X3.9063Y-4.8028
X3.9099Y-4.8283
X3.9194Y-4.5187
X3.9446Y-5.0666
X3.9457Y-4.3968
X3.9643Y-4.9962
X3.9649Y-4.5647
X3.9779Y-5.0352
X4.0421Y-4.7576
X4.0726Y-4.6415
X4.0839Y-4.7825
X4.1067Y-5.056
X4.1129Y-5.0013
T2
X3.8699Y-3.6024
X3.8707Y-5.4528
X3.8714Y-4.5263
X4.0037Y-3.6024
X4.0046Y-5.4528
X4.0052Y-4.5263
T3
X3.837Y-3.9558
X3.8433Y-4.152
X3.8433Y-4.252
X3.8861Y-5.315
X3.887Y-3.7598
X3.8882Y-4.4409
X3.8902Y-4.6142
X3.937Y-3.9558
X3.9433Y-4.152
X3.9433Y-4.252
X3.9861Y-5.315
X3.987Y-3.7598
X3.9882Y-4.4409
X3.9902Y-4.6142
X4.037Y-3.9558
X4.0433Y-4.152
X4.0433Y-4.252
M30
