%TF.GenerationSoftware,KiCad,Pcbnew,8.0.0*%
%TF.CreationDate,2024-06-05T20:58:04+05:30*%
%TF.ProjectId,version1,76657273-696f-46e3-912e-6b696361645f,rev?*%
%TF.SameCoordinates,Original*%
%TF.FileFunction,Legend,Bot*%
%TF.FilePolarity,Positive*%
%FSLAX46Y46*%
G04 Gerber Fmt 4.6, Leading zero omitted, Abs format (unit mm)*
G04 Created by KiCad (PCBNEW 8.0.0) date 2024-06-05 20:58:04*
%MOMM*%
%LPD*%
G01*
G04 APERTURE LIST*
%ADD10C,0.150000*%
%ADD11C,0.500000*%
%ADD12C,0.120000*%
%ADD13C,0.127000*%
%ADD14C,0.203200*%
G04 APERTURE END LIST*
D10*
X97621646Y-111885002D02*
X98231170Y-111885002D01*
X101904314Y-111908728D02*
X102513838Y-111908728D01*
X102209076Y-112213490D02*
X102209076Y-111603966D01*
X96066345Y-113181977D02*
X96675869Y-113181977D01*
X96371107Y-113486739D02*
X96371107Y-112877215D01*
X100710839Y-116394295D02*
X100710839Y-115594295D01*
X100710839Y-115594295D02*
X100444173Y-116165723D01*
X100444173Y-116165723D02*
X100177506Y-115594295D01*
X100177506Y-115594295D02*
X100177506Y-116394295D01*
X99377506Y-116394295D02*
X99834649Y-116394295D01*
X99606077Y-116394295D02*
X99606077Y-115594295D01*
X99606077Y-115594295D02*
X99682268Y-115708580D01*
X99682268Y-115708580D02*
X99758458Y-115784771D01*
X99758458Y-115784771D02*
X99834649Y-115822866D01*
X103301137Y-113181977D02*
X103910661Y-113181977D01*
X103605899Y-113486739D02*
X103605899Y-112877215D01*
X97574192Y-118030216D02*
X98183716Y-118030216D01*
X97878954Y-118334978D02*
X97878954Y-117725454D01*
X103393055Y-117404174D02*
X104002579Y-117404174D01*
X102177171Y-117994626D02*
X102786695Y-117994626D01*
D11*
X100782004Y-125463599D02*
X100877242Y-125558838D01*
X100877242Y-125558838D02*
X100782004Y-125654076D01*
X100782004Y-125654076D02*
X100686766Y-125558838D01*
X100686766Y-125558838D02*
X100782004Y-125463599D01*
X100782004Y-125463599D02*
X100782004Y-125654076D01*
D10*
X96069259Y-117429604D02*
X96678783Y-117429604D01*
X102473755Y-135042079D02*
X103083279Y-135042079D01*
X102778517Y-135346841D02*
X102778517Y-134737317D01*
X96914452Y-135008006D02*
X97523976Y-135008006D01*
X100744673Y-133541336D02*
X100630387Y-133579431D01*
X100630387Y-133579431D02*
X100592292Y-133617527D01*
X100592292Y-133617527D02*
X100554196Y-133693717D01*
X100554196Y-133693717D02*
X100554196Y-133808003D01*
X100554196Y-133808003D02*
X100592292Y-133884193D01*
X100592292Y-133884193D02*
X100630387Y-133922289D01*
X100630387Y-133922289D02*
X100706577Y-133960384D01*
X100706577Y-133960384D02*
X101011339Y-133960384D01*
X101011339Y-133960384D02*
X101011339Y-133160384D01*
X101011339Y-133160384D02*
X100744673Y-133160384D01*
X100744673Y-133160384D02*
X100668482Y-133198479D01*
X100668482Y-133198479D02*
X100630387Y-133236574D01*
X100630387Y-133236574D02*
X100592292Y-133312765D01*
X100592292Y-133312765D02*
X100592292Y-133388955D01*
X100592292Y-133388955D02*
X100630387Y-133465146D01*
X100630387Y-133465146D02*
X100668482Y-133503241D01*
X100668482Y-133503241D02*
X100744673Y-133541336D01*
X100744673Y-133541336D02*
X101011339Y-133541336D01*
X100325625Y-133160384D02*
X99868482Y-133160384D01*
X100097054Y-133960384D02*
X100097054Y-133160384D01*
X99182768Y-133960384D02*
X99639911Y-133960384D01*
X99411339Y-133960384D02*
X99411339Y-133160384D01*
X99411339Y-133160384D02*
X99487530Y-133274669D01*
X99487530Y-133274669D02*
X99563720Y-133350860D01*
X99563720Y-133350860D02*
X99639911Y-133388955D01*
X104419791Y-121410461D02*
X104686458Y-121029508D01*
X104876934Y-121410461D02*
X104876934Y-120610461D01*
X104876934Y-120610461D02*
X104572172Y-120610461D01*
X104572172Y-120610461D02*
X104495982Y-120648556D01*
X104495982Y-120648556D02*
X104457887Y-120686651D01*
X104457887Y-120686651D02*
X104419791Y-120762842D01*
X104419791Y-120762842D02*
X104419791Y-120877127D01*
X104419791Y-120877127D02*
X104457887Y-120953318D01*
X104457887Y-120953318D02*
X104495982Y-120991413D01*
X104495982Y-120991413D02*
X104572172Y-121029508D01*
X104572172Y-121029508D02*
X104876934Y-121029508D01*
X104115030Y-120686651D02*
X104076934Y-120648556D01*
X104076934Y-120648556D02*
X104000744Y-120610461D01*
X104000744Y-120610461D02*
X103810268Y-120610461D01*
X103810268Y-120610461D02*
X103734077Y-120648556D01*
X103734077Y-120648556D02*
X103695982Y-120686651D01*
X103695982Y-120686651D02*
X103657887Y-120762842D01*
X103657887Y-120762842D02*
X103657887Y-120839032D01*
X103657887Y-120839032D02*
X103695982Y-120953318D01*
X103695982Y-120953318D02*
X104153125Y-121410461D01*
X104153125Y-121410461D02*
X103657887Y-121410461D01*
X96890508Y-112462257D02*
X96890508Y-111662257D01*
X96890508Y-111662257D02*
X96700032Y-111662257D01*
X96700032Y-111662257D02*
X96585746Y-111700352D01*
X96585746Y-111700352D02*
X96509556Y-111776542D01*
X96509556Y-111776542D02*
X96471461Y-111852733D01*
X96471461Y-111852733D02*
X96433365Y-112005114D01*
X96433365Y-112005114D02*
X96433365Y-112119400D01*
X96433365Y-112119400D02*
X96471461Y-112271781D01*
X96471461Y-112271781D02*
X96509556Y-112347971D01*
X96509556Y-112347971D02*
X96585746Y-112424162D01*
X96585746Y-112424162D02*
X96700032Y-112462257D01*
X96700032Y-112462257D02*
X96890508Y-112462257D01*
X95671461Y-112462257D02*
X96128604Y-112462257D01*
X95900032Y-112462257D02*
X95900032Y-111662257D01*
X95900032Y-111662257D02*
X95976223Y-111776542D01*
X95976223Y-111776542D02*
X96052413Y-111852733D01*
X96052413Y-111852733D02*
X96128604Y-111890828D01*
X96323056Y-124364435D02*
X96589723Y-123983482D01*
X96780199Y-124364435D02*
X96780199Y-123564435D01*
X96780199Y-123564435D02*
X96475437Y-123564435D01*
X96475437Y-123564435D02*
X96399247Y-123602530D01*
X96399247Y-123602530D02*
X96361152Y-123640625D01*
X96361152Y-123640625D02*
X96323056Y-123716816D01*
X96323056Y-123716816D02*
X96323056Y-123831101D01*
X96323056Y-123831101D02*
X96361152Y-123907292D01*
X96361152Y-123907292D02*
X96399247Y-123945387D01*
X96399247Y-123945387D02*
X96475437Y-123983482D01*
X96475437Y-123983482D02*
X96780199Y-123983482D01*
X95561152Y-124364435D02*
X96018295Y-124364435D01*
X95789723Y-124364435D02*
X95789723Y-123564435D01*
X95789723Y-123564435D02*
X95865914Y-123678720D01*
X95865914Y-123678720D02*
X95942104Y-123754911D01*
X95942104Y-123754911D02*
X96018295Y-123793006D01*
X104455381Y-118527668D02*
X104722048Y-118146715D01*
X104912524Y-118527668D02*
X104912524Y-117727668D01*
X104912524Y-117727668D02*
X104607762Y-117727668D01*
X104607762Y-117727668D02*
X104531572Y-117765763D01*
X104531572Y-117765763D02*
X104493477Y-117803858D01*
X104493477Y-117803858D02*
X104455381Y-117880049D01*
X104455381Y-117880049D02*
X104455381Y-117994334D01*
X104455381Y-117994334D02*
X104493477Y-118070525D01*
X104493477Y-118070525D02*
X104531572Y-118108620D01*
X104531572Y-118108620D02*
X104607762Y-118146715D01*
X104607762Y-118146715D02*
X104912524Y-118146715D01*
X103769667Y-117727668D02*
X103922048Y-117727668D01*
X103922048Y-117727668D02*
X103998239Y-117765763D01*
X103998239Y-117765763D02*
X104036334Y-117803858D01*
X104036334Y-117803858D02*
X104112524Y-117918144D01*
X104112524Y-117918144D02*
X104150620Y-118070525D01*
X104150620Y-118070525D02*
X104150620Y-118375287D01*
X104150620Y-118375287D02*
X104112524Y-118451477D01*
X104112524Y-118451477D02*
X104074429Y-118489573D01*
X104074429Y-118489573D02*
X103998239Y-118527668D01*
X103998239Y-118527668D02*
X103845858Y-118527668D01*
X103845858Y-118527668D02*
X103769667Y-118489573D01*
X103769667Y-118489573D02*
X103731572Y-118451477D01*
X103731572Y-118451477D02*
X103693477Y-118375287D01*
X103693477Y-118375287D02*
X103693477Y-118184811D01*
X103693477Y-118184811D02*
X103731572Y-118108620D01*
X103731572Y-118108620D02*
X103769667Y-118070525D01*
X103769667Y-118070525D02*
X103845858Y-118032430D01*
X103845858Y-118032430D02*
X103998239Y-118032430D01*
X103998239Y-118032430D02*
X104074429Y-118070525D01*
X104074429Y-118070525D02*
X104112524Y-118108620D01*
X104112524Y-118108620D02*
X104150620Y-118184811D01*
X100768804Y-129224819D02*
X100768804Y-130034342D01*
X100768804Y-130034342D02*
X100721185Y-130129580D01*
X100721185Y-130129580D02*
X100673566Y-130177200D01*
X100673566Y-130177200D02*
X100578328Y-130224819D01*
X100578328Y-130224819D02*
X100387852Y-130224819D01*
X100387852Y-130224819D02*
X100292614Y-130177200D01*
X100292614Y-130177200D02*
X100244995Y-130129580D01*
X100244995Y-130129580D02*
X100197376Y-130034342D01*
X100197376Y-130034342D02*
X100197376Y-129224819D01*
X99197376Y-130224819D02*
X99768804Y-130224819D01*
X99483090Y-130224819D02*
X99483090Y-129224819D01*
X99483090Y-129224819D02*
X99578328Y-129367676D01*
X99578328Y-129367676D02*
X99673566Y-129462914D01*
X99673566Y-129462914D02*
X99768804Y-129510533D01*
X95938485Y-118423809D02*
X95900390Y-118347619D01*
X95900390Y-118347619D02*
X95824200Y-118271428D01*
X95824200Y-118271428D02*
X95709914Y-118157142D01*
X95709914Y-118157142D02*
X95671819Y-118080952D01*
X95671819Y-118080952D02*
X95671819Y-118004761D01*
X95862295Y-118042857D02*
X95824200Y-117966666D01*
X95824200Y-117966666D02*
X95748009Y-117890476D01*
X95748009Y-117890476D02*
X95595628Y-117852380D01*
X95595628Y-117852380D02*
X95328961Y-117852380D01*
X95328961Y-117852380D02*
X95176580Y-117890476D01*
X95176580Y-117890476D02*
X95100390Y-117966666D01*
X95100390Y-117966666D02*
X95062295Y-118042857D01*
X95062295Y-118042857D02*
X95062295Y-118195238D01*
X95062295Y-118195238D02*
X95100390Y-118271428D01*
X95100390Y-118271428D02*
X95176580Y-118347619D01*
X95176580Y-118347619D02*
X95328961Y-118385714D01*
X95328961Y-118385714D02*
X95595628Y-118385714D01*
X95595628Y-118385714D02*
X95748009Y-118347619D01*
X95748009Y-118347619D02*
X95824200Y-118271428D01*
X95824200Y-118271428D02*
X95862295Y-118195238D01*
X95862295Y-118195238D02*
X95862295Y-118042857D01*
X95138485Y-118690475D02*
X95100390Y-118728571D01*
X95100390Y-118728571D02*
X95062295Y-118804761D01*
X95062295Y-118804761D02*
X95062295Y-118995237D01*
X95062295Y-118995237D02*
X95100390Y-119071428D01*
X95100390Y-119071428D02*
X95138485Y-119109523D01*
X95138485Y-119109523D02*
X95214676Y-119147618D01*
X95214676Y-119147618D02*
X95290866Y-119147618D01*
X95290866Y-119147618D02*
X95405152Y-119109523D01*
X95405152Y-119109523D02*
X95862295Y-118652380D01*
X95862295Y-118652380D02*
X95862295Y-119147618D01*
X100747618Y-112062295D02*
X100747618Y-111262295D01*
X100747618Y-111262295D02*
X100480952Y-111833723D01*
X100480952Y-111833723D02*
X100214285Y-111262295D01*
X100214285Y-111262295D02*
X100214285Y-112062295D01*
X99871428Y-111338485D02*
X99833332Y-111300390D01*
X99833332Y-111300390D02*
X99757142Y-111262295D01*
X99757142Y-111262295D02*
X99566666Y-111262295D01*
X99566666Y-111262295D02*
X99490475Y-111300390D01*
X99490475Y-111300390D02*
X99452380Y-111338485D01*
X99452380Y-111338485D02*
X99414285Y-111414676D01*
X99414285Y-111414676D02*
X99414285Y-111490866D01*
X99414285Y-111490866D02*
X99452380Y-111605152D01*
X99452380Y-111605152D02*
X99909523Y-112062295D01*
X99909523Y-112062295D02*
X99414285Y-112062295D01*
X104290508Y-112362257D02*
X104290508Y-111562257D01*
X104290508Y-111562257D02*
X104100032Y-111562257D01*
X104100032Y-111562257D02*
X103985746Y-111600352D01*
X103985746Y-111600352D02*
X103909556Y-111676542D01*
X103909556Y-111676542D02*
X103871461Y-111752733D01*
X103871461Y-111752733D02*
X103833365Y-111905114D01*
X103833365Y-111905114D02*
X103833365Y-112019400D01*
X103833365Y-112019400D02*
X103871461Y-112171781D01*
X103871461Y-112171781D02*
X103909556Y-112247971D01*
X103909556Y-112247971D02*
X103985746Y-112324162D01*
X103985746Y-112324162D02*
X104100032Y-112362257D01*
X104100032Y-112362257D02*
X104290508Y-112362257D01*
X103528604Y-111638447D02*
X103490508Y-111600352D01*
X103490508Y-111600352D02*
X103414318Y-111562257D01*
X103414318Y-111562257D02*
X103223842Y-111562257D01*
X103223842Y-111562257D02*
X103147651Y-111600352D01*
X103147651Y-111600352D02*
X103109556Y-111638447D01*
X103109556Y-111638447D02*
X103071461Y-111714638D01*
X103071461Y-111714638D02*
X103071461Y-111790828D01*
X103071461Y-111790828D02*
X103109556Y-111905114D01*
X103109556Y-111905114D02*
X103566699Y-112362257D01*
X103566699Y-112362257D02*
X103071461Y-112362257D01*
X104419791Y-124417820D02*
X104686458Y-124036867D01*
X104876934Y-124417820D02*
X104876934Y-123617820D01*
X104876934Y-123617820D02*
X104572172Y-123617820D01*
X104572172Y-123617820D02*
X104495982Y-123655915D01*
X104495982Y-123655915D02*
X104457887Y-123694010D01*
X104457887Y-123694010D02*
X104419791Y-123770201D01*
X104419791Y-123770201D02*
X104419791Y-123884486D01*
X104419791Y-123884486D02*
X104457887Y-123960677D01*
X104457887Y-123960677D02*
X104495982Y-123998772D01*
X104495982Y-123998772D02*
X104572172Y-124036867D01*
X104572172Y-124036867D02*
X104876934Y-124036867D01*
X104153125Y-123617820D02*
X103657887Y-123617820D01*
X103657887Y-123617820D02*
X103924553Y-123922582D01*
X103924553Y-123922582D02*
X103810268Y-123922582D01*
X103810268Y-123922582D02*
X103734077Y-123960677D01*
X103734077Y-123960677D02*
X103695982Y-123998772D01*
X103695982Y-123998772D02*
X103657887Y-124074963D01*
X103657887Y-124074963D02*
X103657887Y-124265439D01*
X103657887Y-124265439D02*
X103695982Y-124341629D01*
X103695982Y-124341629D02*
X103734077Y-124379725D01*
X103734077Y-124379725D02*
X103810268Y-124417820D01*
X103810268Y-124417820D02*
X104038839Y-124417820D01*
X104038839Y-124417820D02*
X104115030Y-124379725D01*
X104115030Y-124379725D02*
X104153125Y-124341629D01*
D12*
%TO.C,R2*%
X102203964Y-121765000D02*
X101749836Y-121765000D01*
X102203964Y-123235000D02*
X101749836Y-123235000D01*
%TO.C,R1*%
X97935264Y-124765000D02*
X97481136Y-124765000D01*
X97935264Y-126235000D02*
X97481136Y-126235000D01*
%TO.C,R6*%
X101749836Y-118765000D02*
X102203964Y-118765000D01*
X101749836Y-120235000D02*
X102203964Y-120235000D01*
D13*
%TO.C,U1*%
X101176900Y-127145000D02*
X98826900Y-127145000D01*
X98826900Y-132045000D02*
X101176900Y-132045000D01*
D14*
%TO.C,Q2*%
X96751700Y-118814100D02*
X97564500Y-118814100D01*
X96751700Y-119472900D02*
X96751700Y-118814100D01*
X96751700Y-121658900D02*
X96751700Y-121000100D01*
X97564500Y-121658900D02*
X96751700Y-121658900D01*
D12*
%TO.C,R3*%
X102203964Y-124765000D02*
X101749836Y-124765000D01*
X102203964Y-126235000D02*
X101749836Y-126235000D01*
%TD*%
M02*
